{
    "asset": {
        "generator": "FBX2glTF@houseofbits v0.9.7",
        "version": "2.0"
    },
    "scene": 0,
    "buffers": [
        {
            "byteLength": 21752,
            "uri": "columns1.bin"
        }
    ],
    "bufferViews": [
        {
            "buffer": 0,
            "byteLength": 2040,
            "byteOffset": 0,
            "target": 34963
        },
        {
            "buffer": 0,
            "byteLength": 7392,
            "byteOffset": 2040,
            "target": 34962
        },
        {
            "buffer": 0,
            "byteLength": 7392,
            "byteOffset": 9432,
            "target": 34962
        },
        {
            "buffer": 0,
            "byteLength": 4928,
            "byteOffset": 16824,
            "target": 34962
        }
    ],
    "scenes": [
        {
            "name": "Root Scene",
            "nodes": [
                0
            ]
        }
    ],
    "accessors": [
        {
            "componentType": 5123,
            "type": "SCALAR",
            "count": 1020,
            "bufferView": 0,
            "byteOffset": 0
        },
        {
            "componentType": 5126,
            "type": "VEC3",
            "count": 616,
            "bufferView": 1,
            "byteOffset": 0,
            "min": [
                -16.2823638916016,
                -0.0442737191915512,
                -0.938457489013672
            ],
            "max": [
                0.475602149963379,
                9.5794563293457,
                23.4150161743164
            ]
        },
        {
            "componentType": 5126,
            "type": "VEC3",
            "count": 616,
            "bufferView": 2,
            "byteOffset": 0
        },
        {
            "componentType": 5126,
            "type": "VEC2",
            "count": 616,
            "bufferView": 3,
            "byteOffset": 0
        }
    ],
    "images": [
        {
            "name": "Map #5",
            "uri": "data:image/png;base64,"
        },
        {
            "name": "Map #0",
            "uri": "data:image/png;base64,"
        }
    ],
    "samplers": [
        {}
    ],
    "textures": [
        {
            "name": "Map #5",
            "sampler": 0,
            "source": 0
        },
        {
            "name": "Map #0",
            "sampler": 0,
            "source": 1
        }
    ],
    "materials": [
        {
            "name": "02 - Default",
            "alphaMode": "OPAQUE",
            "extras": {
                "fromFBX": {
                    "shadingModel": "Phong",
                    "isTruePBR": false
                }
            },
            "normalTexture": {
                "index": 0,
                "texCoord": 0
            },
            "pbrMetallicRoughness": {
                "baseColorTexture": {
                    "index": 1,
                    "texCoord": 0
                },
                "baseColorFactor": [
                    1.0,
                    1.0,
                    1.0,
                    1.0
                ],
                "metallicFactor": 0.400000005960464,
                "roughnessFactor": 0.806901276111603
            }
        }
    ],
    "meshes": [
        {
            "name": "Box131",
            "primitives": [
                {
                    "material": 0,
                    "mode": 4,
                    "attributes": {
                        "NORMAL": 2,
                        "POSITION": 1,
                        "TEXCOORD_0": 3
                    },
                    "indices": 0
                }
            ]
        }
    ],
    "nodes": [
        {
            "name": "RootNode",
            "translation": [
                0.0,
                0.0,
                0.0
            ],
            "rotation": [
                0.0,
                0.0,
                0.0,
                1.0
            ],
            "scale": [
                1.0,
                1.0,
                1.0
            ],
            "children": [
                1
            ]
        },
        {
            "name": "Box131",
            "translation": [
                0.0,
                0.0,
                0.0
            ],
            "rotation": [
                -0.70710676908493,
                -0.0,
                0.0,
                0.70710676908493
            ],
            "scale": [
                2.53999996185303,
                2.53999996185303,
                2.53999996185303
            ],
            "mesh": 0
        }
    ]
}