{
    "asset": {
        "generator": "FBX2glTF@houseofbits v0.9.7",
        "version": "2.0"
    },
    "scene": 0,
    "buffers": [
        {
            "byteLength": 41304,
            "uri": "walls1.bin"
        }
    ],
    "bufferViews": [
        {
            "buffer": 0,
            "byteLength": 5046,
            "byteOffset": 0,
            "target": 34963
        },
        {
            "buffer": 0,
            "byteLength": 13596,
            "byteOffset": 5048,
            "target": 34962
        },
        {
            "buffer": 0,
            "byteLength": 13596,
            "byteOffset": 18644,
            "target": 34962
        },
        {
            "buffer": 0,
            "byteLength": 9064,
            "byteOffset": 32240,
            "target": 34962
        }
    ],
    "scenes": [
        {
            "name": "Root Scene",
            "nodes": [
                0
            ]
        }
    ],
    "accessors": [
        {
            "componentType": 5123,
            "type": "SCALAR",
            "count": 2523,
            "bufferView": 0,
            "byteOffset": 0
        },
        {
            "componentType": 5126,
            "type": "VEC3",
            "count": 1133,
            "bufferView": 1,
            "byteOffset": 0,
            "min": [
                -15.9636325836182,
                -0.0252610445022583,
                -3.30056762695312
            ],
            "max": [
                14.4326038360596,
                10.8271446228027,
                25.7771186828613
            ]
        },
        {
            "componentType": 5126,
            "type": "VEC3",
            "count": 1133,
            "bufferView": 2,
            "byteOffset": 0
        },
        {
            "componentType": 5126,
            "type": "VEC2",
            "count": 1133,
            "bufferView": 3,
            "byteOffset": 0
        }
    ],
    "images": [
        {
            "name": "Map #13",
            "uri": "data:image/png;base64,"
        },
        {
            "name": "Map #1",
            "uri": "data:image/png;base64,"
        }
    ],
    "samplers": [
        {}
    ],
    "textures": [
        {
            "name": "Map #13",
            "sampler": 0,
            "source": 0
        },
        {
            "name": "Map #1",
            "sampler": 0,
            "source": 1
        }
    ],
    "materials": [
        {
            "name": "03 - Default",
            "alphaMode": "OPAQUE",
            "extras": {
                "fromFBX": {
                    "shadingModel": "Phong",
                    "isTruePBR": false
                }
            },
            "normalTexture": {
                "index": 0,
                "texCoord": 0
            },
            "pbrMetallicRoughness": {
                "baseColorTexture": {
                    "index": 1,
                    "texCoord": 0
                },
                "baseColorFactor": [
                    1.0,
                    1.0,
                    1.0,
                    1.0
                ],
                "metallicFactor": 0.400000005960464,
                "roughnessFactor": 0.806901276111603
            }
        }
    ],
    "meshes": [
        {
            "name": "Box132",
            "primitives": [
                {
                    "material": 0,
                    "mode": 4,
                    "attributes": {
                        "NORMAL": 2,
                        "POSITION": 1,
                        "TEXCOORD_0": 3
                    },
                    "indices": 0
                }
            ]
        }
    ],
    "nodes": [
        {
            "name": "RootNode",
            "translation": [
                0.0,
                0.0,
                0.0
            ],
            "rotation": [
                0.0,
                0.0,
                0.0,
                1.0
            ],
            "scale": [
                1.0,
                1.0,
                1.0
            ],
            "children": [
                1
            ]
        },
        {
            "name": "Box132",
            "translation": [
                0.0,
                0.0,
                0.0
            ],
            "rotation": [
                -0.70710676908493,
                -0.0,
                0.0,
                0.70710676908493
            ],
            "scale": [
                2.53999996185303,
                2.53999996185303,
                2.53999996185303
            ],
            "mesh": 0
        }
    ]
}