{
	"asset":{
		"generator":"Khronos glTF Blender I/O v4.3.47",
		"version":"2.0"
	},
	"scene":0,
	"scenes":[
		{
			"name":"Scene",
			"nodes":[
				0,
				1,
				2
			]
		}
	],
	"nodes":[
		{
			"mesh":0,
			"name":"Sphere",
			"translation":[
				0.7634625434875488,
				0.6424126625061035,
				1.9445399045944214
			]
		},
		{
			"mesh":1,
			"name":"Sphere.001",
			"translation":[
				0.33459901809692383,
				0.8854353427886963,
				0.15002942085266113
			]
		},
		{
			"mesh":2,
			"name":"Sphere.002",
			"translation":[
				0.3362560272216797,
				0.23758482933044434,
				-1.6975903511047363
			]
		}
	],
	"materials":[
		{
			"doubleSided":true,
			"name":"Material.001",
			"normalTexture":{
				"index":0
			},
			"pbrMetallicRoughness":{
				"baseColorTexture":{
					"index":1
				},
				"metallicFactor":0,
				"metallicRoughnessTexture":{
					"index":2
				}
			}
		},
		{
			"doubleSided":true,
			"name":"Material.002",
			"normalTexture":{
				"index":3
			},
			"pbrMetallicRoughness":{
				"baseColorTexture":{
					"index":4
				},
				"metallicFactor":0,
				"metallicRoughnessTexture":{
					"index":5
				}
			}
		},
		{
			"doubleSided":true,
			"name":"Material.003",
			"normalTexture":{
				"index":6
			},
			"pbrMetallicRoughness":{
				"baseColorTexture":{
					"index":7
				},
				"metallicFactor":0,
				"metallicRoughnessTexture":{
					"index":8
				}
			}
		}
	],
	"meshes":[
		{
			"name":"Sphere",
			"primitives":[
				{
					"attributes":{
						"POSITION":0,
						"NORMAL":1,
						"TEXCOORD_0":2,
						"TANGENT":3
					},
					"indices":4,
					"material":0
				}
			]
		},
		{
			"name":"Sphere.001",
			"primitives":[
				{
					"attributes":{
						"POSITION":5,
						"NORMAL":6,
						"TEXCOORD_0":7,
						"TANGENT":8
					},
					"indices":9,
					"material":1
				}
			]
		},
		{
			"name":"Sphere.002",
			"primitives":[
				{
					"attributes":{
						"POSITION":10,
						"NORMAL":11,
						"TEXCOORD_0":12,
						"TANGENT":13
					},
					"indices":14,
					"material":2
				}
			]
		}
	],
	"textures":[
		{
			"sampler":0,
			"source":0
		},
		{
			"sampler":0,
			"source":1
		},
		{
			"sampler":0,
			"source":2
		},
		{
			"sampler":0,
			"source":3
		},
		{
			"sampler":0,
			"source":4
		},
		{
			"sampler":0,
			"source":5
		},
		{
			"sampler":0,
			"source":6
		},
		{
			"sampler":0,
			"source":7
		},
		{
			"sampler":0,
			"source":8
		}
	],
	"images":[
		{
			"mimeType":"image/png",
			"name":"sloppy-mortar-stone-wall_normal-ogl",
			"uri":"data/textures/sloppy-mortar-stone-wall_normal-ogl.png"
		},
		{
			"mimeType":"image/png",
			"name":"sloppy-mortar-stone-wall_albedo",
			"uri":"data/textures/sloppy-mortar-stone-wall_albedo.png"
		},
		{
			"mimeType":"image/png",
			"name":"sloppy-mortar-stone-wall_roughness",
			"uri":"data/textures/sloppy-mortar-stone-wall_roughness.png"
		},
		{
			"mimeType":"image/png",
			"name":"diamond-inlay-tile1_normal-ogl",
			"uri":"data/textures/diamond-inlay-tile1_normal-ogl.png"
		},
		{
			"mimeType":"image/png",
			"name":"diamond-inlay-tile1_albedo",
			"uri":"data/textures/diamond-inlay-tile1_albedo.png"
		},
		{
			"mimeType":"image/png",
			"name":"diamond-inlay-tile1_roughness",
			"uri":"data/textures/diamond-inlay-tile1_roughness.png"
		},
		{
			"mimeType":"image/png",
			"name":"broken_down_concrete2_Normal-ogl",
			"uri":"data/textures/broken_down_concrete2_Normal-ogl.png"
		},
		{
			"mimeType":"image/png",
			"name":"broken_down_concrete2_albedo",
			"uri":"data/textures/broken_down_concrete2_albedo.png"
		},
		{
			"mimeType":"image/png",
			"name":"broken_down_concrete2_Roughness",
			"uri":"data/textures/broken_down_concrete2_Roughness.png"
		}
	],
	"accessors":[
		{
			"bufferView":0,
			"componentType":5126,
			"count":1984,
			"max":[
				0.8113453388214111,
				0.6424126625061035,
				0.602329671382904
			],
			"min":[
				-0.8113448023796082,
				-0.6424126625061035,
				-0.6023300886154175
			],
			"type":"VEC3"
		},
		{
			"bufferView":1,
			"componentType":5126,
			"count":1984,
			"type":"VEC3"
		},
		{
			"bufferView":2,
			"componentType":5126,
			"count":1984,
			"type":"VEC2"
		},
		{
			"bufferView":3,
			"componentType":5126,
			"count":1984,
			"type":"VEC4"
		},
		{
			"bufferView":4,
			"componentType":5123,
			"count":2880,
			"type":"SCALAR"
		},
		{
			"bufferView":5,
			"componentType":5126,
			"count":1984,
			"max":[
				0.4664815366268158,
				0.8854353427886963,
				0.6947176456451416
			],
			"min":[
				-0.4664812386035919,
				-0.8854353427886963,
				-0.6947181224822998
			],
			"type":"VEC3"
		},
		{
			"bufferView":6,
			"componentType":5126,
			"count":1984,
			"type":"VEC3"
		},
		{
			"bufferView":7,
			"componentType":5126,
			"count":1984,
			"type":"VEC2"
		},
		{
			"bufferView":8,
			"componentType":5126,
			"count":1984,
			"type":"VEC4"
		},
		{
			"bufferView":9,
			"componentType":5123,
			"count":2880,
			"type":"SCALAR"
		},
		{
			"bufferView":10,
			"componentType":5126,
			"count":1984,
			"max":[
				0.6098726391792297,
				0.23758482933044434,
				0.7733411192893982
			],
			"min":[
				-0.6098722219467163,
				-0.23758482933044434,
				-0.7733416557312012
			],
			"type":"VEC3"
		},
		{
			"bufferView":11,
			"componentType":5126,
			"count":1984,
			"type":"VEC3"
		},
		{
			"bufferView":12,
			"componentType":5126,
			"count":1984,
			"type":"VEC2"
		},
		{
			"bufferView":13,
			"componentType":5126,
			"count":1984,
			"type":"VEC4"
		},
		{
			"bufferView":14,
			"componentType":5123,
			"count":2880,
			"type":"SCALAR"
		}
	],
	"bufferViews":[
		{
			"buffer":0,
			"byteLength":23808,
			"byteOffset":0,
			"target":34962
		},
		{
			"buffer":0,
			"byteLength":23808,
			"byteOffset":23808,
			"target":34962
		},
		{
			"buffer":0,
			"byteLength":15872,
			"byteOffset":47616,
			"target":34962
		},
		{
			"buffer":0,
			"byteLength":31744,
			"byteOffset":63488,
			"target":34962
		},
		{
			"buffer":0,
			"byteLength":5760,
			"byteOffset":95232,
			"target":34963
		},
		{
			"buffer":0,
			"byteLength":23808,
			"byteOffset":100992,
			"target":34962
		},
		{
			"buffer":0,
			"byteLength":23808,
			"byteOffset":124800,
			"target":34962
		},
		{
			"buffer":0,
			"byteLength":15872,
			"byteOffset":148608,
			"target":34962
		},
		{
			"buffer":0,
			"byteLength":31744,
			"byteOffset":164480,
			"target":34962
		},
		{
			"buffer":0,
			"byteLength":5760,
			"byteOffset":196224,
			"target":34963
		},
		{
			"buffer":0,
			"byteLength":23808,
			"byteOffset":201984,
			"target":34962
		},
		{
			"buffer":0,
			"byteLength":23808,
			"byteOffset":225792,
			"target":34962
		},
		{
			"buffer":0,
			"byteLength":15872,
			"byteOffset":249600,
			"target":34962
		},
		{
			"buffer":0,
			"byteLength":31744,
			"byteOffset":265472,
			"target":34962
		},
		{
			"buffer":0,
			"byteLength":5760,
			"byteOffset":297216,
			"target":34963
		}
	],
	"samplers":[
		{
			"magFilter":9729,
			"minFilter":9987
		}
	],
	"buffers":[
		{
			"byteLength":302976,
			"uri":"material-spheres.bin"
		}
	]
}
