{
	"asset":{
		"generator":"Khronos glTF Blender I/O v4.3.47",
		"version":"2.0"
	},
	"scene":0,
	"scenes":[
		{
			"name":"Scene",
			"nodes":[
				1,
				3,
				5,
				7,
				9,
				11,
				13,
				15,
				17
			]
		}
	],
	"nodes":[
		{
			"mesh":0,
			"name":"Box130",
			"rotation":[
				-0.70710688829422,
				0,
				0,
				0.7071066498756409
			]
		},
		{
			"children":[
				0
			],
			"name":"RootNode",
			"rotation":[
				0.70710688829422,
				0,
				0,
				0.7071066498756409
			],
			"translation":[
				0,
				0.4898407757282257,
				-0.6909316182136536
			]
		},
		{
			"mesh":1,
			"name":"Box131",
			"rotation":[
				-0.70710688829422,
				0,
				0,
				0.7071066498756409
			]
		},
		{
			"children":[
				2
			],
			"name":"RootNode.001",
			"rotation":[
				0.70710688829422,
				0,
				0,
				0.7071066498756409
			],
			"translation":[
				0,
				0.4898407757282257,
				-0.6909316182136536
			]
		},
		{
			"mesh":2,
			"name":"Box136",
			"rotation":[
				-0.70710688829422,
				0,
				0,
				0.7071066498756409
			]
		},
		{
			"children":[
				4
			],
			"name":"RootNode.002",
			"rotation":[
				0.70710688829422,
				0,
				0,
				0.7071066498756409
			],
			"translation":[
				0,
				0.4898407757282257,
				-0.6909316182136536
			]
		},
		{
			"mesh":3,
			"name":"Box137",
			"rotation":[
				-0.70710688829422,
				0,
				0,
				0.7071066498756409
			]
		},
		{
			"children":[
				6
			],
			"name":"RootNode.003",
			"rotation":[
				0.70710688829422,
				0,
				0,
				0.7071066498756409
			],
			"translation":[
				0,
				0.4898407757282257,
				-0.6909316182136536
			]
		},
		{
			"mesh":4,
			"name":"Box129",
			"rotation":[
				-0.70710688829422,
				0,
				0,
				0.7071066498756409
			]
		},
		{
			"children":[
				8
			],
			"name":"RootNode.004",
			"rotation":[
				0.70710688829422,
				0,
				0,
				0.7071066498756409
			],
			"translation":[
				0,
				0.4898407757282257,
				-0.6909316182136536
			]
		},
		{
			"mesh":5,
			"name":"Box138",
			"rotation":[
				-0.70710688829422,
				0,
				0,
				0.7071066498756409
			]
		},
		{
			"children":[
				10
			],
			"name":"RootNode.005",
			"rotation":[
				0.70710688829422,
				0,
				0,
				0.7071066498756409
			],
			"translation":[
				0,
				0.4898407757282257,
				-0.6909316182136536
			]
		},
		{
			"mesh":6,
			"name":"Box132",
			"rotation":[
				-0.70710688829422,
				0,
				0,
				0.7071066498756409
			]
		},
		{
			"children":[
				12
			],
			"name":"RootNode.006",
			"rotation":[
				0.70710688829422,
				0,
				0,
				0.7071066498756409
			],
			"translation":[
				0,
				0.4898407757282257,
				-0.6909316182136536
			]
		},
		{
			"mesh":7,
			"name":"Box134",
			"rotation":[
				-0.70710688829422,
				0,
				0,
				0.7071066498756409
			]
		},
		{
			"children":[
				14
			],
			"name":"RootNode.007",
			"rotation":[
				0.70710688829422,
				0,
				0,
				0.7071066498756409
			],
			"translation":[
				0,
				0.4898407757282257,
				-0.6909316182136536
			]
		},
		{
			"mesh":8,
			"name":"Box135",
			"rotation":[
				-0.70710688829422,
				0,
				0,
				0.7071066498756409
			]
		},
		{
			"children":[
				16
			],
			"name":"RootNode.008",
			"rotation":[
				0.70710688829422,
				0,
				0,
				0.7071066498756409
			],
			"translation":[
				0,
				0.4898407757282257,
				-0.6909316182136536
			]
		}
	],
	"materials":[
		{
			"name":"05 - Default",
			"normalTexture":{
				"index":0
			},
			"pbrMetallicRoughness":{
				"baseColorTexture":{
					"index":1
				},
				"metallicFactor":0.4000000059604645,
				"metallicRoughnessTexture":{
					"index":2
				}
			}
		},
		{
			"name":"02 - Default",
			"normalTexture":{
				"index":3
			},
			"pbrMetallicRoughness":{
				"baseColorTexture":{
					"index":4
				},
				"metallicFactor":0.4000000059604645,
				"metallicRoughnessTexture":{
					"index":5
				}
			}
		},
		{
			"doubleSided":true,
			"name":"Material.001",
			"normalTexture":{
				"index":6
			},
			"pbrMetallicRoughness":{
				"baseColorTexture":{
					"index":7
				},
				"metallicFactor":0,
				"metallicRoughnessTexture":{
					"index":8
				}
			}
		},
		{
			"name":"10 - Default",
			"normalTexture":{
				"index":9
			},
			"pbrMetallicRoughness":{
				"baseColorTexture":{
					"index":10
				},
				"metallicFactor":0.4000000059604645,
				"metallicRoughnessTexture":{
					"index":11
				}
			}
		},
		{
			"name":"06 - Default",
			"normalTexture":{
				"index":12
			},
			"pbrMetallicRoughness":{
				"baseColorTexture":{
					"index":13
				},
				"metallicFactor":0.4000000059604645,
				"metallicRoughnessTexture":{
					"index":14
				}
			}
		},
		{
			"name":"04 - Default",
			"normalTexture":{
				"index":15
			},
			"pbrMetallicRoughness":{
				"baseColorTexture":{
					"index":16
				},
				"metallicFactor":0.4000000059604645,
				"metallicRoughnessTexture":{
					"index":17
				}
			}
		},
		{
			"name":"03 - Default",
			"normalTexture":{
				"index":18
			},
			"pbrMetallicRoughness":{
				"baseColorTexture":{
					"index":19
				},
				"metallicFactor":0.4000000059604645,
				"metallicRoughnessTexture":{
					"index":20
				}
			}
		},
		{
			"name":"07 - Default",
			"normalTexture":{
				"index":21
			},
			"pbrMetallicRoughness":{
				"baseColorTexture":{
					"index":22
				},
				"metallicFactor":0.4000000059604645,
				"metallicRoughnessTexture":{
					"index":23
				}
			}
		},
		{
			"name":"12 - Default",
			"normalTexture":{
				"index":24
			},
			"pbrMetallicRoughness":{
				"baseColorTexture":{
					"index":25
				},
				"metallicFactor":0.4000000059604645,
				"metallicRoughnessTexture":{
					"index":26
				}
			}
		}
	],
	"meshes":[
		{
			"name":"Box130",
			"primitives":[
				{
					"attributes":{
						"POSITION":0,
						"NORMAL":1,
						"TEXCOORD_0":2
					},
					"indices":3,
					"material":0
				}
			]
		},
		{
			"name":"Box131",
			"primitives":[
				{
					"attributes":{
						"POSITION":4,
						"NORMAL":5,
						"TEXCOORD_0":6
					},
					"indices":7,
					"material":1
				}
			]
		},
		{
			"name":"Box136",
			"primitives":[
				{
					"attributes":{
						"POSITION":8,
						"NORMAL":9,
						"TEXCOORD_0":10
					},
					"indices":11,
					"material":2
				}
			]
		},
		{
			"name":"Box137",
			"primitives":[
				{
					"attributes":{
						"POSITION":12,
						"NORMAL":13,
						"TEXCOORD_0":14
					},
					"indices":15,
					"material":3
				}
			]
		},
		{
			"name":"Box129",
			"primitives":[
				{
					"attributes":{
						"POSITION":16,
						"NORMAL":17,
						"TEXCOORD_0":18
					},
					"indices":19,
					"material":4
				}
			]
		},
		{
			"name":"Box138",
			"primitives":[
				{
					"attributes":{
						"POSITION":20,
						"NORMAL":21,
						"TEXCOORD_0":22
					},
					"indices":23,
					"material":5
				}
			]
		},
		{
			"name":"Box132",
			"primitives":[
				{
					"attributes":{
						"POSITION":24,
						"NORMAL":25,
						"TEXCOORD_0":26
					},
					"indices":27,
					"material":6
				}
			]
		},
		{
			"name":"Box134",
			"primitives":[
				{
					"attributes":{
						"POSITION":28,
						"NORMAL":29,
						"TEXCOORD_0":30
					},
					"indices":31,
					"material":7
				}
			]
		},
		{
			"name":"Box135",
			"primitives":[
				{
					"attributes":{
						"POSITION":32,
						"NORMAL":33,
						"TEXCOORD_0":34
					},
					"indices":35,
					"material":8
				}
			]
		}
	],
	"textures":[
		{
			"sampler":0,
			"source":0
		},
		{
			"sampler":0,
			"source":1
		},
		{
			"sampler":0,
			"source":2
		},
		{
			"sampler":0,
			"source":3
		},
		{
			"sampler":0,
			"source":4
		},
		{
			"sampler":0,
			"source":5
		},
		{
			"sampler":0,
			"source":6
		},
		{
			"sampler":0,
			"source":7
		},
		{
			"sampler":0,
			"source":8
		},
		{
			"sampler":0,
			"source":9
		},
		{
			"sampler":0,
			"source":10
		},
		{
			"sampler":0,
			"source":11
		},
		{
			"sampler":0,
			"source":12
		},
		{
			"sampler":0,
			"source":13
		},
		{
			"sampler":0,
			"source":14
		},
		{
			"sampler":0,
			"source":15
		},
		{
			"sampler":0,
			"source":16
		},
		{
			"sampler":0,
			"source":17
		},
		{
			"sampler":0,
			"source":18
		},
		{
			"sampler":0,
			"source":19
		},
		{
			"sampler":0,
			"source":20
		},
		{
			"sampler":0,
			"source":21
		},
		{
			"sampler":0,
			"source":22
		},
		{
			"sampler":0,
			"source":23
		},
		{
			"sampler":0,
			"source":24
		},
		{
			"sampler":0,
			"source":25
		},
		{
			"sampler":0,
			"source":26
		}
	],
	"images":[
		{
			"mimeType":"image/png",
			"name":"floor1-n",
			"uri":"resources/scenes/scene1/textures/floor1-n.png"
		},
		{
			"mimeType":"image/png",
			"name":"floor1",
			"uri":"resources/scenes/scene1/textures/floor1.png"
		},
		{
			"mimeType":"image/png",
			"name":"floor1-s",
			"uri":"resources/scenes/scene1/textures/floor1-s.png"
		},
		{
			"mimeType":"image/png",
			"name":"columns1-n",
			"uri":"resources/scenes/scene1/textures/columns1-n.png"
		},
		{
			"mimeType":"image/png",
			"name":"columns1",
			"uri":"resources/scenes/scene1/textures/columns1.png"
		},
		{
			"mimeType":"image/png",
			"name":"columns1-s",
			"uri":"resources/scenes/scene1/textures/columns1-s.png"
		},
		{
			"mimeType":"image/png",
			"name":"columns2-n",
			"uri":"resources/scenes/scene1/textures/columns2-n.png"
		},
		{
			"mimeType":"image/png",
			"name":"columns2",
			"uri":"resources/scenes/scene1/textures/columns2.png"
		},
		{
			"mimeType":"image/png",
			"name":"columns2-s",
			"uri":"resources/scenes/scene1/textures/columns2-s.png"
		},
		{
			"mimeType":"image/png",
			"name":"columns3-n",
			"uri":"resources/scenes/scene1/textures/columns3-n.png"
		},
		{
			"mimeType":"image/png",
			"name":"columns3",
			"uri":"resources/scenes/scene1/textures/columns3.png"
		},
		{
			"mimeType":"image/png",
			"name":"columns3-s",
			"uri":"resources/scenes/scene1/textures/columns3-s.png"
		},
		{
			"mimeType":"image/png",
			"name":"floor2-n",
			"uri":"resources/scenes/scene1/textures/floor2-n.png"
		},
		{
			"mimeType":"image/png",
			"name":"floor2",
			"uri":"resources/scenes/scene1/textures/floor2.png"
		},
		{
			"mimeType":"image/png",
			"name":"floor2-s",
			"uri":"resources/scenes/scene1/textures/floor2-s.png"
		},
		{
			"mimeType":"image/png",
			"name":"floor3-n",
			"uri":"resources/scenes/scene1/textures/floor3-n.png"
		},
		{
			"mimeType":"image/png",
			"name":"floor3",
			"uri":"resources/scenes/scene1/textures/floor3.png"
		},
		{
			"mimeType":"image/png",
			"name":"floor3-s",
			"uri":"resources/scenes/scene1/textures/floor3-s.png"
		},
		{
			"mimeType":"image/png",
			"name":"walls1-n",
			"uri":"resources/scenes/scene1/textures/walls1-n.png"
		},
		{
			"mimeType":"image/png",
			"name":"walls1",
			"uri":"resources/scenes/scene1/textures/walls1.png"
		},
		{
			"mimeType":"image/png",
			"name":"walls1-s",
			"uri":"resources/scenes/scene1/textures/walls1-s.png"
		},
		{
			"mimeType":"image/png",
			"name":"walls2-n",
			"uri":"resources/scenes/scene1/textures/walls2-n.png"
		},
		{
			"mimeType":"image/png",
			"name":"walls2",
			"uri":"resources/scenes/scene1/textures/walls2.png"
		},
		{
			"mimeType":"image/png",
			"name":"walls2-s",
			"uri":"resources/scenes/scene1/textures/walls2-s.png"
		},
		{
			"mimeType":"image/png",
			"name":"walls3-n",
			"uri":"resources/scenes/scene1/textures/walls3-n.png"
		},
		{
			"mimeType":"image/png",
			"name":"walls3",
			"uri":"resources/scenes/scene1/textures/walls3.png"
		},
		{
			"mimeType":"image/png",
			"name":"walls3-s",
			"uri":"resources/scenes/scene1/textures/walls3-s.png"
		}
	],
	"accessors":[
		{
			"bufferView":0,
			"componentType":5126,
			"count":36,
			"max":[
				11.800150871276855,
				0,
				30.4350643157959
			],
			"min":[
				-11.345293998718262,
				0,
				-7.9585113525390625
			],
			"type":"VEC3"
		},
		{
			"bufferView":1,
			"componentType":5126,
			"count":36,
			"type":"VEC3"
		},
		{
			"bufferView":2,
			"componentType":5126,
			"count":36,
			"type":"VEC2"
		},
		{
			"bufferView":3,
			"componentType":5123,
			"count":96,
			"type":"SCALAR"
		},
		{
			"bufferView":4,
			"componentType":5126,
			"count":673,
			"max":[
				0.4756021499633789,
				9.579456329345703,
				23.415016174316406
			],
			"min":[
				-16.282363891601562,
				-0.04427371919155121,
				-0.9384574890136719
			],
			"type":"VEC3"
		},
		{
			"bufferView":5,
			"componentType":5126,
			"count":673,
			"type":"VEC3"
		},
		{
			"bufferView":6,
			"componentType":5126,
			"count":673,
			"type":"VEC2"
		},
		{
			"bufferView":7,
			"componentType":5123,
			"count":1020,
			"type":"SCALAR"
		},
		{
			"bufferView":8,
			"componentType":5126,
			"count":1171,
			"max":[
				11.354365348815918,
				6.197475433349609,
				29.940872192382812
			],
			"min":[
				-16.35053062438965,
				-0.04650068283081055,
				-7.464322090148926
			],
			"type":"VEC3"
		},
		{
			"bufferView":9,
			"componentType":5126,
			"count":1171,
			"type":"VEC3"
		},
		{
			"bufferView":10,
			"componentType":5126,
			"count":1171,
			"type":"VEC2"
		},
		{
			"bufferView":11,
			"componentType":5123,
			"count":2100,
			"type":"SCALAR"
		},
		{
			"bufferView":12,
			"componentType":5126,
			"count":350,
			"max":[
				11.226330757141113,
				6.442708969116211,
				29.264507293701172
			],
			"min":[
				-4.316034317016602,
				-0.006894826889038086,
				-6.787952899932861
			],
			"type":"VEC3"
		},
		{
			"bufferView":13,
			"componentType":5126,
			"count":350,
			"type":"VEC3"
		},
		{
			"bufferView":14,
			"componentType":5126,
			"count":350,
			"type":"VEC2"
		},
		{
			"bufferView":15,
			"componentType":5123,
			"count":624,
			"type":"SCALAR"
		},
		{
			"bufferView":16,
			"componentType":5126,
			"count":23,
			"max":[
				-3.051527976989746,
				0,
				23.237350463867188
			],
			"min":[
				-16.286191940307617,
				0,
				-0.9344139099121094
			],
			"type":"VEC3"
		},
		{
			"bufferView":17,
			"componentType":5126,
			"count":23,
			"type":"VEC3"
		},
		{
			"bufferView":18,
			"componentType":5126,
			"count":23,
			"type":"VEC2"
		},
		{
			"bufferView":19,
			"componentType":5123,
			"count":63,
			"type":"SCALAR"
		},
		{
			"bufferView":20,
			"componentType":5126,
			"count":12,
			"max":[
				13.652494430541992,
				0.4886932075023651,
				21.2303409576416
			],
			"min":[
				-6.210806846618652,
				0.4886932075023651,
				1.1477766036987305
			],
			"type":"VEC3"
		},
		{
			"bufferView":21,
			"componentType":5126,
			"count":12,
			"type":"VEC3"
		},
		{
			"bufferView":22,
			"componentType":5126,
			"count":12,
			"type":"VEC2"
		},
		{
			"bufferView":23,
			"componentType":5123,
			"count":30,
			"type":"SCALAR"
		},
		{
			"bufferView":24,
			"componentType":5126,
			"count":1183,
			"max":[
				14.43260383605957,
				10.827144622802734,
				25.777118682861328
			],
			"min":[
				-15.963632583618164,
				-0.0252610445022583,
				-3.300567626953125
			],
			"type":"VEC3"
		},
		{
			"bufferView":25,
			"componentType":5126,
			"count":1183,
			"type":"VEC3"
		},
		{
			"bufferView":26,
			"componentType":5126,
			"count":1183,
			"type":"VEC2"
		},
		{
			"bufferView":27,
			"componentType":5123,
			"count":2523,
			"type":"SCALAR"
		},
		{
			"bufferView":28,
			"componentType":5126,
			"count":32,
			"max":[
				-3.1489858627319336,
				0.6088014841079712,
				19.0156192779541
			],
			"min":[
				-6.629042148590088,
				-0.032143548130989075,
				3.3440093994140625
			],
			"type":"VEC3"
		},
		{
			"bufferView":29,
			"componentType":5126,
			"count":32,
			"type":"VEC3"
		},
		{
			"bufferView":30,
			"componentType":5126,
			"count":32,
			"type":"VEC2"
		},
		{
			"bufferView":31,
			"componentType":5123,
			"count":48,
			"type":"SCALAR"
		},
		{
			"bufferView":32,
			"componentType":5126,
			"count":140,
			"max":[
				10.897869110107422,
				3.0000011920928955,
				29.650480270385742
			],
			"min":[
				-4.359968185424805,
				-0.029451489448547363,
				-7.17392635345459
			],
			"type":"VEC3"
		},
		{
			"bufferView":33,
			"componentType":5126,
			"count":140,
			"type":"VEC3"
		},
		{
			"bufferView":34,
			"componentType":5126,
			"count":140,
			"type":"VEC2"
		},
		{
			"bufferView":35,
			"componentType":5123,
			"count":228,
			"type":"SCALAR"
		}
	],
	"bufferViews":[
		{
			"buffer":0,
			"byteLength":432,
			"byteOffset":0,
			"target":34962
		},
		{
			"buffer":0,
			"byteLength":432,
			"byteOffset":432,
			"target":34962
		},
		{
			"buffer":0,
			"byteLength":288,
			"byteOffset":864,
			"target":34962
		},
		{
			"buffer":0,
			"byteLength":192,
			"byteOffset":1152,
			"target":34963
		},
		{
			"buffer":0,
			"byteLength":8076,
			"byteOffset":1344,
			"target":34962
		},
		{
			"buffer":0,
			"byteLength":8076,
			"byteOffset":9420,
			"target":34962
		},
		{
			"buffer":0,
			"byteLength":5384,
			"byteOffset":17496,
			"target":34962
		},
		{
			"buffer":0,
			"byteLength":2040,
			"byteOffset":22880,
			"target":34963
		},
		{
			"buffer":0,
			"byteLength":14052,
			"byteOffset":24920,
			"target":34962
		},
		{
			"buffer":0,
			"byteLength":14052,
			"byteOffset":38972,
			"target":34962
		},
		{
			"buffer":0,
			"byteLength":9368,
			"byteOffset":53024,
			"target":34962
		},
		{
			"buffer":0,
			"byteLength":4200,
			"byteOffset":62392,
			"target":34963
		},
		{
			"buffer":0,
			"byteLength":4200,
			"byteOffset":66592,
			"target":34962
		},
		{
			"buffer":0,
			"byteLength":4200,
			"byteOffset":70792,
			"target":34962
		},
		{
			"buffer":0,
			"byteLength":2800,
			"byteOffset":74992,
			"target":34962
		},
		{
			"buffer":0,
			"byteLength":1248,
			"byteOffset":77792,
			"target":34963
		},
		{
			"buffer":0,
			"byteLength":276,
			"byteOffset":79040,
			"target":34962
		},
		{
			"buffer":0,
			"byteLength":276,
			"byteOffset":79316,
			"target":34962
		},
		{
			"buffer":0,
			"byteLength":184,
			"byteOffset":79592,
			"target":34962
		},
		{
			"buffer":0,
			"byteLength":126,
			"byteOffset":79776,
			"target":34963
		},
		{
			"buffer":0,
			"byteLength":144,
			"byteOffset":79904,
			"target":34962
		},
		{
			"buffer":0,
			"byteLength":144,
			"byteOffset":80048,
			"target":34962
		},
		{
			"buffer":0,
			"byteLength":96,
			"byteOffset":80192,
			"target":34962
		},
		{
			"buffer":0,
			"byteLength":60,
			"byteOffset":80288,
			"target":34963
		},
		{
			"buffer":0,
			"byteLength":14196,
			"byteOffset":80348,
			"target":34962
		},
		{
			"buffer":0,
			"byteLength":14196,
			"byteOffset":94544,
			"target":34962
		},
		{
			"buffer":0,
			"byteLength":9464,
			"byteOffset":108740,
			"target":34962
		},
		{
			"buffer":0,
			"byteLength":5046,
			"byteOffset":118204,
			"target":34963
		},
		{
			"buffer":0,
			"byteLength":384,
			"byteOffset":123252,
			"target":34962
		},
		{
			"buffer":0,
			"byteLength":384,
			"byteOffset":123636,
			"target":34962
		},
		{
			"buffer":0,
			"byteLength":256,
			"byteOffset":124020,
			"target":34962
		},
		{
			"buffer":0,
			"byteLength":96,
			"byteOffset":124276,
			"target":34963
		},
		{
			"buffer":0,
			"byteLength":1680,
			"byteOffset":124372,
			"target":34962
		},
		{
			"buffer":0,
			"byteLength":1680,
			"byteOffset":126052,
			"target":34962
		},
		{
			"buffer":0,
			"byteLength":1120,
			"byteOffset":127732,
			"target":34962
		},
		{
			"buffer":0,
			"byteLength":456,
			"byteOffset":128852,
			"target":34963
		}
	],
	"samplers":[
		{
			"magFilter":9729,
			"minFilter":9987
		}
	],
	"buffers":[
		{
			"byteLength":129308,
			"uri":"scene1.bin"
		}
	]
}
