{
	"asset":{
		"generator":"Khronos glTF Blender I/O v4.3.47",
		"version":"2.0"
	},
	"scene":0,
	"scenes":[
		{
			"name":"Scene",
			"nodes":[
				1
			]
		}
	],
	"nodes":[
		{
			"mesh":0,
			"name":"Box133",
			"rotation":[
				-0.70710688829422,
				0,
				0,
				0.7071066498756409
			],
			"scale":[
				2.5399999618530273,
				2.5400002002716064,
				2.5400002002716064
			]
		},
		{
			"children":[
				0
			],
			"name":"RootNode",
			"rotation":[
				0.70710688829422,
				0,
				0,
				0.7071066498756409
			]
		}
	],
	"materials":[
		{
			"name":"19 - Default",
			"pbrMetallicRoughness":{
				"baseColorFactor":[
					0.9921569228172302,
					0,
					0,
					1
				],
				"metallicFactor":0.4000000059604645,
				"roughnessFactor":0.7071067690849304
			}
		}
	],
	"meshes":[
		{
			"name":"Box133",
			"primitives":[
				{
					"attributes":{
						"POSITION":0,
						"NORMAL":1,
						"TEXCOORD_0":2
					},
					"indices":3,
					"material":0
				}
			]
		}
	],
	"accessors":[
		{
			"bufferView":0,
			"componentType":5126,
			"count":295,
			"max":[
				14.43260383605957,
				15.231047630310059,
				29.246562957763672
			],
			"min":[
				-20.173952102661133,
				-0.019864797592163086,
				-6.80458927154541
			],
			"type":"VEC3"
		},
		{
			"bufferView":1,
			"componentType":5126,
			"count":295,
			"type":"VEC3"
		},
		{
			"bufferView":2,
			"componentType":5126,
			"count":295,
			"type":"VEC2"
		},
		{
			"bufferView":3,
			"componentType":5123,
			"count":498,
			"type":"SCALAR"
		}
	],
	"bufferViews":[
		{
			"buffer":0,
			"byteLength":3540,
			"byteOffset":0,
			"target":34962
		},
		{
			"buffer":0,
			"byteLength":3540,
			"byteOffset":3540,
			"target":34962
		},
		{
			"buffer":0,
			"byteLength":2360,
			"byteOffset":7080,
			"target":34962
		},
		{
			"buffer":0,
			"byteLength":996,
			"byteOffset":9440,
			"target":34963
		}
	],
	"buffers":[
		{
			"byteLength":10436,
			"uri":"shadow-mask.bin"
		}
	]
}
