{
	"asset":{
		"generator":"Khronos glTF Blender I/O v4.5.47",
		"version":"2.0"
	},
	"extensionsUsed":[
		"KHR_materials_specular"
	],
	"scene":0,
	"scenes":[
		{
			"name":"Scene",
			"nodes":[
				0
			]
		}
	],
	"nodes":[
		{
			"mesh":0,
			"name":"Cylinder032"
		}
	],
	"materials":[
		{
			"doubleSided":true,
			"extensions":{
				"KHR_materials_specular":{
					"specularFactor":0
				}
			},
			"name":"wery-rusty",
			"pbrMetallicRoughness":{
				"baseColorFactor":[
					0.5882353186607361,
					0.5882353186607361,
					0.5882353186607361,
					1
				]
			}
		}
	],
	"meshes":[
		{
			"name":"Mesh.058",
			"primitives":[
				{
					"attributes":{
						"POSITION":0,
						"NORMAL":1,
						"TEXCOORD_0":2
					},
					"indices":3,
					"material":0
				}
			]
		}
	],
	"accessors":[
		{
			"bufferView":0,
			"componentType":5126,
			"count":397,
			"max":[
				1.2968060970306396,
				0.5770928859710693,
				1.8131451606750488
			],
			"min":[
				-0.5368006229400635,
				-0.6549203395843506,
				-1.216536045074463
			],
			"type":"VEC3"
		},
		{
			"bufferView":1,
			"componentType":5126,
			"count":397,
			"type":"VEC3"
		},
		{
			"bufferView":2,
			"componentType":5126,
			"count":397,
			"type":"VEC2"
		},
		{
			"bufferView":3,
			"componentType":5123,
			"count":1080,
			"type":"SCALAR"
		}
	],
	"bufferViews":[
		{
			"buffer":0,
			"byteLength":4764,
			"byteOffset":0,
			"target":34962
		},
		{
			"buffer":0,
			"byteLength":4764,
			"byteOffset":4764,
			"target":34962
		},
		{
			"buffer":0,
			"byteLength":3176,
			"byteOffset":9528,
			"target":34962
		},
		{
			"buffer":0,
			"byteLength":2160,
			"byteOffset":12704,
			"target":34963
		}
	],
	"buffers":[
		{
			"byteLength":14864,
			"uri":"walker-joint2-right.bin"
		}
	]
}
