{
	"asset":{
		"generator":"Khronos glTF Blender I/O v4.5.47",
		"version":"2.0"
	},
	"extensionsUsed":[
		"KHR_materials_specular"
	],
	"scene":0,
	"scenes":[
		{
			"name":"Scene",
			"nodes":[
				0,
				1,
				2,
				3,
				4,
				5,
				6,
				7,
				8,
				9,
				10,
				11,
				12,
				13,
				14,
				15
			]
		}
	],
	"nodes":[
		{
			"mesh":0,
			"name":"Box010"
		},
		{
			"mesh":1,
			"name":"Box017"
		},
		{
			"mesh":2,
			"name":"Box021"
		},
		{
			"mesh":3,
			"name":"Box046"
		},
		{
			"mesh":4,
			"name":"Box048"
		},
		{
			"mesh":5,
			"name":"Box051"
		},
		{
			"mesh":6,
			"name":"Box184"
		},
		{
			"mesh":7,
			"name":"Box196"
		},
		{
			"mesh":8,
			"name":"Box205"
		},
		{
			"mesh":9,
			"name":"Box207"
		},
		{
			"mesh":10,
			"name":"Cylinder025"
		},
		{
			"mesh":11,
			"name":"Line001"
		},
		{
			"mesh":12,
			"name":"Line016"
		},
		{
			"mesh":13,
			"name":"Object003"
		},
		{
			"mesh":14,
			"name":"Plane007"
		},
		{
			"mesh":15,
			"name":"Plane010"
		}
	],
	"materials":[
		{
			"doubleSided":true,
			"extensions":{
				"KHR_materials_specular":{
					"specularColorFactor":[
						2.0,
						2.0,
						2.0
					]
				}
			},
			"name":"rusty",
			"pbrMetallicRoughness":{
				"baseColorFactor":[
					0.5882353186607361,
					0.5882353186607361,
					0.5882353186607361,
					1
				]
			}
		},
		{
			"doubleSided":true,
			"extensions":{
				"KHR_materials_specular":{
					"specularFactor":0
				}
			},
			"name":"wery-rusty",
			"pbrMetallicRoughness":{
				"baseColorFactor":[
					0.5882353186607361,
					0.5882353186607361,
					0.5882353186607361,
					1
				]
			}
		},
		{
			"doubleSided":true,
			"extensions":{
				"KHR_materials_specular":{
					"specularFactor":0
				}
			},
			"name":"gray-base",
			"pbrMetallicRoughness":{
				"baseColorFactor":[
					0.2039215862751007,
					0.2039215862751007,
					0.2039215862751007,
					1
				],
				"roughnessFactor":0.858578622341156
			}
		},
		{
			"doubleSided":true,
			"extensions":{
				"KHR_materials_specular":{
					"specularFactor":0
				}
			},
			"name":"cleaned-rusted",
			"pbrMetallicRoughness":{
				"baseColorFactor":[
					0.5882353186607361,
					0.5882353186607361,
					0.5882353186607361,
					1
				]
			}
		},
		{
			"doubleSided":true,
			"extensions":{
				"KHR_materials_specular":{
					"specularFactor":0
				}
			},
			"name":"graded-floor",
			"pbrMetallicRoughness":{
				"baseColorFactor":[
					0.5882353186607361,
					0.5882353186607361,
					0.5882353186607361,
					1
				]
			}
		},
		{
			"doubleSided":true,
			"extensions":{
				"KHR_materials_specular":{
					"specularColorFactor":[
						2.0,
						2.0,
						2.0
					]
				}
			},
			"name":"yellow-base",
			"pbrMetallicRoughness":{
				"baseColorFactor":[
					0.9921569228172302,
					0.8392157554626465,
					0,
					1
				],
				"metallicFactor":0.6863636374473572,
				"roughnessFactor":0.18201632797718048
			}
		},
		{
			"doubleSided":true,
			"extensions":{
				"KHR_materials_specular":{
					"specularFactor":0
				}
			},
			"name":"gray-metal-base",
			"pbrMetallicRoughness":{
				"baseColorFactor":[
					0.5882353186607361,
					0.5882353186607361,
					0.5882353186607361,
					1
				],
				"metallicFactor":0.6772727370262146,
				"roughnessFactor":0.24039679765701294
			}
		},
		{
			"doubleSided":true,
			"extensions":{
				"KHR_materials_specular":{
					"specularColorFactor":[
						2.0,
						2.0,
						2.0
					]
				}
			},
			"name":"yellow-painted",
			"pbrMetallicRoughness":{
				"baseColorFactor":[
					0.5882353186607361,
					0.5882353186607361,
					0.5882353186607361,
					1
				]
			}
		}
	],
	"meshes":[
		{
			"name":"Mesh.008",
			"primitives":[
				{
					"attributes":{
						"POSITION":0,
						"NORMAL":1,
						"TEXCOORD_0":2
					},
					"indices":3,
					"material":0
				}
			]
		},
		{
			"name":"Mesh.009",
			"primitives":[
				{
					"attributes":{
						"POSITION":4,
						"NORMAL":5,
						"TEXCOORD_0":6
					},
					"indices":7,
					"material":1
				}
			]
		},
		{
			"name":"Mesh.010",
			"primitives":[
				{
					"attributes":{
						"POSITION":8,
						"NORMAL":9,
						"TEXCOORD_0":10
					},
					"indices":11,
					"material":0
				}
			]
		},
		{
			"name":"Mesh.022",
			"primitives":[
				{
					"attributes":{
						"POSITION":12,
						"NORMAL":13,
						"TEXCOORD_0":14
					},
					"indices":15,
					"material":2
				}
			]
		},
		{
			"name":"Mesh.011",
			"primitives":[
				{
					"attributes":{
						"POSITION":16,
						"NORMAL":17,
						"TEXCOORD_0":18
					},
					"indices":19,
					"material":1
				}
			]
		},
		{
			"name":"Mesh.012",
			"primitives":[
				{
					"attributes":{
						"POSITION":20,
						"NORMAL":21,
						"TEXCOORD_0":22
					},
					"indices":23,
					"material":3
				}
			]
		},
		{
			"name":"Mesh.017",
			"primitives":[
				{
					"attributes":{
						"POSITION":24,
						"NORMAL":25,
						"TEXCOORD_0":26
					},
					"indices":27,
					"material":4
				}
			]
		},
		{
			"name":"Mesh.015",
			"primitives":[
				{
					"attributes":{
						"POSITION":28,
						"NORMAL":29,
						"TEXCOORD_0":30
					},
					"indices":31,
					"material":3
				}
			]
		},
		{
			"name":"Mesh.013",
			"primitives":[
				{
					"attributes":{
						"POSITION":32,
						"NORMAL":33,
						"TEXCOORD_0":34
					},
					"indices":35,
					"material":2
				}
			]
		},
		{
			"name":"Mesh.018",
			"primitives":[
				{
					"attributes":{
						"POSITION":36,
						"NORMAL":37,
						"TEXCOORD_0":38
					},
					"indices":39,
					"material":1
				}
			]
		},
		{
			"name":"Mesh.014",
			"primitives":[
				{
					"attributes":{
						"POSITION":40,
						"NORMAL":41,
						"TEXCOORD_0":42
					},
					"indices":43,
					"material":0
				}
			]
		},
		{
			"name":"Mesh.016",
			"primitives":[
				{
					"attributes":{
						"POSITION":44,
						"NORMAL":45
					},
					"indices":46,
					"material":5
				}
			]
		},
		{
			"name":"Mesh.019",
			"primitives":[
				{
					"attributes":{
						"POSITION":47,
						"NORMAL":48
					},
					"indices":49,
					"material":6
				}
			]
		},
		{
			"name":"Mesh.023",
			"primitives":[
				{
					"attributes":{
						"POSITION":50,
						"NORMAL":51,
						"TEXCOORD_0":52
					},
					"indices":53,
					"material":7
				}
			]
		},
		{
			"name":"Mesh.020",
			"primitives":[
				{
					"attributes":{
						"POSITION":54,
						"NORMAL":55,
						"TEXCOORD_0":56
					},
					"indices":57,
					"material":5
				}
			]
		},
		{
			"name":"Mesh.021",
			"primitives":[
				{
					"attributes":{
						"POSITION":58,
						"NORMAL":59,
						"TEXCOORD_0":60
					},
					"indices":61,
					"material":0
				}
			]
		}
	],
	"accessors":[
		{
			"bufferView":0,
			"componentType":5126,
			"count":158,
			"max":[
				-0.5151388049125671,
				11.334196090698242,
				8.193675994873047
			],
			"min":[
				-2.0798163414001465,
				5.032069206237793,
				-8.196828842163086
			],
			"type":"VEC3"
		},
		{
			"bufferView":1,
			"componentType":5126,
			"count":158,
			"type":"VEC3"
		},
		{
			"bufferView":2,
			"componentType":5126,
			"count":158,
			"type":"VEC2"
		},
		{
			"bufferView":3,
			"componentType":5123,
			"count":342,
			"type":"SCALAR"
		},
		{
			"bufferView":4,
			"componentType":5126,
			"count":174,
			"max":[
				9.60833740234375,
				11.885250091552734,
				7.497250080108643
			],
			"min":[
				-9.637036323547363,
				2.8091464042663574,
				-7.500419616699219
			],
			"type":"VEC3"
		},
		{
			"bufferView":5,
			"componentType":5126,
			"count":174,
			"type":"VEC3"
		},
		{
			"bufferView":6,
			"componentType":5126,
			"count":174,
			"type":"VEC2"
		},
		{
			"bufferView":7,
			"componentType":5123,
			"count":300,
			"type":"SCALAR"
		},
		{
			"bufferView":8,
			"componentType":5126,
			"count":1312,
			"max":[
				10.106304168701172,
				2.8396782875061035,
				7.154860973358154
			],
			"min":[
				-10.072990417480469,
				1.9385371208190918,
				-7.1580119132995605
			],
			"type":"VEC3"
		},
		{
			"bufferView":9,
			"componentType":5126,
			"count":1312,
			"type":"VEC3"
		},
		{
			"bufferView":10,
			"componentType":5126,
			"count":1312,
			"type":"VEC2"
		},
		{
			"bufferView":11,
			"componentType":5123,
			"count":2292,
			"type":"SCALAR"
		},
		{
			"bufferView":12,
			"componentType":5126,
			"count":16,
			"max":[
				9.80121898651123,
				8.109000205993652,
				9.483784675598145
			],
			"min":[
				6.661152362823486,
				8.069942474365234,
				-9.488855361938477
			],
			"type":"VEC3"
		},
		{
			"bufferView":13,
			"componentType":5126,
			"count":16,
			"type":"VEC3"
		},
		{
			"bufferView":14,
			"componentType":5126,
			"count":16,
			"type":"VEC2"
		},
		{
			"bufferView":15,
			"componentType":5123,
			"count":24,
			"type":"SCALAR"
		},
		{
			"bufferView":16,
			"componentType":5126,
			"count":128,
			"max":[
				9.78847885131836,
				8.090400695800781,
				9.1449556350708
			],
			"min":[
				6.674947261810303,
				6.058448791503906,
				-9.148110389709473
			],
			"type":"VEC3"
		},
		{
			"bufferView":17,
			"componentType":5126,
			"count":128,
			"type":"VEC3"
		},
		{
			"bufferView":18,
			"componentType":5126,
			"count":128,
			"type":"VEC2"
		},
		{
			"bufferView":19,
			"componentType":5123,
			"count":192,
			"type":"SCALAR"
		},
		{
			"bufferView":20,
			"componentType":5126,
			"count":360,
			"max":[
				9.883325576782227,
				7.983521461486816,
				6.7235870361328125
			],
			"min":[
				-9.930204391479492,
				2.820575714111328,
				-6.726740837097168
			],
			"type":"VEC3"
		},
		{
			"bufferView":21,
			"componentType":5126,
			"count":360,
			"type":"VEC3"
		},
		{
			"bufferView":22,
			"componentType":5126,
			"count":360,
			"type":"VEC2"
		},
		{
			"bufferView":23,
			"componentType":5123,
			"count":720,
			"type":"SCALAR"
		},
		{
			"bufferView":24,
			"componentType":5126,
			"count":1596,
			"max":[
				9.67668628692627,
				8.083601951599121,
				8.30499267578125
			],
			"min":[
				-9.883856773376465,
				2.83768892288208,
				-6.4994096755981445
			],
			"type":"VEC3"
		},
		{
			"bufferView":25,
			"componentType":5126,
			"count":1596,
			"type":"VEC3"
		},
		{
			"bufferView":26,
			"componentType":5126,
			"count":1596,
			"type":"VEC2"
		},
		{
			"bufferView":27,
			"componentType":5123,
			"count":2544,
			"type":"SCALAR"
		},
		{
			"bufferView":28,
			"componentType":5126,
			"count":1164,
			"max":[
				9.601451873779297,
				8.196901321411133,
				8.348370552062988
			],
			"min":[
				4.992910385131836,
				2.578549385070801,
				-6.546267509460449
			],
			"type":"VEC3"
		},
		{
			"bufferView":29,
			"componentType":5126,
			"count":1164,
			"type":"VEC3"
		},
		{
			"bufferView":30,
			"componentType":5126,
			"count":1164,
			"type":"VEC2"
		},
		{
			"bufferView":31,
			"componentType":5123,
			"count":2040,
			"type":"SCALAR"
		},
		{
			"bufferView":32,
			"componentType":5126,
			"count":84,
			"max":[
				4.799358367919922,
				5.636975288391113,
				2.141899824142456
			],
			"min":[
				-3.467836380004883,
				2.9022345542907715,
				-2.672379970550537
			],
			"type":"VEC3"
		},
		{
			"bufferView":33,
			"componentType":5126,
			"count":84,
			"type":"VEC3"
		},
		{
			"bufferView":34,
			"componentType":5126,
			"count":84,
			"type":"VEC2"
		},
		{
			"bufferView":35,
			"componentType":5123,
			"count":126,
			"type":"SCALAR"
		},
		{
			"bufferView":36,
			"componentType":5126,
			"count":148,
			"max":[
				0.4110894501209259,
				5.027957916259766,
				7.8604936599731445
			],
			"min":[
				-3.02201247215271,
				1.944063663482666,
				-7.8573408126831055
			],
			"type":"VEC3"
		},
		{
			"bufferView":37,
			"componentType":5126,
			"count":148,
			"type":"VEC3"
		},
		{
			"bufferView":38,
			"componentType":5126,
			"count":148,
			"type":"VEC2"
		},
		{
			"bufferView":39,
			"componentType":5123,
			"count":288,
			"type":"SCALAR"
		},
		{
			"bufferView":40,
			"componentType":5126,
			"count":280,
			"max":[
				-0.6656906604766846,
				4.262716293334961,
				6.474621295928955
			],
			"min":[
				-2.0139291286468506,
				2.904574394226074,
				-6.477775573730469
			],
			"type":"VEC3"
		},
		{
			"bufferView":41,
			"componentType":5126,
			"count":280,
			"type":"VEC3"
		},
		{
			"bufferView":42,
			"componentType":5126,
			"count":280,
			"type":"VEC2"
		},
		{
			"bufferView":43,
			"componentType":5123,
			"count":780,
			"type":"SCALAR"
		},
		{
			"bufferView":44,
			"componentType":5126,
			"count":408,
			"max":[
				9.264439582824707,
				8.882399559020996,
				8.345787048339844
			],
			"min":[
				-9.874096870422363,
				2.79307222366333,
				-6.543750286102295
			],
			"type":"VEC3"
		},
		{
			"bufferView":45,
			"componentType":5126,
			"count":408,
			"type":"VEC3"
		},
		{
			"bufferView":46,
			"componentType":5123,
			"count":840,
			"type":"SCALAR"
		},
		{
			"bufferView":47,
			"componentType":5126,
			"count":1472,
			"max":[
				9.254582405090332,
				8.793810844421387,
				8.337651252746582
			],
			"min":[
				-9.867127418518066,
				2.823181629180908,
				-6.531533718109131
			],
			"type":"VEC3"
		},
		{
			"bufferView":48,
			"componentType":5126,
			"count":1472,
			"type":"VEC3"
		},
		{
			"bufferView":49,
			"componentType":5123,
			"count":2208,
			"type":"SCALAR"
		},
		{
			"bufferView":50,
			"componentType":5126,
			"count":5192,
			"max":[
				9.689896583557129,
				7.734683036804199,
				6.6291584968566895
			],
			"min":[
				-9.749608993530273,
				2.6909451484680176,
				-6.538456439971924
			],
			"type":"VEC3"
		},
		{
			"bufferView":51,
			"componentType":5126,
			"count":5192,
			"type":"VEC3"
		},
		{
			"bufferView":52,
			"componentType":5126,
			"count":5192,
			"type":"VEC2"
		},
		{
			"bufferView":53,
			"componentType":5123,
			"count":10032,
			"type":"SCALAR"
		},
		{
			"bufferView":54,
			"componentType":5126,
			"count":1640,
			"max":[
				9.865777015686035,
				10.38877010345459,
				9.621922492980957
			],
			"min":[
				-1.6324818134307861,
				8.101372718811035,
				-9.62702751159668
			],
			"type":"VEC3"
		},
		{
			"bufferView":55,
			"componentType":5126,
			"count":1640,
			"type":"VEC3"
		},
		{
			"bufferView":56,
			"componentType":5126,
			"count":1640,
			"type":"VEC2"
		},
		{
			"bufferView":57,
			"componentType":5123,
			"count":3939,
			"type":"SCALAR"
		},
		{
			"bufferView":58,
			"componentType":5126,
			"count":916,
			"max":[
				10.212900161743164,
				10.936568260192871,
				9.950562477111816
			],
			"min":[
				6.26804256439209,
				7.925970077514648,
				-9.955665588378906
			],
			"type":"VEC3"
		},
		{
			"bufferView":59,
			"componentType":5126,
			"count":916,
			"type":"VEC3"
		},
		{
			"bufferView":60,
			"componentType":5126,
			"count":916,
			"type":"VEC2"
		},
		{
			"bufferView":61,
			"componentType":5123,
			"count":2232,
			"type":"SCALAR"
		}
	],
	"bufferViews":[
		{
			"buffer":0,
			"byteLength":1896,
			"byteOffset":0,
			"target":34962
		},
		{
			"buffer":0,
			"byteLength":1896,
			"byteOffset":1896,
			"target":34962
		},
		{
			"buffer":0,
			"byteLength":1264,
			"byteOffset":3792,
			"target":34962
		},
		{
			"buffer":0,
			"byteLength":684,
			"byteOffset":5056,
			"target":34963
		},
		{
			"buffer":0,
			"byteLength":2088,
			"byteOffset":5740,
			"target":34962
		},
		{
			"buffer":0,
			"byteLength":2088,
			"byteOffset":7828,
			"target":34962
		},
		{
			"buffer":0,
			"byteLength":1392,
			"byteOffset":9916,
			"target":34962
		},
		{
			"buffer":0,
			"byteLength":600,
			"byteOffset":11308,
			"target":34963
		},
		{
			"buffer":0,
			"byteLength":15744,
			"byteOffset":11908,
			"target":34962
		},
		{
			"buffer":0,
			"byteLength":15744,
			"byteOffset":27652,
			"target":34962
		},
		{
			"buffer":0,
			"byteLength":10496,
			"byteOffset":43396,
			"target":34962
		},
		{
			"buffer":0,
			"byteLength":4584,
			"byteOffset":53892,
			"target":34963
		},
		{
			"buffer":0,
			"byteLength":192,
			"byteOffset":58476,
			"target":34962
		},
		{
			"buffer":0,
			"byteLength":192,
			"byteOffset":58668,
			"target":34962
		},
		{
			"buffer":0,
			"byteLength":128,
			"byteOffset":58860,
			"target":34962
		},
		{
			"buffer":0,
			"byteLength":48,
			"byteOffset":58988,
			"target":34963
		},
		{
			"buffer":0,
			"byteLength":1536,
			"byteOffset":59036,
			"target":34962
		},
		{
			"buffer":0,
			"byteLength":1536,
			"byteOffset":60572,
			"target":34962
		},
		{
			"buffer":0,
			"byteLength":1024,
			"byteOffset":62108,
			"target":34962
		},
		{
			"buffer":0,
			"byteLength":384,
			"byteOffset":63132,
			"target":34963
		},
		{
			"buffer":0,
			"byteLength":4320,
			"byteOffset":63516,
			"target":34962
		},
		{
			"buffer":0,
			"byteLength":4320,
			"byteOffset":67836,
			"target":34962
		},
		{
			"buffer":0,
			"byteLength":2880,
			"byteOffset":72156,
			"target":34962
		},
		{
			"buffer":0,
			"byteLength":1440,
			"byteOffset":75036,
			"target":34963
		},
		{
			"buffer":0,
			"byteLength":19152,
			"byteOffset":76476,
			"target":34962
		},
		{
			"buffer":0,
			"byteLength":19152,
			"byteOffset":95628,
			"target":34962
		},
		{
			"buffer":0,
			"byteLength":12768,
			"byteOffset":114780,
			"target":34962
		},
		{
			"buffer":0,
			"byteLength":5088,
			"byteOffset":127548,
			"target":34963
		},
		{
			"buffer":0,
			"byteLength":13968,
			"byteOffset":132636,
			"target":34962
		},
		{
			"buffer":0,
			"byteLength":13968,
			"byteOffset":146604,
			"target":34962
		},
		{
			"buffer":0,
			"byteLength":9312,
			"byteOffset":160572,
			"target":34962
		},
		{
			"buffer":0,
			"byteLength":4080,
			"byteOffset":169884,
			"target":34963
		},
		{
			"buffer":0,
			"byteLength":1008,
			"byteOffset":173964,
			"target":34962
		},
		{
			"buffer":0,
			"byteLength":1008,
			"byteOffset":174972,
			"target":34962
		},
		{
			"buffer":0,
			"byteLength":672,
			"byteOffset":175980,
			"target":34962
		},
		{
			"buffer":0,
			"byteLength":252,
			"byteOffset":176652,
			"target":34963
		},
		{
			"buffer":0,
			"byteLength":1776,
			"byteOffset":176904,
			"target":34962
		},
		{
			"buffer":0,
			"byteLength":1776,
			"byteOffset":178680,
			"target":34962
		},
		{
			"buffer":0,
			"byteLength":1184,
			"byteOffset":180456,
			"target":34962
		},
		{
			"buffer":0,
			"byteLength":576,
			"byteOffset":181640,
			"target":34963
		},
		{
			"buffer":0,
			"byteLength":3360,
			"byteOffset":182216,
			"target":34962
		},
		{
			"buffer":0,
			"byteLength":3360,
			"byteOffset":185576,
			"target":34962
		},
		{
			"buffer":0,
			"byteLength":2240,
			"byteOffset":188936,
			"target":34962
		},
		{
			"buffer":0,
			"byteLength":1560,
			"byteOffset":191176,
			"target":34963
		},
		{
			"buffer":0,
			"byteLength":4896,
			"byteOffset":192736,
			"target":34962
		},
		{
			"buffer":0,
			"byteLength":4896,
			"byteOffset":197632,
			"target":34962
		},
		{
			"buffer":0,
			"byteLength":1680,
			"byteOffset":202528,
			"target":34963
		},
		{
			"buffer":0,
			"byteLength":17664,
			"byteOffset":204208,
			"target":34962
		},
		{
			"buffer":0,
			"byteLength":17664,
			"byteOffset":221872,
			"target":34962
		},
		{
			"buffer":0,
			"byteLength":4416,
			"byteOffset":239536,
			"target":34963
		},
		{
			"buffer":0,
			"byteLength":62304,
			"byteOffset":243952,
			"target":34962
		},
		{
			"buffer":0,
			"byteLength":62304,
			"byteOffset":306256,
			"target":34962
		},
		{
			"buffer":0,
			"byteLength":41536,
			"byteOffset":368560,
			"target":34962
		},
		{
			"buffer":0,
			"byteLength":20064,
			"byteOffset":410096,
			"target":34963
		},
		{
			"buffer":0,
			"byteLength":19680,
			"byteOffset":430160,
			"target":34962
		},
		{
			"buffer":0,
			"byteLength":19680,
			"byteOffset":449840,
			"target":34962
		},
		{
			"buffer":0,
			"byteLength":13120,
			"byteOffset":469520,
			"target":34962
		},
		{
			"buffer":0,
			"byteLength":7878,
			"byteOffset":482640,
			"target":34963
		},
		{
			"buffer":0,
			"byteLength":10992,
			"byteOffset":490520,
			"target":34962
		},
		{
			"buffer":0,
			"byteLength":10992,
			"byteOffset":501512,
			"target":34962
		},
		{
			"buffer":0,
			"byteLength":7328,
			"byteOffset":512504,
			"target":34962
		},
		{
			"buffer":0,
			"byteLength":4464,
			"byteOffset":519832,
			"target":34963
		}
	],
	"buffers":[
		{
			"byteLength":524296,
			"uri":"walker-body.bin"
		}
	]
}
