{
	"asset":{
		"generator":"Khronos glTF Blender I/O v4.5.47",
		"version":"2.0"
	},
	"extensionsUsed":[
		"KHR_materials_specular"
	],
	"scene":0,
	"scenes":[
		{
			"name":"Scene",
			"nodes":[
				0,
				1,
				2
			]
		}
	],
	"nodes":[
		{
			"mesh":0,
			"name":"Cylinder033"
		},
		{
			"mesh":1,
			"name":"Cylinder034"
		},
		{
			"mesh":2,
			"name":"Cylinder037"
		}
	],
	"materials":[
		{
			"doubleSided":true,
			"extensions":{
				"KHR_materials_specular":{
					"specularFactor":0
				}
			},
			"name":"gray-base",
			"pbrMetallicRoughness":{
				"baseColorFactor":[
					0.2039215862751007,
					0.2039215862751007,
					0.2039215862751007,
					1
				],
				"roughnessFactor":0.858578622341156
			}
		},
		{
			"doubleSided":true,
			"extensions":{
				"KHR_materials_specular":{
					"specularFactor":0
				}
			},
			"name":"wery-rusty",
			"pbrMetallicRoughness":{
				"baseColorFactor":[
					0.5882353186607361,
					0.5882353186607361,
					0.5882353186607361,
					1
				]
			}
		}
	],
	"meshes":[
		{
			"name":"Mesh.059",
			"primitives":[
				{
					"attributes":{
						"POSITION":0,
						"NORMAL":1,
						"TEXCOORD_0":2
					},
					"indices":3,
					"material":0
				}
			]
		},
		{
			"name":"Mesh.060",
			"primitives":[
				{
					"attributes":{
						"POSITION":4,
						"NORMAL":5,
						"TEXCOORD_0":6
					},
					"indices":7,
					"material":1
				}
			]
		},
		{
			"name":"Mesh.063",
			"primitives":[
				{
					"attributes":{
						"POSITION":8,
						"NORMAL":9,
						"TEXCOORD_0":10
					},
					"indices":3,
					"material":0
				}
			]
		}
	],
	"accessors":[
		{
			"bufferView":0,
			"componentType":5126,
			"count":93,
			"max":[
				1.200463056564331,
				3.1088931560516357,
				0.3590831756591797
			],
			"min":[
				0.8068636655807495,
				2.7124030590057373,
				-0.4640798568725586
			],
			"type":"VEC3"
		},
		{
			"bufferView":1,
			"componentType":5126,
			"count":93,
			"type":"VEC3"
		},
		{
			"bufferView":2,
			"componentType":5126,
			"count":93,
			"type":"VEC2"
		},
		{
			"bufferView":3,
			"componentType":5123,
			"count":222,
			"type":"SCALAR"
		},
		{
			"bufferView":4,
			"componentType":5126,
			"count":816,
			"max":[
				1.3512828350067139,
				3.2510392665863037,
				0.3274650573730469
			],
			"min":[
				-0.7482714653015137,
				-2.6937954425811768,
				-0.5862846374511719
			],
			"type":"VEC3"
		},
		{
			"bufferView":5,
			"componentType":5126,
			"count":816,
			"type":"VEC3"
		},
		{
			"bufferView":6,
			"componentType":5126,
			"count":816,
			"type":"VEC2"
		},
		{
			"bufferView":7,
			"componentType":5123,
			"count":2226,
			"type":"SCALAR"
		},
		{
			"bufferView":8,
			"componentType":5126,
			"count":93,
			"max":[
				1.0565345287322998,
				-2.1513900756835938,
				0.3590831756591797
			],
			"min":[
				0.6629351377487183,
				-2.547880172729492,
				-0.4640798568725586
			],
			"type":"VEC3"
		},
		{
			"bufferView":9,
			"componentType":5126,
			"count":93,
			"type":"VEC3"
		},
		{
			"bufferView":10,
			"componentType":5126,
			"count":93,
			"type":"VEC2"
		}
	],
	"bufferViews":[
		{
			"buffer":0,
			"byteLength":1116,
			"byteOffset":0,
			"target":34962
		},
		{
			"buffer":0,
			"byteLength":1116,
			"byteOffset":1116,
			"target":34962
		},
		{
			"buffer":0,
			"byteLength":744,
			"byteOffset":2232,
			"target":34962
		},
		{
			"buffer":0,
			"byteLength":444,
			"byteOffset":2976,
			"target":34963
		},
		{
			"buffer":0,
			"byteLength":9792,
			"byteOffset":3420,
			"target":34962
		},
		{
			"buffer":0,
			"byteLength":9792,
			"byteOffset":13212,
			"target":34962
		},
		{
			"buffer":0,
			"byteLength":6528,
			"byteOffset":23004,
			"target":34962
		},
		{
			"buffer":0,
			"byteLength":4452,
			"byteOffset":29532,
			"target":34963
		},
		{
			"buffer":0,
			"byteLength":1116,
			"byteOffset":33984,
			"target":34962
		},
		{
			"buffer":0,
			"byteLength":1116,
			"byteOffset":35100,
			"target":34962
		},
		{
			"buffer":0,
			"byteLength":744,
			"byteOffset":36216,
			"target":34962
		}
	],
	"buffers":[
		{
			"byteLength":36960,
			"uri":"walker-leg-right.bin"
		}
	]
}
