{
	"asset":{
		"generator":"Khronos glTF Blender I/O v4.5.47",
		"version":"2.0"
	},
	"extensionsUsed":[
		"KHR_materials_specular"
	],
	"scene":0,
	"scenes":[
		{
			"name":"Scene",
			"nodes":[
				0,
				1
			]
		}
	],
	"nodes":[
		{
			"mesh":0,
			"name":"Box208",
			"translation":[
				-0.17425699532032013,
				-0.34851399064064026,
				8.887107849121094
			]
		},
		{
			"mesh":1,
			"name":"Cylinder036",
			"translation":[
				-0.17425699532032013,
				-0.34851399064064026,
				8.887107849121094
			]
		}
	],
	"materials":[
		{
			"doubleSided":true,
			"extensions":{
				"KHR_materials_specular":{
					"specularFactor":0
				}
			},
			"name":"wery-rusty",
			"pbrMetallicRoughness":{
				"baseColorFactor":[
					0.5882353186607361,
					0.5882353186607361,
					0.5882353186607361,
					1
				]
			}
		}
	],
	"meshes":[
		{
			"name":"Mesh.057",
			"primitives":[
				{
					"attributes":{
						"POSITION":0,
						"NORMAL":1,
						"TEXCOORD_0":2
					},
					"indices":3,
					"material":0
				}
			]
		},
		{
			"name":"Mesh.062",
			"primitives":[
				{
					"attributes":{
						"POSITION":4,
						"NORMAL":5,
						"TEXCOORD_0":6
					},
					"indices":7,
					"material":0
				}
			]
		}
	],
	"accessors":[
		{
			"bufferView":0,
			"componentType":5126,
			"count":256,
			"max":[
				6.511518955230713,
				1.1057679653167725,
				-7.9033918380737305
			],
			"min":[
				-6.417112350463867,
				0.4695947468280792,
				-9.915474891662598
			],
			"type":"VEC3"
		},
		{
			"bufferView":1,
			"componentType":5126,
			"count":256,
			"type":"VEC3"
		},
		{
			"bufferView":2,
			"componentType":5126,
			"count":256,
			"type":"VEC2"
		},
		{
			"bufferView":3,
			"componentType":5123,
			"count":492,
			"type":"SCALAR"
		},
		{
			"bufferView":4,
			"componentType":5126,
			"count":264,
			"max":[
				0.8619672656059265,
				1.61593759059906,
				-8.551370620727539
			],
			"min":[
				-0.5993509888648987,
				0.6028712391853333,
				-9.27807331085205
			],
			"type":"VEC3"
		},
		{
			"bufferView":5,
			"componentType":5126,
			"count":264,
			"type":"VEC3"
		},
		{
			"bufferView":6,
			"componentType":5126,
			"count":264,
			"type":"VEC2"
		},
		{
			"bufferView":7,
			"componentType":5123,
			"count":696,
			"type":"SCALAR"
		}
	],
	"bufferViews":[
		{
			"buffer":0,
			"byteLength":3072,
			"byteOffset":0,
			"target":34962
		},
		{
			"buffer":0,
			"byteLength":3072,
			"byteOffset":3072,
			"target":34962
		},
		{
			"buffer":0,
			"byteLength":2048,
			"byteOffset":6144,
			"target":34962
		},
		{
			"buffer":0,
			"byteLength":984,
			"byteOffset":8192,
			"target":34963
		},
		{
			"buffer":0,
			"byteLength":3168,
			"byteOffset":9176,
			"target":34962
		},
		{
			"buffer":0,
			"byteLength":3168,
			"byteOffset":12344,
			"target":34962
		},
		{
			"buffer":0,
			"byteLength":2112,
			"byteOffset":15512,
			"target":34962
		},
		{
			"buffer":0,
			"byteLength":1392,
			"byteOffset":17624,
			"target":34963
		}
	],
	"buffers":[
		{
			"byteLength":19016,
			"uri":"walker-foot.bin"
		}
	]
}
