{
	"asset":{
		"generator":"Khronos glTF Blender I/O v4.5.47",
		"version":"2.0"
	},
	"extensionsUsed":[
		"KHR_materials_specular"
	],
	"scene":0,
	"scenes":[
		{
			"name":"Scene",
			"nodes":[
				0
			]
		}
	],
	"nodes":[
		{
			"mesh":0,
			"name":"Cylinder024"
		}
	],
	"materials":[
		{
			"doubleSided":true,
			"extensions":{
				"KHR_materials_specular":{
					"specularFactor":0
				}
			},
			"name":"wery-rusty",
			"pbrMetallicRoughness":{
				"baseColorFactor":[
					0.5882353186607361,
					0.5882353186607361,
					0.5882353186607361,
					1
				]
			}
		}
	],
	"meshes":[
		{
			"name":"Mesh.007",
			"primitives":[
				{
					"attributes":{
						"POSITION":0,
						"NORMAL":1,
						"TEXCOORD_0":2
					},
					"indices":3,
					"material":0
				}
			]
		}
	],
	"accessors":[
		{
			"bufferView":0,
			"componentType":5126,
			"count":430,
			"max":[
				6.834254264831543,
				1.88338303565979,
				6.7516984939575195
			],
			"min":[
				-6.639894485473633,
				0.5107032060623169,
				-6.753934383392334
			],
			"type":"VEC3"
		},
		{
			"bufferView":1,
			"componentType":5126,
			"count":430,
			"type":"VEC3"
		},
		{
			"bufferView":2,
			"componentType":5126,
			"count":430,
			"type":"VEC2"
		},
		{
			"bufferView":3,
			"componentType":5123,
			"count":1368,
			"type":"SCALAR"
		}
	],
	"bufferViews":[
		{
			"buffer":0,
			"byteLength":5160,
			"byteOffset":0,
			"target":34962
		},
		{
			"buffer":0,
			"byteLength":5160,
			"byteOffset":5160,
			"target":34962
		},
		{
			"buffer":0,
			"byteLength":3440,
			"byteOffset":10320,
			"target":34962
		},
		{
			"buffer":0,
			"byteLength":2736,
			"byteOffset":13760,
			"target":34963
		}
	],
	"buffers":[
		{
			"byteLength":16496,
			"uri":"walker-base.bin"
		}
	]
}
