{
	"asset":{
		"generator":"Khronos glTF Blender I/O v4.4.56",
		"version":"2.0"
	},
	"extensionsUsed":[
		"KHR_materials_specular"
	],
	"scene":0,
	"scenes":[
		{
			"name":"Scene",
			"nodes":[
				0,
				1,
				2
			]
		}
	],
	"nodes":[
		{
			"mesh":0,
			"name":"Box321"
		},
		{
			"mesh":1,
			"name":"Box322"
		},
		{
			"mesh":2,
			"name":"Box326"
		}
	],
	"materials":[
		{
			"doubleSided":true,
			"extensions":{
				"KHR_materials_specular":{
					"specularColorFactor":[
						2.0,
						2.0,
						2.0
					]
				}
			},
			"name":"bottom-wall",
			"normalTexture":{
				"index":0
			},
			"pbrMetallicRoughness":{
				"baseColorTexture":{
					"index":1
				},
				"metallicRoughnessTexture":{
					"index":2
				}
			}
		},
		{
			"doubleSided":true,
			"extensions":{
				"KHR_materials_specular":{
					"specularColorFactor":[
						2.0,
						2.0,
						2.0
					]
				}
			},
			"name":"concrete-stairs",
			"normalTexture":{
				"index":3
			},
			"pbrMetallicRoughness":{
				"baseColorTexture":{
					"index":4
				},
				"metallicRoughnessTexture":{
					"index":5
				}
			}
		},
		{
			"doubleSided":true,
			"extensions":{
				"KHR_materials_specular":{
					"specularFactor":0
				}
			},
			"name":"metal-rusty",
			"normalTexture":{
				"index":6
			},
			"pbrMetallicRoughness":{
				"baseColorTexture":{
					"index":7
				},
				"metallicRoughnessTexture":{
					"index":8
				}
			}
		}
	],
	"meshes":[
		{
			"name":"Mesh.039",
			"primitives":[
				{
					"attributes":{
						"POSITION":0,
						"NORMAL":1,
						"TEXCOORD_0":2
					},
					"indices":3,
					"material":0
				}
			]
		},
		{
			"name":"Mesh.040",
			"primitives":[
				{
					"attributes":{
						"POSITION":4,
						"NORMAL":5,
						"TEXCOORD_0":6
					},
					"indices":7,
					"material":1
				}
			]
		},
		{
			"name":"Mesh.041",
			"primitives":[
				{
					"attributes":{
						"POSITION":8,
						"NORMAL":9,
						"TEXCOORD_0":10
					},
					"indices":11,
					"material":2
				}
			]
		}
	],
	"textures":[
		{
			"sampler":0,
			"source":0
		},
		{
			"sampler":0,
			"source":1
		},
		{
			"sampler":0,
			"source":2
		},
		{
			"sampler":0,
			"source":3
		},
		{
			"sampler":0,
			"source":4
		},
		{
			"sampler":0,
			"source":5
		},
		{
			"sampler":0,
			"source":6
		},
		{
			"sampler":0,
			"source":7
		},
		{
			"sampler":0,
			"source":8
		}
	],
	"images":[
		{
			"mimeType":"image/jpeg",
			"name":"material_normal",
			"uri":"textures/material_normal.jpg"
		},
		{
			"mimeType":"image/jpeg",
			"name":"material_diffuseOriginal",
			"uri":"textures/material_diffuseOriginal.jpg"
		},
		{
			"mimeType":"image/jpeg",
			"name":"material_metallic-material_smoothness",
			"uri":"textures/material_metallic-material_smoothness.jpg"
		},
		{
			"mimeType":"image/jpeg",
			"name":"material_normal",
			"uri":"textures/material_normal-1.jpg"
		},
		{
			"mimeType":"image/jpeg",
			"name":"material_diffuseOriginal",
			"uri":"textures/material_diffuseOriginal-1.jpg"
		},
		{
			"mimeType":"image/jpeg",
			"name":"material_metallic-material_smoothness",
			"uri":"textures/material_metallic-material_smoothness-1.jpg"
		},
		{
			"mimeType":"image/jpeg",
			"name":"material_normal",
			"uri":"textures/material_normal-2.jpg"
		},
		{
			"mimeType":"image/jpeg",
			"name":"material_diffuseOriginal",
			"uri":"textures/material_diffuseOriginal-2.jpg"
		},
		{
			"mimeType":"image/jpeg",
			"name":"material_metallic.png-material_smoothness.png",
			"uri":"textures/material_metallic_png-material_smoothness_png.jpg"
		}
	],
	"accessors":[
		{
			"bufferView":0,
			"componentType":5126,
			"count":170,
			"max":[
				3.4154045581817627,
				1.0946288108825684,
				4.494253158569336
			],
			"min":[
				-6.480075836181641,
				-0.04747861623764038,
				-6.520889759063721
			],
			"type":"VEC3"
		},
		{
			"bufferView":1,
			"componentType":5126,
			"count":170,
			"type":"VEC3"
		},
		{
			"bufferView":2,
			"componentType":5126,
			"count":170,
			"type":"VEC2"
		},
		{
			"bufferView":3,
			"componentType":5123,
			"count":336,
			"type":"SCALAR"
		},
		{
			"bufferView":4,
			"componentType":5126,
			"count":148,
			"max":[
				3.178640365600586,
				1.205200433731079,
				6.308344841003418
			],
			"min":[
				1.3284326791763306,
				-0.05210387706756592,
				4.530331611633301
			],
			"type":"VEC3"
		},
		{
			"bufferView":5,
			"componentType":5126,
			"count":148,
			"type":"VEC3"
		},
		{
			"bufferView":6,
			"componentType":5126,
			"count":148,
			"type":"VEC2"
		},
		{
			"bufferView":7,
			"componentType":5123,
			"count":294,
			"type":"SCALAR"
		},
		{
			"bufferView":8,
			"componentType":5126,
			"count":304,
			"max":[
				3.249807834625244,
				1.8157905340194702,
				6.314546585083008
			],
			"min":[
				1.258569598197937,
				0.04236245155334473,
				4.509791374206543
			],
			"type":"VEC3"
		},
		{
			"bufferView":9,
			"componentType":5126,
			"count":304,
			"type":"VEC3"
		},
		{
			"bufferView":10,
			"componentType":5126,
			"count":304,
			"type":"VEC2"
		},
		{
			"bufferView":11,
			"componentType":5123,
			"count":504,
			"type":"SCALAR"
		}
	],
	"bufferViews":[
		{
			"buffer":0,
			"byteLength":2040,
			"byteOffset":0,
			"target":34962
		},
		{
			"buffer":0,
			"byteLength":2040,
			"byteOffset":2040,
			"target":34962
		},
		{
			"buffer":0,
			"byteLength":1360,
			"byteOffset":4080,
			"target":34962
		},
		{
			"buffer":0,
			"byteLength":672,
			"byteOffset":5440,
			"target":34963
		},
		{
			"buffer":0,
			"byteLength":1776,
			"byteOffset":6112,
			"target":34962
		},
		{
			"buffer":0,
			"byteLength":1776,
			"byteOffset":7888,
			"target":34962
		},
		{
			"buffer":0,
			"byteLength":1184,
			"byteOffset":9664,
			"target":34962
		},
		{
			"buffer":0,
			"byteLength":588,
			"byteOffset":10848,
			"target":34963
		},
		{
			"buffer":0,
			"byteLength":3648,
			"byteOffset":11436,
			"target":34962
		},
		{
			"buffer":0,
			"byteLength":3648,
			"byteOffset":15084,
			"target":34962
		},
		{
			"buffer":0,
			"byteLength":2432,
			"byteOffset":18732,
			"target":34962
		},
		{
			"buffer":0,
			"byteLength":1008,
			"byteOffset":21164,
			"target":34963
		}
	],
	"samplers":[
		{
			"magFilter":9729,
			"minFilter":9987
		}
	],
	"buffers":[
		{
			"byteLength":22172,
			"uri":"base-s0.bin"
		}
	]
}
