{
	"asset":{
		"generator":"Khronos glTF Blender I/O v4.4.56",
		"version":"2.0"
	},
	"extensionsUsed":[
		"KHR_materials_specular"
	],
	"scene":0,
	"scenes":[
		{
			"name":"Scene",
			"nodes":[
				0,
				1,
				2
			]
		}
	],
	"nodes":[
		{
			"mesh":0,
			"name":"Box386"
		},
		{
			"mesh":1,
			"name":"Box387"
		},
		{
			"mesh":2,
			"name":"Box342"
		}
	],
	"materials":[
		{
			"doubleSided":true,
			"extensions":{
				"KHR_materials_specular":{
					"specularColorFactor":[
						2.0,
						2.0,
						2.0
					]
				}
			},
			"name":"concrete-stairs",
			"normalTexture":{
				"index":0
			},
			"pbrMetallicRoughness":{
				"baseColorTexture":{
					"index":1
				},
				"metallicRoughnessTexture":{
					"index":2
				}
			}
		},
		{
			"doubleSided":true,
			"extensions":{
				"KHR_materials_specular":{
					"specularFactor":0
				}
			},
			"name":"metal-rusty",
			"normalTexture":{
				"index":3
			},
			"pbrMetallicRoughness":{
				"baseColorTexture":{
					"index":4
				},
				"metallicRoughnessTexture":{
					"index":5
				}
			}
		},
		{
			"doubleSided":true,
			"extensions":{
				"KHR_materials_specular":{
					"specularColorFactor":[
						2.0,
						2.0,
						2.0
					]
				}
			},
			"name":"bottom-wall",
			"normalTexture":{
				"index":6
			},
			"pbrMetallicRoughness":{
				"baseColorTexture":{
					"index":7
				},
				"metallicRoughnessTexture":{
					"index":8
				}
			}
		}
	],
	"meshes":[
		{
			"name":"Mesh.042",
			"primitives":[
				{
					"attributes":{
						"POSITION":0,
						"NORMAL":1,
						"TEXCOORD_0":2
					},
					"indices":3,
					"material":0
				}
			]
		},
		{
			"name":"Mesh.043",
			"primitives":[
				{
					"attributes":{
						"POSITION":4,
						"NORMAL":5,
						"TEXCOORD_0":6
					},
					"indices":7,
					"material":1
				}
			]
		},
		{
			"name":"Mesh.044",
			"primitives":[
				{
					"attributes":{
						"POSITION":8,
						"NORMAL":9,
						"TEXCOORD_0":10
					},
					"indices":11,
					"material":2
				}
			]
		}
	],
	"textures":[
		{
			"sampler":0,
			"source":0
		},
		{
			"sampler":0,
			"source":1
		},
		{
			"sampler":0,
			"source":2
		},
		{
			"sampler":0,
			"source":3
		},
		{
			"sampler":0,
			"source":4
		},
		{
			"sampler":0,
			"source":5
		},
		{
			"sampler":0,
			"source":6
		},
		{
			"sampler":0,
			"source":7
		},
		{
			"sampler":0,
			"source":8
		}
	],
	"images":[
		{
			"mimeType":"image/jpeg",
			"name":"material_normal",
			"uri":"textures/material_normal.jpg"
		},
		{
			"mimeType":"image/jpeg",
			"name":"material_diffuseOriginal",
			"uri":"textures/material_diffuseOriginal.jpg"
		},
		{
			"mimeType":"image/jpeg",
			"name":"material_metallic-material_smoothness",
			"uri":"textures/material_metallic-material_smoothness.jpg"
		},
		{
			"mimeType":"image/jpeg",
			"name":"material_normal",
			"uri":"textures/material_normal-1.jpg"
		},
		{
			"mimeType":"image/jpeg",
			"name":"material_diffuseOriginal",
			"uri":"textures/material_diffuseOriginal-1.jpg"
		},
		{
			"mimeType":"image/jpeg",
			"name":"material_metallic.png-material_smoothness.png",
			"uri":"textures/material_metallic_png-material_smoothness_png.jpg"
		},
		{
			"mimeType":"image/jpeg",
			"name":"material_normal",
			"uri":"textures/material_normal-2.jpg"
		},
		{
			"mimeType":"image/jpeg",
			"name":"material_diffuseOriginal",
			"uri":"textures/material_diffuseOriginal-2.jpg"
		},
		{
			"mimeType":"image/jpeg",
			"name":"material_metallic-material_smoothness",
			"uri":"textures/material_metallic-material_smoothness-1.jpg"
		}
	],
	"accessors":[
		{
			"bufferView":0,
			"componentType":5126,
			"count":148,
			"max":[
				-2.2568979263305664,
				0.27899569272994995,
				6.3103837966918945
			],
			"min":[
				-4.107105255126953,
				-0.9783086180686951,
				4.532370567321777
			],
			"type":"VEC3"
		},
		{
			"bufferView":1,
			"componentType":5126,
			"count":148,
			"type":"VEC3"
		},
		{
			"bufferView":2,
			"componentType":5126,
			"count":148,
			"type":"VEC2"
		},
		{
			"bufferView":3,
			"componentType":5123,
			"count":294,
			"type":"SCALAR"
		},
		{
			"bufferView":4,
			"componentType":5126,
			"count":304,
			"max":[
				-2.18572998046875,
				0.8895857930183411,
				6.316585540771484
			],
			"min":[
				-4.176968574523926,
				-0.8838422894477844,
				4.5118303298950195
			],
			"type":"VEC3"
		},
		{
			"bufferView":5,
			"componentType":5126,
			"count":304,
			"type":"VEC3"
		},
		{
			"bufferView":6,
			"componentType":5126,
			"count":304,
			"type":"VEC2"
		},
		{
			"bufferView":7,
			"componentType":5123,
			"count":504,
			"type":"SCALAR"
		},
		{
			"bufferView":8,
			"componentType":5126,
			"count":92,
			"max":[
				2.2164130210876465,
				0.16942048072814941,
				4.495682716369629
			],
			"min":[
				-4.357107639312744,
				-0.9736854434013367,
				-6.523033618927002
			],
			"type":"VEC3"
		},
		{
			"bufferView":9,
			"componentType":5126,
			"count":92,
			"type":"VEC3"
		},
		{
			"bufferView":10,
			"componentType":5126,
			"count":92,
			"type":"VEC2"
		},
		{
			"bufferView":11,
			"componentType":5123,
			"count":192,
			"type":"SCALAR"
		}
	],
	"bufferViews":[
		{
			"buffer":0,
			"byteLength":1776,
			"byteOffset":0,
			"target":34962
		},
		{
			"buffer":0,
			"byteLength":1776,
			"byteOffset":1776,
			"target":34962
		},
		{
			"buffer":0,
			"byteLength":1184,
			"byteOffset":3552,
			"target":34962
		},
		{
			"buffer":0,
			"byteLength":588,
			"byteOffset":4736,
			"target":34963
		},
		{
			"buffer":0,
			"byteLength":3648,
			"byteOffset":5324,
			"target":34962
		},
		{
			"buffer":0,
			"byteLength":3648,
			"byteOffset":8972,
			"target":34962
		},
		{
			"buffer":0,
			"byteLength":2432,
			"byteOffset":12620,
			"target":34962
		},
		{
			"buffer":0,
			"byteLength":1008,
			"byteOffset":15052,
			"target":34963
		},
		{
			"buffer":0,
			"byteLength":1104,
			"byteOffset":16060,
			"target":34962
		},
		{
			"buffer":0,
			"byteLength":1104,
			"byteOffset":17164,
			"target":34962
		},
		{
			"buffer":0,
			"byteLength":736,
			"byteOffset":18268,
			"target":34962
		},
		{
			"buffer":0,
			"byteLength":384,
			"byteOffset":19004,
			"target":34963
		}
	],
	"samplers":[
		{
			"magFilter":9729,
			"minFilter":9987
		}
	],
	"buffers":[
		{
			"byteLength":19388,
			"uri":"base-s1.bin"
		}
	]
}
