{
	"asset":{
		"generator":"Khronos glTF Blender I/O v4.4.56",
		"version":"2.0"
	},
	"extensionsUsed":[
		"KHR_materials_specular"
	],
	"scene":0,
	"scenes":[
		{
			"name":"Scene",
			"nodes":[
				0,
				1,
				2,
				3,
				4,
				5,
				6,
				7,
				8,
				9,
				10
			]
		}
	],
	"nodes":[
		{
			"mesh":0,
			"name":"Plane154.002"
		},
		{
			"mesh":1,
			"name":"Plane120.002"
		},
		{
			"mesh":2,
			"name":"Plane116.002"
		},
		{
			"mesh":3,
			"name":"Box431.002"
		},
		{
			"mesh":4,
			"name":"Box430.002"
		},
		{
			"mesh":5,
			"name":"Box429.002"
		},
		{
			"mesh":6,
			"name":"Box420.002"
		},
		{
			"mesh":7,
			"name":"Box395.002"
		},
		{
			"mesh":8,
			"name":"Plane154.001"
		},
		{
			"mesh":9,
			"name":"Plane154.003"
		},
		{
			"mesh":10,
			"name":"Plane154.004"
		}
	],
	"materials":[
		{
			"doubleSided":true,
			"name":"window-frames",
			"pbrMetallicRoughness":{
				"baseColorFactor":[
					0.8233345150947571,
					0.8233345150947571,
					0.8233345150947571,
					1
				],
				"metallicFactor":0
			}
		},
		{
			"doubleSided":true,
			"extensions":{
				"KHR_materials_specular":{
					"specularFactor":0
				}
			},
			"name":"floor",
			"pbrMetallicRoughness":{
				"baseColorFactor":[
					0.4528665542602539,
					0.4528665542602539,
					0.4528665542602539,
					1
				],
				"metallicFactor":0
			}
		},
		{
			"doubleSided":true,
			"extensions":{
				"KHR_materials_specular":{
					"specularFactor":0
				}
			},
			"name":"inner-walls",
			"normalTexture":{
				"index":0
			},
			"pbrMetallicRoughness":{
				"baseColorTexture":{
					"index":1
				},
				"metallicRoughnessTexture":{
					"index":2
				}
			}
		},
		{
			"doubleSided":true,
			"extensions":{
				"KHR_materials_specular":{
					"specularFactor":0
				}
			},
			"name":"metal-rusty",
			"normalTexture":{
				"index":3
			},
			"pbrMetallicRoughness":{
				"baseColorTexture":{
					"index":4
				},
				"metallicRoughnessTexture":{
					"index":5
				}
			}
		},
		{
			"doubleSided":true,
			"extensions":{
				"KHR_materials_specular":{
					"specularColorFactor":[
						2.0,
						2.0,
						2.0
					]
				}
			},
			"name":"concrete-stairs",
			"normalTexture":{
				"index":6
			},
			"pbrMetallicRoughness":{
				"baseColorTexture":{
					"index":7
				},
				"metallicRoughnessTexture":{
					"index":8
				}
			}
		},
		{
			"doubleSided":true,
			"extensions":{
				"KHR_materials_specular":{
					"specularFactor":0
				}
			},
			"name":"facade",
			"normalTexture":{
				"index":9
			},
			"pbrMetallicRoughness":{
				"baseColorTexture":{
					"index":10
				},
				"metallicRoughnessTexture":{
					"index":11
				}
			}
		}
	],
	"meshes":[
		{
			"name":"Mesh.048",
			"primitives":[
				{
					"attributes":{
						"POSITION":0,
						"NORMAL":1,
						"TEXCOORD_0":2
					},
					"indices":3,
					"material":0
				}
			]
		},
		{
			"name":"Mesh.050",
			"primitives":[
				{
					"attributes":{
						"POSITION":4,
						"NORMAL":5,
						"TEXCOORD_0":6
					},
					"indices":7,
					"material":1
				}
			]
		},
		{
			"name":"Mesh.051",
			"primitives":[
				{
					"attributes":{
						"POSITION":8,
						"NORMAL":9,
						"TEXCOORD_0":10
					},
					"indices":11,
					"material":2
				}
			]
		},
		{
			"name":"Mesh.052",
			"primitives":[
				{
					"attributes":{
						"POSITION":12,
						"NORMAL":13,
						"TEXCOORD_0":14
					},
					"indices":15,
					"material":3
				}
			]
		},
		{
			"name":"Mesh.053",
			"primitives":[
				{
					"attributes":{
						"POSITION":16,
						"NORMAL":17,
						"TEXCOORD_0":18
					},
					"indices":19,
					"material":4
				}
			]
		},
		{
			"name":"Mesh.054",
			"primitives":[
				{
					"attributes":{
						"POSITION":20,
						"NORMAL":21,
						"TEXCOORD_0":22
					},
					"indices":23,
					"material":2
				}
			]
		},
		{
			"name":"Mesh.058",
			"primitives":[
				{
					"attributes":{
						"POSITION":24,
						"NORMAL":25,
						"TEXCOORD_0":26
					},
					"indices":27,
					"material":5
				}
			]
		},
		{
			"name":"Mesh.060",
			"primitives":[
				{
					"attributes":{
						"POSITION":28,
						"NORMAL":29,
						"TEXCOORD_0":30
					},
					"indices":31,
					"material":3
				}
			]
		},
		{
			"name":"Mesh.170",
			"primitives":[
				{
					"attributes":{
						"POSITION":32,
						"NORMAL":33,
						"TEXCOORD_0":34
					},
					"indices":35
				}
			]
		},
		{
			"name":"Mesh.171",
			"primitives":[
				{
					"attributes":{
						"POSITION":36,
						"NORMAL":37,
						"TEXCOORD_0":38
					},
					"indices":39,
					"material":0
				}
			]
		},
		{
			"name":"Mesh.172",
			"primitives":[
				{
					"attributes":{
						"POSITION":40,
						"NORMAL":41,
						"TEXCOORD_0":42
					},
					"indices":43
				}
			]
		}
	],
	"textures":[
		{
			"sampler":0,
			"source":0
		},
		{
			"sampler":0,
			"source":1
		},
		{
			"sampler":0,
			"source":2
		},
		{
			"sampler":0,
			"source":3
		},
		{
			"sampler":0,
			"source":4
		},
		{
			"sampler":0,
			"source":5
		},
		{
			"sampler":0,
			"source":6
		},
		{
			"sampler":0,
			"source":7
		},
		{
			"sampler":0,
			"source":8
		},
		{
			"sampler":0,
			"source":9
		},
		{
			"sampler":0,
			"source":10
		},
		{
			"sampler":0,
			"source":11
		}
	],
	"images":[
		{
			"mimeType":"image/jpeg",
			"name":"material_normal-2",
			"uri":"textures/material_normal-2.jpg"
		},
		{
			"mimeType":"image/jpeg",
			"name":"Texturelabs_Concrete_149M",
			"uri":"textures/Texturelabs_Concrete_149M.jpg"
		},
		{
			"mimeType":"image/jpeg",
			"name":"material_metallic_png-material_smoothness_png-2",
			"uri":"textures/material_metallic_png-material_smoothness_png-2.jpg"
		},
		{
			"mimeType":"image/jpeg",
			"name":"material_normal",
			"uri":"textures/material_normal.jpg"
		},
		{
			"mimeType":"image/jpeg",
			"name":"material_diffuseOriginal",
			"uri":"textures/material_diffuseOriginal.jpg"
		},
		{
			"mimeType":"image/jpeg",
			"name":"material_metallic.png-material_smoothness.png",
			"uri":"textures/material_metallic_png-material_smoothness_png.jpg"
		},
		{
			"mimeType":"image/jpeg",
			"name":"material_normal",
			"uri":"textures/material_normal-1.jpg"
		},
		{
			"mimeType":"image/jpeg",
			"name":"material_diffuseOriginal",
			"uri":"textures/material_diffuseOriginal-1.jpg"
		},
		{
			"mimeType":"image/jpeg",
			"name":"material_metallic-material_smoothness",
			"uri":"textures/material_metallic-material_smoothness.jpg"
		},
		{
			"mimeType":"image/jpeg",
			"name":"material_normal-4",
			"uri":"textures/material_normal-4.jpg"
		},
		{
			"mimeType":"image/jpeg",
			"name":"Texturelabs_Concrete_189M",
			"uri":"textures/Texturelabs_Concrete_189M.jpg"
		},
		{
			"mimeType":"image/jpeg",
			"name":"material_metallic-material_smoothness",
			"uri":"textures/material_metallic-material_smoothness-1.jpg"
		}
	],
	"accessors":[
		{
			"bufferView":0,
			"componentType":5126,
			"count":32,
			"max":[
				-1.4522428512573242,
				0.7259950041770935,
				-5.663272857666016
			],
			"min":[
				-2.4672086238861084,
				0.016745999455451965,
				-5.713274002075195
			],
			"type":"VEC3"
		},
		{
			"bufferView":1,
			"componentType":5126,
			"count":32,
			"type":"VEC3"
		},
		{
			"bufferView":2,
			"componentType":5126,
			"count":32,
			"type":"VEC2"
		},
		{
			"bufferView":3,
			"componentType":5123,
			"count":72,
			"type":"SCALAR"
		},
		{
			"bufferView":4,
			"componentType":5126,
			"count":12,
			"max":[
				2.9469950199127197,
				-1.409257173538208,
				5.420753002166748
			],
			"min":[
				-3.6185967922210693,
				-1.5492645502090454,
				-5.669029712677002
			],
			"type":"VEC3"
		},
		{
			"bufferView":5,
			"componentType":5126,
			"count":12,
			"type":"VEC3"
		},
		{
			"bufferView":6,
			"componentType":5126,
			"count":12,
			"type":"VEC2"
		},
		{
			"bufferView":7,
			"componentType":5123,
			"count":18,
			"type":"SCALAR"
		},
		{
			"bufferView":8,
			"componentType":5126,
			"count":144,
			"max":[
				2.9567172527313232,
				1.013243317604065,
				5.411818981170654
			],
			"min":[
				-3.6268413066864014,
				-1.522578477859497,
				-5.666110038757324
			],
			"type":"VEC3"
		},
		{
			"bufferView":9,
			"componentType":5126,
			"count":144,
			"type":"VEC3"
		},
		{
			"bufferView":10,
			"componentType":5126,
			"count":144,
			"type":"VEC2"
		},
		{
			"bufferView":11,
			"componentType":5123,
			"count":252,
			"type":"SCALAR"
		},
		{
			"bufferView":12,
			"componentType":5126,
			"count":336,
			"max":[
				-1.7386523485183716,
				1.7568683624267578,
				-1.3562798500061035
			],
			"min":[
				-2.246398687362671,
				-1.3877265453338623,
				-4.105854034423828
			],
			"type":"VEC3"
		},
		{
			"bufferView":13,
			"componentType":5126,
			"count":336,
			"type":"VEC3"
		},
		{
			"bufferView":14,
			"componentType":5126,
			"count":336,
			"type":"VEC2"
		},
		{
			"bufferView":15,
			"componentType":5123,
			"count":552,
			"type":"SCALAR"
		},
		{
			"bufferView":16,
			"componentType":5126,
			"count":330,
			"max":[
				-0.43935930728912354,
				1.1547365188598633,
				-1.3803308010101318
			],
			"min":[
				-3.539173126220703,
				-1.4761104583740234,
				-4.200022220611572
			],
			"type":"VEC3"
		},
		{
			"bufferView":17,
			"componentType":5126,
			"count":330,
			"type":"VEC3"
		},
		{
			"bufferView":18,
			"componentType":5126,
			"count":330,
			"type":"VEC2"
		},
		{
			"bufferView":19,
			"componentType":5123,
			"count":648,
			"type":"SCALAR"
		},
		{
			"bufferView":20,
			"componentType":5126,
			"count":12,
			"max":[
				-0.32967841625213623,
				-0.057536780834198,
				-4.062178611755371
			],
			"min":[
				-3.6191110610961914,
				-0.25348395109176636,
				-5.593008041381836
			],
			"type":"VEC3"
		},
		{
			"bufferView":21,
			"componentType":5126,
			"count":12,
			"type":"VEC3"
		},
		{
			"bufferView":22,
			"componentType":5126,
			"count":12,
			"type":"VEC2"
		},
		{
			"bufferView":23,
			"componentType":5123,
			"count":18,
			"type":"SCALAR"
		},
		{
			"bufferView":24,
			"componentType":5126,
			"count":352,
			"max":[
				2.952336311340332,
				1.0458790063858032,
				5.5197834968566895
			],
			"min":[
				-3.664353847503662,
				-1.556412935256958,
				-5.772324562072754
			],
			"type":"VEC3"
		},
		{
			"bufferView":25,
			"componentType":5126,
			"count":352,
			"type":"VEC3"
		},
		{
			"bufferView":26,
			"componentType":5126,
			"count":352,
			"type":"VEC2"
		},
		{
			"bufferView":27,
			"componentType":5123,
			"count":768,
			"type":"SCALAR"
		},
		{
			"bufferView":28,
			"componentType":5126,
			"count":172,
			"max":[
				1.9044991731643677,
				0.050234854221343994,
				5.561910152435303
			],
			"min":[
				-2.4495673179626465,
				-1.2590429782867432,
				-5.814453125
			],
			"type":"VEC3"
		},
		{
			"bufferView":29,
			"componentType":5126,
			"count":172,
			"type":"VEC3"
		},
		{
			"bufferView":30,
			"componentType":5126,
			"count":172,
			"type":"VEC2"
		},
		{
			"bufferView":31,
			"componentType":5123,
			"count":288,
			"type":"SCALAR"
		},
		{
			"bufferView":32,
			"componentType":5126,
			"count":80,
			"max":[
				1.9106942415237427,
				0.6929227113723755,
				-5.662774562835693
			],
			"min":[
				0.6785107851028442,
				-0.9342920184135437,
				-5.712774753570557
			],
			"type":"VEC3"
		},
		{
			"bufferView":33,
			"componentType":5126,
			"count":80,
			"type":"VEC3"
		},
		{
			"bufferView":34,
			"componentType":5126,
			"count":80,
			"type":"VEC2"
		},
		{
			"bufferView":35,
			"componentType":5123,
			"count":180,
			"type":"SCALAR"
		},
		{
			"bufferView":36,
			"componentType":5126,
			"count":32,
			"max":[
				-1.4522430896759033,
				-0.5460348725318909,
				-5.663272857666016
			],
			"min":[
				-2.4672088623046875,
				-1.2552837133407593,
				-5.713274002075195
			],
			"type":"VEC3"
		},
		{
			"bufferView":37,
			"componentType":5126,
			"count":32,
			"type":"VEC3"
		},
		{
			"bufferView":38,
			"componentType":5126,
			"count":32,
			"type":"VEC2"
		},
		{
			"bufferView":39,
			"componentType":5123,
			"count":72,
			"type":"SCALAR"
		},
		{
			"bufferView":40,
			"componentType":5126,
			"count":80,
			"max":[
				1.912662386894226,
				0.6929231286048889,
				5.460731029510498
			],
			"min":[
				0.6804789304733276,
				-0.934291422367096,
				5.410729885101318
			],
			"type":"VEC3"
		},
		{
			"bufferView":41,
			"componentType":5126,
			"count":80,
			"type":"VEC3"
		},
		{
			"bufferView":42,
			"componentType":5126,
			"count":80,
			"type":"VEC2"
		},
		{
			"bufferView":43,
			"componentType":5123,
			"count":180,
			"type":"SCALAR"
		}
	],
	"bufferViews":[
		{
			"buffer":0,
			"byteLength":384,
			"byteOffset":0,
			"target":34962
		},
		{
			"buffer":0,
			"byteLength":384,
			"byteOffset":384,
			"target":34962
		},
		{
			"buffer":0,
			"byteLength":256,
			"byteOffset":768,
			"target":34962
		},
		{
			"buffer":0,
			"byteLength":144,
			"byteOffset":1024,
			"target":34963
		},
		{
			"buffer":0,
			"byteLength":144,
			"byteOffset":1168,
			"target":34962
		},
		{
			"buffer":0,
			"byteLength":144,
			"byteOffset":1312,
			"target":34962
		},
		{
			"buffer":0,
			"byteLength":96,
			"byteOffset":1456,
			"target":34962
		},
		{
			"buffer":0,
			"byteLength":36,
			"byteOffset":1552,
			"target":34963
		},
		{
			"buffer":0,
			"byteLength":1728,
			"byteOffset":1588,
			"target":34962
		},
		{
			"buffer":0,
			"byteLength":1728,
			"byteOffset":3316,
			"target":34962
		},
		{
			"buffer":0,
			"byteLength":1152,
			"byteOffset":5044,
			"target":34962
		},
		{
			"buffer":0,
			"byteLength":504,
			"byteOffset":6196,
			"target":34963
		},
		{
			"buffer":0,
			"byteLength":4032,
			"byteOffset":6700,
			"target":34962
		},
		{
			"buffer":0,
			"byteLength":4032,
			"byteOffset":10732,
			"target":34962
		},
		{
			"buffer":0,
			"byteLength":2688,
			"byteOffset":14764,
			"target":34962
		},
		{
			"buffer":0,
			"byteLength":1104,
			"byteOffset":17452,
			"target":34963
		},
		{
			"buffer":0,
			"byteLength":3960,
			"byteOffset":18556,
			"target":34962
		},
		{
			"buffer":0,
			"byteLength":3960,
			"byteOffset":22516,
			"target":34962
		},
		{
			"buffer":0,
			"byteLength":2640,
			"byteOffset":26476,
			"target":34962
		},
		{
			"buffer":0,
			"byteLength":1296,
			"byteOffset":29116,
			"target":34963
		},
		{
			"buffer":0,
			"byteLength":144,
			"byteOffset":30412,
			"target":34962
		},
		{
			"buffer":0,
			"byteLength":144,
			"byteOffset":30556,
			"target":34962
		},
		{
			"buffer":0,
			"byteLength":96,
			"byteOffset":30700,
			"target":34962
		},
		{
			"buffer":0,
			"byteLength":36,
			"byteOffset":30796,
			"target":34963
		},
		{
			"buffer":0,
			"byteLength":4224,
			"byteOffset":30832,
			"target":34962
		},
		{
			"buffer":0,
			"byteLength":4224,
			"byteOffset":35056,
			"target":34962
		},
		{
			"buffer":0,
			"byteLength":2816,
			"byteOffset":39280,
			"target":34962
		},
		{
			"buffer":0,
			"byteLength":1536,
			"byteOffset":42096,
			"target":34963
		},
		{
			"buffer":0,
			"byteLength":2064,
			"byteOffset":43632,
			"target":34962
		},
		{
			"buffer":0,
			"byteLength":2064,
			"byteOffset":45696,
			"target":34962
		},
		{
			"buffer":0,
			"byteLength":1376,
			"byteOffset":47760,
			"target":34962
		},
		{
			"buffer":0,
			"byteLength":576,
			"byteOffset":49136,
			"target":34963
		},
		{
			"buffer":0,
			"byteLength":960,
			"byteOffset":49712,
			"target":34962
		},
		{
			"buffer":0,
			"byteLength":960,
			"byteOffset":50672,
			"target":34962
		},
		{
			"buffer":0,
			"byteLength":640,
			"byteOffset":51632,
			"target":34962
		},
		{
			"buffer":0,
			"byteLength":360,
			"byteOffset":52272,
			"target":34963
		},
		{
			"buffer":0,
			"byteLength":384,
			"byteOffset":52632,
			"target":34962
		},
		{
			"buffer":0,
			"byteLength":384,
			"byteOffset":53016,
			"target":34962
		},
		{
			"buffer":0,
			"byteLength":256,
			"byteOffset":53400,
			"target":34962
		},
		{
			"buffer":0,
			"byteLength":144,
			"byteOffset":53656,
			"target":34963
		},
		{
			"buffer":0,
			"byteLength":960,
			"byteOffset":53800,
			"target":34962
		},
		{
			"buffer":0,
			"byteLength":960,
			"byteOffset":54760,
			"target":34962
		},
		{
			"buffer":0,
			"byteLength":640,
			"byteOffset":55720,
			"target":34962
		},
		{
			"buffer":0,
			"byteLength":360,
			"byteOffset":56360,
			"target":34963
		}
	],
	"samplers":[
		{
			"magFilter":9729,
			"minFilter":9987
		}
	],
	"buffers":[
		{
			"byteLength":56720,
			"uri":"floor1-s1.bin"
		}
	]
}
