{
	"asset":{
		"generator":"Khronos glTF Blender I/O v4.4.56",
		"version":"2.0"
	},
	"extensionsUsed":[
		"KHR_materials_specular"
	],
	"scene":0,
	"scenes":[
		{
			"name":"Scene",
			"nodes":[
				0,
				1,
				2,
				3,
				4,
				5,
				6,
				7,
				8,
				9,
				10,
				11,
				12,
				13,
				14,
				15
			]
		}
	],
	"nodes":[
		{
			"mesh":0,
			"name":"Plane152.002"
		},
		{
			"mesh":1,
			"name":"Plane130.002"
		},
		{
			"mesh":2,
			"name":"Plane129.002"
		},
		{
			"mesh":3,
			"name":"Plane128.002"
		},
		{
			"mesh":4,
			"name":"Box418.002"
		},
		{
			"mesh":5,
			"name":"Box417.002"
		},
		{
			"mesh":6,
			"name":"Box416.002"
		},
		{
			"mesh":7,
			"name":"Box410.002"
		},
		{
			"mesh":8,
			"name":"Box402.002"
		},
		{
			"mesh":9,
			"name":"Box390.002"
		},
		{
			"mesh":10,
			"name":"Box365.002"
		},
		{
			"mesh":11,
			"name":"Plane152.001"
		},
		{
			"mesh":12,
			"name":"Plane152.003"
		},
		{
			"mesh":13,
			"name":"Plane152.004"
		},
		{
			"mesh":14,
			"name":"Plane152.005"
		},
		{
			"mesh":15,
			"name":"Plane152.006"
		}
	],
	"materials":[
		{
			"doubleSided":true,
			"name":"window-frames",
			"pbrMetallicRoughness":{
				"baseColorFactor":[
					0.8233345150947571,
					0.8233345150947571,
					0.8233345150947571,
					1
				],
				"metallicFactor":0
			}
		},
		{
			"doubleSided":true,
			"extensions":{
				"KHR_materials_specular":{
					"specularFactor":0
				}
			},
			"name":"inner-walls",
			"normalTexture":{
				"index":0
			},
			"pbrMetallicRoughness":{
				"baseColorTexture":{
					"index":1
				},
				"metallicRoughnessTexture":{
					"index":2
				}
			}
		},
		{
			"doubleSided":true,
			"extensions":{
				"KHR_materials_specular":{
					"specularFactor":0
				}
			},
			"name":"floor",
			"pbrMetallicRoughness":{
				"baseColorFactor":[
					0.4528665542602539,
					0.4528665542602539,
					0.4528665542602539,
					1
				],
				"metallicFactor":0
			}
		},
		{
			"doubleSided":true,
			"extensions":{
				"KHR_materials_specular":{
					"specularFactor":0
				}
			},
			"name":"metal-rusty",
			"normalTexture":{
				"index":3
			},
			"pbrMetallicRoughness":{
				"baseColorTexture":{
					"index":4
				},
				"metallicRoughnessTexture":{
					"index":5
				}
			}
		},
		{
			"doubleSided":true,
			"extensions":{
				"KHR_materials_specular":{
					"specularColorFactor":[
						2.0,
						2.0,
						2.0
					]
				}
			},
			"name":"concrete-stairs",
			"normalTexture":{
				"index":6
			},
			"pbrMetallicRoughness":{
				"baseColorTexture":{
					"index":7
				},
				"metallicRoughnessTexture":{
					"index":8
				}
			}
		},
		{
			"doubleSided":true,
			"extensions":{
				"KHR_materials_specular":{
					"specularFactor":0
				}
			},
			"name":"end-wall",
			"normalTexture":{
				"index":9
			},
			"pbrMetallicRoughness":{
				"baseColorTexture":{
					"index":10
				},
				"metallicRoughnessTexture":{
					"index":11
				}
			}
		},
		{
			"doubleSided":true,
			"extensions":{
				"KHR_materials_specular":{
					"specularFactor":0
				}
			},
			"name":"facade",
			"normalTexture":{
				"index":12
			},
			"pbrMetallicRoughness":{
				"baseColorTexture":{
					"index":13
				},
				"metallicRoughnessTexture":{
					"index":14
				}
			}
		},
		{
			"doubleSided":true,
			"extensions":{
				"KHR_materials_specular":{
					"specularFactor":0
				}
			},
			"name":"corrogated",
			"normalTexture":{
				"index":15
			},
			"pbrMetallicRoughness":{
				"baseColorTexture":{
					"index":16
				},
				"metallicRoughnessTexture":{
					"index":17
				}
			}
		}
	],
	"meshes":[
		{
			"name":"Mesh.202",
			"primitives":[
				{
					"attributes":{
						"POSITION":0,
						"NORMAL":1,
						"TEXCOORD_0":2
					},
					"indices":3,
					"material":0
				}
			]
		},
		{
			"name":"Mesh.207",
			"primitives":[
				{
					"attributes":{
						"POSITION":4,
						"NORMAL":5,
						"TEXCOORD_0":6
					},
					"indices":7,
					"material":1
				}
			]
		},
		{
			"name":"Mesh.208",
			"primitives":[
				{
					"attributes":{
						"POSITION":8,
						"NORMAL":9,
						"TEXCOORD_0":10
					},
					"indices":11,
					"material":0
				}
			]
		},
		{
			"name":"Mesh.209",
			"primitives":[
				{
					"attributes":{
						"POSITION":12,
						"NORMAL":13,
						"TEXCOORD_0":14
					},
					"indices":15,
					"material":2
				}
			]
		},
		{
			"name":"Mesh.210",
			"primitives":[
				{
					"attributes":{
						"POSITION":16,
						"NORMAL":17,
						"TEXCOORD_0":18
					},
					"indices":19,
					"material":3
				}
			]
		},
		{
			"name":"Mesh.211",
			"primitives":[
				{
					"attributes":{
						"POSITION":20,
						"NORMAL":21,
						"TEXCOORD_0":22
					},
					"indices":23,
					"material":4
				}
			]
		},
		{
			"name":"Mesh.212",
			"primitives":[
				{
					"attributes":{
						"POSITION":24,
						"NORMAL":25,
						"TEXCOORD_0":26
					},
					"indices":27,
					"material":1
				}
			]
		},
		{
			"name":"Mesh.218",
			"primitives":[
				{
					"attributes":{
						"POSITION":28,
						"NORMAL":29,
						"TEXCOORD_0":30
					},
					"indices":31,
					"material":3
				}
			]
		},
		{
			"name":"Mesh.220",
			"primitives":[
				{
					"attributes":{
						"POSITION":32,
						"NORMAL":33,
						"TEXCOORD_0":34
					},
					"indices":35,
					"material":5
				}
			]
		},
		{
			"name":"Mesh.224",
			"primitives":[
				{
					"attributes":{
						"POSITION":36,
						"NORMAL":37,
						"TEXCOORD_0":38
					},
					"indices":39,
					"material":6
				}
			]
		},
		{
			"name":"Mesh.225",
			"primitives":[
				{
					"attributes":{
						"POSITION":40,
						"NORMAL":41,
						"TEXCOORD_0":42
					},
					"indices":43,
					"material":7
				}
			]
		},
		{
			"name":"Mesh.165",
			"primitives":[
				{
					"attributes":{
						"POSITION":44,
						"NORMAL":45,
						"TEXCOORD_0":46
					},
					"indices":47,
					"material":0
				}
			]
		},
		{
			"name":"Mesh.166",
			"primitives":[
				{
					"attributes":{
						"POSITION":48,
						"NORMAL":49,
						"TEXCOORD_0":50
					},
					"indices":51
				}
			]
		},
		{
			"name":"Mesh.167",
			"primitives":[
				{
					"attributes":{
						"POSITION":52,
						"NORMAL":53,
						"TEXCOORD_0":54
					},
					"indices":51
				}
			]
		},
		{
			"name":"Mesh.168",
			"primitives":[
				{
					"attributes":{
						"POSITION":55,
						"NORMAL":56,
						"TEXCOORD_0":57
					},
					"indices":58
				}
			]
		},
		{
			"name":"Mesh.169",
			"primitives":[
				{
					"attributes":{
						"POSITION":59,
						"NORMAL":60,
						"TEXCOORD_0":61
					},
					"indices":58
				}
			]
		}
	],
	"textures":[
		{
			"sampler":0,
			"source":0
		},
		{
			"sampler":0,
			"source":1
		},
		{
			"sampler":0,
			"source":2
		},
		{
			"sampler":0,
			"source":3
		},
		{
			"sampler":0,
			"source":4
		},
		{
			"sampler":0,
			"source":5
		},
		{
			"sampler":0,
			"source":6
		},
		{
			"sampler":0,
			"source":7
		},
		{
			"sampler":0,
			"source":8
		},
		{
			"sampler":0,
			"source":9
		},
		{
			"sampler":0,
			"source":10
		},
		{
			"sampler":0,
			"source":11
		},
		{
			"sampler":0,
			"source":12
		},
		{
			"sampler":0,
			"source":13
		},
		{
			"sampler":0,
			"source":14
		},
		{
			"sampler":0,
			"source":15
		},
		{
			"sampler":0,
			"source":16
		},
		{
			"sampler":0,
			"source":17
		}
	],
	"images":[
		{
			"mimeType":"image/jpeg",
			"name":"material_normal-2",
			"uri":"textures/material_normal-2.jpg"
		},
		{
			"mimeType":"image/jpeg",
			"name":"Texturelabs_Concrete_149M",
			"uri":"textures/Texturelabs_Concrete_149M.jpg"
		},
		{
			"mimeType":"image/jpeg",
			"name":"material_metallic_png-material_smoothness_png-2",
			"uri":"textures/material_metallic_png-material_smoothness_png-2.jpg"
		},
		{
			"mimeType":"image/jpeg",
			"name":"material_normal",
			"uri":"textures/material_normal.jpg"
		},
		{
			"mimeType":"image/jpeg",
			"name":"material_diffuseOriginal",
			"uri":"textures/material_diffuseOriginal.jpg"
		},
		{
			"mimeType":"image/jpeg",
			"name":"material_metallic.png-material_smoothness.png",
			"uri":"textures/material_metallic_png-material_smoothness_png.jpg"
		},
		{
			"mimeType":"image/jpeg",
			"name":"material_normal",
			"uri":"textures/material_normal-1.jpg"
		},
		{
			"mimeType":"image/jpeg",
			"name":"material_diffuseOriginal",
			"uri":"textures/material_diffuseOriginal-1.jpg"
		},
		{
			"mimeType":"image/jpeg",
			"name":"material_metallic-material_smoothness",
			"uri":"textures/material_metallic-material_smoothness.jpg"
		},
		{
			"mimeType":"image/jpeg",
			"name":"material_normal-3",
			"uri":"textures/material_normal-3.jpg"
		},
		{
			"mimeType":"image/jpeg",
			"name":"Texturelabs_Concrete_192M",
			"uri":"textures/Texturelabs_Concrete_192M.jpg"
		},
		{
			"mimeType":"image/jpeg",
			"name":"material_metallic_png-material_smoothness_png-3",
			"uri":"textures/material_metallic_png-material_smoothness_png-3.jpg"
		},
		{
			"mimeType":"image/jpeg",
			"name":"material_normal-4",
			"uri":"textures/material_normal-4.jpg"
		},
		{
			"mimeType":"image/jpeg",
			"name":"Texturelabs_Concrete_189M",
			"uri":"textures/Texturelabs_Concrete_189M.jpg"
		},
		{
			"mimeType":"image/jpeg",
			"name":"material_metallic-material_smoothness",
			"uri":"textures/material_metallic-material_smoothness-1.jpg"
		},
		{
			"mimeType":"image/jpeg",
			"name":"material_normal.bmp",
			"uri":"textures/material_normal_bmp.jpg"
		},
		{
			"mimeType":"image/jpeg",
			"name":"material_diffuseOriginal.bmp",
			"uri":"textures/material_diffuseOriginal_bmp.jpg"
		},
		{
			"mimeType":"image/jpeg",
			"name":"material_metallic.bmp-material_smoothness.bmp",
			"uri":"textures/material_metallic_bmp-material_smoothness_bmp.jpg"
		}
	],
	"accessors":[
		{
			"bufferView":0,
			"componentType":5126,
			"count":32,
			"max":[
				3.586531162261963,
				1.1660923957824707,
				-5.604031562805176
			],
			"min":[
				2.5715651512145996,
				0.4568433165550232,
				-5.654032230377197
			],
			"type":"VEC3"
		},
		{
			"bufferView":1,
			"componentType":5126,
			"count":32,
			"type":"VEC3"
		},
		{
			"bufferView":2,
			"componentType":5126,
			"count":32,
			"type":"VEC2"
		},
		{
			"bufferView":3,
			"componentType":5123,
			"count":72,
			"type":"SCALAR"
		},
		{
			"bufferView":4,
			"componentType":5126,
			"count":219,
			"max":[
				4.680768966674805,
				1.464705467224121,
				5.540567874908447
			],
			"min":[
				-5.195464134216309,
				-1.100529670715332,
				-5.607339859008789
			],
			"type":"VEC3"
		},
		{
			"bufferView":5,
			"componentType":5126,
			"count":219,
			"type":"VEC3"
		},
		{
			"bufferView":6,
			"componentType":5126,
			"count":219,
			"type":"VEC2"
		},
		{
			"bufferView":7,
			"componentType":5123,
			"count":411,
			"type":"SCALAR"
		},
		{
			"bufferView":8,
			"componentType":5126,
			"count":120,
			"max":[
				4.406744480133057,
				1.1368011236190796,
				4.575080394744873
			],
			"min":[
				1.5664727687835693,
				-1.0248783826828003,
				4.52508020401001
			],
			"type":"VEC3"
		},
		{
			"bufferView":9,
			"componentType":5126,
			"count":120,
			"type":"VEC3"
		},
		{
			"bufferView":10,
			"componentType":5126,
			"count":120,
			"type":"VEC2"
		},
		{
			"bufferView":11,
			"componentType":5123,
			"count":288,
			"type":"SCALAR"
		},
		{
			"bufferView":12,
			"componentType":5126,
			"count":20,
			"max":[
				4.683319091796875,
				-0.9666717648506165,
				5.479524612426758
			],
			"min":[
				-5.217231750488281,
				-1.1066722869873047,
				-5.610258102416992
			],
			"type":"VEC3"
		},
		{
			"bufferView":13,
			"componentType":5126,
			"count":20,
			"type":"VEC3"
		},
		{
			"bufferView":14,
			"componentType":5126,
			"count":20,
			"type":"VEC2"
		},
		{
			"bufferView":15,
			"componentType":5123,
			"count":36,
			"type":"SCALAR"
		},
		{
			"bufferView":16,
			"componentType":5126,
			"count":336,
			"max":[
				3.260514736175537,
				2.1425960063934326,
				-1.297039270401001
			],
			"min":[
				2.7527682781219482,
				-1.0019996166229248,
				-4.046614170074463
			],
			"type":"VEC3"
		},
		{
			"bufferView":17,
			"componentType":5126,
			"count":336,
			"type":"VEC3"
		},
		{
			"bufferView":18,
			"componentType":5126,
			"count":336,
			"type":"VEC2"
		},
		{
			"bufferView":19,
			"componentType":5123,
			"count":552,
			"type":"SCALAR"
		},
		{
			"bufferView":20,
			"componentType":5126,
			"count":330,
			"max":[
				4.553289413452148,
				1.540464162826538,
				-1.321089506149292
			],
			"min":[
				1.4534755945205688,
				-1.0903832912445068,
				-4.140781402587891
			],
			"type":"VEC3"
		},
		{
			"bufferView":21,
			"componentType":5126,
			"count":330,
			"type":"VEC3"
		},
		{
			"bufferView":22,
			"componentType":5126,
			"count":330,
			"type":"VEC2"
		},
		{
			"bufferView":23,
			"componentType":5123,
			"count":648,
			"type":"SCALAR"
		},
		{
			"bufferView":24,
			"componentType":5126,
			"count":12,
			"max":[
				4.633228302001953,
				0.32819071412086487,
				-4.002938270568848
			],
			"min":[
				1.3437951803207397,
				0.13224367797374725,
				-5.533768177032471
			],
			"type":"VEC3"
		},
		{
			"bufferView":25,
			"componentType":5126,
			"count":12,
			"type":"VEC3"
		},
		{
			"bufferView":26,
			"componentType":5126,
			"count":12,
			"type":"VEC2"
		},
		{
			"bufferView":27,
			"componentType":5123,
			"count":18,
			"type":"SCALAR"
		},
		{
			"bufferView":28,
			"componentType":5126,
			"count":260,
			"max":[
				3.566030740737915,
				0.4903312623500824,
				5.621153354644775
			],
			"min":[
				-4.122684478759766,
				-0.8189467787742615,
				-5.75521183013916
			],
			"type":"VEC3"
		},
		{
			"bufferView":29,
			"componentType":5126,
			"count":260,
			"type":"VEC3"
		},
		{
			"bufferView":30,
			"componentType":5126,
			"count":260,
			"type":"VEC2"
		},
		{
			"bufferView":31,
			"componentType":5123,
			"count":432,
			"type":"SCALAR"
		},
		{
			"bufferView":32,
			"componentType":5126,
			"count":48,
			"max":[
				-5.164193630218506,
				1.489785075187683,
				5.497673511505127
			],
			"min":[
				-5.315847873687744,
				-1.112026333808899,
				-5.632774353027344
			],
			"type":"VEC3"
		},
		{
			"bufferView":33,
			"componentType":5126,
			"count":48,
			"type":"VEC3"
		},
		{
			"bufferView":34,
			"componentType":5126,
			"count":48,
			"type":"VEC2"
		},
		{
			"bufferView":35,
			"componentType":5123,
			"count":84,
			"type":"SCALAR"
		},
		{
			"bufferView":36,
			"componentType":5126,
			"count":528,
			"max":[
				4.705422401428223,
				1.4872000217437744,
				5.579026222229004
			],
			"min":[
				-5.193837642669678,
				-1.1163172721862793,
				-5.7130842208862305
			],
			"type":"VEC3"
		},
		{
			"bufferView":37,
			"componentType":5126,
			"count":528,
			"type":"VEC3"
		},
		{
			"bufferView":38,
			"componentType":5126,
			"count":528,
			"type":"VEC2"
		},
		{
			"bufferView":39,
			"componentType":5123,
			"count":1152,
			"type":"SCALAR"
		},
		{
			"bufferView":40,
			"componentType":5126,
			"count":58,
			"max":[
				4.680724620819092,
				-0.14322565495967865,
				5.631723880767822
			],
			"min":[
				1.3220957517623901,
				-1.1321250200271606,
				5.311587333679199
			],
			"type":"VEC3"
		},
		{
			"bufferView":41,
			"componentType":5126,
			"count":58,
			"type":"VEC3"
		},
		{
			"bufferView":42,
			"componentType":5126,
			"count":58,
			"type":"VEC2"
		},
		{
			"bufferView":43,
			"componentType":5123,
			"count":132,
			"type":"SCALAR"
		},
		{
			"bufferView":44,
			"componentType":5126,
			"count":32,
			"max":[
				3.586531162261963,
				-0.10593755543231964,
				-5.604032039642334
			],
			"min":[
				2.5715651512145996,
				-0.8151866793632507,
				-5.6540327072143555
			],
			"type":"VEC3"
		},
		{
			"bufferView":45,
			"componentType":5126,
			"count":32,
			"type":"VEC3"
		},
		{
			"bufferView":46,
			"componentType":5126,
			"count":32,
			"type":"VEC2"
		},
		{
			"bufferView":47,
			"componentType":5123,
			"count":72,
			"type":"SCALAR"
		},
		{
			"bufferView":48,
			"componentType":5126,
			"count":80,
			"max":[
				0.3836648762226105,
				1.1330188512802124,
				-5.603536128997803
			],
			"min":[
				-0.8485190868377686,
				-0.4941960573196411,
				-5.653536796569824
			],
			"type":"VEC3"
		},
		{
			"bufferView":49,
			"componentType":5126,
			"count":80,
			"type":"VEC3"
		},
		{
			"bufferView":50,
			"componentType":5126,
			"count":80,
			"type":"VEC2"
		},
		{
			"bufferView":51,
			"componentType":5123,
			"count":180,
			"type":"SCALAR"
		},
		{
			"bufferView":52,
			"componentType":5126,
			"count":80,
			"max":[
				-2.9025092124938965,
				1.1330188512802124,
				-5.6035356521606445
			],
			"min":[
				-4.134692668914795,
				-0.4941960573196411,
				-5.653536319732666
			],
			"type":"VEC3"
		},
		{
			"bufferView":53,
			"componentType":5126,
			"count":80,
			"type":"VEC3"
		},
		{
			"bufferView":54,
			"componentType":5126,
			"count":80,
			"type":"VEC2"
		},
		{
			"bufferView":55,
			"componentType":5126,
			"count":80,
			"max":[
				0.38366469740867615,
				1.1342438459396362,
				5.519975662231445
			],
			"min":[
				-0.8485190272331238,
				-0.4929710030555725,
				5.469974994659424
			],
			"type":"VEC3"
		},
		{
			"bufferView":56,
			"componentType":5126,
			"count":80,
			"type":"VEC3"
		},
		{
			"bufferView":57,
			"componentType":5126,
			"count":80,
			"type":"VEC2"
		},
		{
			"bufferView":58,
			"componentType":5123,
			"count":180,
			"type":"SCALAR"
		},
		{
			"bufferView":59,
			"componentType":5126,
			"count":80,
			"max":[
				-2.9025094509124756,
				1.1342438459396362,
				5.519975662231445
			],
			"min":[
				-4.134693145751953,
				-0.4929710030555725,
				5.469974994659424
			],
			"type":"VEC3"
		},
		{
			"bufferView":60,
			"componentType":5126,
			"count":80,
			"type":"VEC3"
		},
		{
			"bufferView":61,
			"componentType":5126,
			"count":80,
			"type":"VEC2"
		}
	],
	"bufferViews":[
		{
			"buffer":0,
			"byteLength":384,
			"byteOffset":0,
			"target":34962
		},
		{
			"buffer":0,
			"byteLength":384,
			"byteOffset":384,
			"target":34962
		},
		{
			"buffer":0,
			"byteLength":256,
			"byteOffset":768,
			"target":34962
		},
		{
			"buffer":0,
			"byteLength":144,
			"byteOffset":1024,
			"target":34963
		},
		{
			"buffer":0,
			"byteLength":2628,
			"byteOffset":1168,
			"target":34962
		},
		{
			"buffer":0,
			"byteLength":2628,
			"byteOffset":3796,
			"target":34962
		},
		{
			"buffer":0,
			"byteLength":1752,
			"byteOffset":6424,
			"target":34962
		},
		{
			"buffer":0,
			"byteLength":822,
			"byteOffset":8176,
			"target":34963
		},
		{
			"buffer":0,
			"byteLength":1440,
			"byteOffset":9000,
			"target":34962
		},
		{
			"buffer":0,
			"byteLength":1440,
			"byteOffset":10440,
			"target":34962
		},
		{
			"buffer":0,
			"byteLength":960,
			"byteOffset":11880,
			"target":34962
		},
		{
			"buffer":0,
			"byteLength":576,
			"byteOffset":12840,
			"target":34963
		},
		{
			"buffer":0,
			"byteLength":240,
			"byteOffset":13416,
			"target":34962
		},
		{
			"buffer":0,
			"byteLength":240,
			"byteOffset":13656,
			"target":34962
		},
		{
			"buffer":0,
			"byteLength":160,
			"byteOffset":13896,
			"target":34962
		},
		{
			"buffer":0,
			"byteLength":72,
			"byteOffset":14056,
			"target":34963
		},
		{
			"buffer":0,
			"byteLength":4032,
			"byteOffset":14128,
			"target":34962
		},
		{
			"buffer":0,
			"byteLength":4032,
			"byteOffset":18160,
			"target":34962
		},
		{
			"buffer":0,
			"byteLength":2688,
			"byteOffset":22192,
			"target":34962
		},
		{
			"buffer":0,
			"byteLength":1104,
			"byteOffset":24880,
			"target":34963
		},
		{
			"buffer":0,
			"byteLength":3960,
			"byteOffset":25984,
			"target":34962
		},
		{
			"buffer":0,
			"byteLength":3960,
			"byteOffset":29944,
			"target":34962
		},
		{
			"buffer":0,
			"byteLength":2640,
			"byteOffset":33904,
			"target":34962
		},
		{
			"buffer":0,
			"byteLength":1296,
			"byteOffset":36544,
			"target":34963
		},
		{
			"buffer":0,
			"byteLength":144,
			"byteOffset":37840,
			"target":34962
		},
		{
			"buffer":0,
			"byteLength":144,
			"byteOffset":37984,
			"target":34962
		},
		{
			"buffer":0,
			"byteLength":96,
			"byteOffset":38128,
			"target":34962
		},
		{
			"buffer":0,
			"byteLength":36,
			"byteOffset":38224,
			"target":34963
		},
		{
			"buffer":0,
			"byteLength":3120,
			"byteOffset":38260,
			"target":34962
		},
		{
			"buffer":0,
			"byteLength":3120,
			"byteOffset":41380,
			"target":34962
		},
		{
			"buffer":0,
			"byteLength":2080,
			"byteOffset":44500,
			"target":34962
		},
		{
			"buffer":0,
			"byteLength":864,
			"byteOffset":46580,
			"target":34963
		},
		{
			"buffer":0,
			"byteLength":576,
			"byteOffset":47444,
			"target":34962
		},
		{
			"buffer":0,
			"byteLength":576,
			"byteOffset":48020,
			"target":34962
		},
		{
			"buffer":0,
			"byteLength":384,
			"byteOffset":48596,
			"target":34962
		},
		{
			"buffer":0,
			"byteLength":168,
			"byteOffset":48980,
			"target":34963
		},
		{
			"buffer":0,
			"byteLength":6336,
			"byteOffset":49148,
			"target":34962
		},
		{
			"buffer":0,
			"byteLength":6336,
			"byteOffset":55484,
			"target":34962
		},
		{
			"buffer":0,
			"byteLength":4224,
			"byteOffset":61820,
			"target":34962
		},
		{
			"buffer":0,
			"byteLength":2304,
			"byteOffset":66044,
			"target":34963
		},
		{
			"buffer":0,
			"byteLength":696,
			"byteOffset":68348,
			"target":34962
		},
		{
			"buffer":0,
			"byteLength":696,
			"byteOffset":69044,
			"target":34962
		},
		{
			"buffer":0,
			"byteLength":464,
			"byteOffset":69740,
			"target":34962
		},
		{
			"buffer":0,
			"byteLength":264,
			"byteOffset":70204,
			"target":34963
		},
		{
			"buffer":0,
			"byteLength":384,
			"byteOffset":70468,
			"target":34962
		},
		{
			"buffer":0,
			"byteLength":384,
			"byteOffset":70852,
			"target":34962
		},
		{
			"buffer":0,
			"byteLength":256,
			"byteOffset":71236,
			"target":34962
		},
		{
			"buffer":0,
			"byteLength":144,
			"byteOffset":71492,
			"target":34963
		},
		{
			"buffer":0,
			"byteLength":960,
			"byteOffset":71636,
			"target":34962
		},
		{
			"buffer":0,
			"byteLength":960,
			"byteOffset":72596,
			"target":34962
		},
		{
			"buffer":0,
			"byteLength":640,
			"byteOffset":73556,
			"target":34962
		},
		{
			"buffer":0,
			"byteLength":360,
			"byteOffset":74196,
			"target":34963
		},
		{
			"buffer":0,
			"byteLength":960,
			"byteOffset":74556,
			"target":34962
		},
		{
			"buffer":0,
			"byteLength":960,
			"byteOffset":75516,
			"target":34962
		},
		{
			"buffer":0,
			"byteLength":640,
			"byteOffset":76476,
			"target":34962
		},
		{
			"buffer":0,
			"byteLength":960,
			"byteOffset":77116,
			"target":34962
		},
		{
			"buffer":0,
			"byteLength":960,
			"byteOffset":78076,
			"target":34962
		},
		{
			"buffer":0,
			"byteLength":640,
			"byteOffset":79036,
			"target":34962
		},
		{
			"buffer":0,
			"byteLength":360,
			"byteOffset":79676,
			"target":34963
		},
		{
			"buffer":0,
			"byteLength":960,
			"byteOffset":80036,
			"target":34962
		},
		{
			"buffer":0,
			"byteLength":960,
			"byteOffset":80996,
			"target":34962
		},
		{
			"buffer":0,
			"byteLength":640,
			"byteOffset":81956,
			"target":34962
		}
	],
	"samplers":[
		{
			"magFilter":9729,
			"minFilter":9987
		}
	],
	"buffers":[
		{
			"byteLength":82596,
			"uri":"floor2-s0.bin"
		}
	]
}
