{
	"asset":{
		"generator":"Khronos glTF Blender I/O v4.4.56",
		"version":"2.0"
	},
	"extensionsUsed":[
		"KHR_materials_specular"
	],
	"scene":0,
	"scenes":[
		{
			"name":"Scene",
			"nodes":[
				0,
				1,
				2,
				3,
				4,
				5,
				6,
				7,
				8,
				9,
				10,
				11,
				12,
				13
			]
		}
	],
	"nodes":[
		{
			"mesh":0,
			"name":"Box349.001"
		},
		{
			"mesh":1,
			"name":"Box351.001"
		},
		{
			"mesh":2,
			"name":"Box348.001"
		},
		{
			"mesh":3,
			"name":"Plane104.001"
		},
		{
			"mesh":4,
			"name":"Box318.001"
		},
		{
			"mesh":5,
			"name":"Plane112.001"
		},
		{
			"mesh":6,
			"name":"Plane008.001"
		},
		{
			"mesh":7,
			"name":"Box407.001"
		},
		{
			"mesh":8,
			"name":"Box408.001"
		},
		{
			"mesh":9,
			"name":"Plane008.002"
		},
		{
			"mesh":10,
			"name":"Plane008.003"
		},
		{
			"mesh":11,
			"name":"Plane008.004"
		},
		{
			"mesh":12,
			"name":"Plane008.005"
		},
		{
			"mesh":13,
			"name":"Plane008.006"
		}
	],
	"materials":[
		{
			"doubleSided":true,
			"extensions":{
				"KHR_materials_specular":{
					"specularColorFactor":[
						2.0,
						2.0,
						2.0
					]
				}
			},
			"name":"concrete-stairs",
			"normalTexture":{
				"index":0
			},
			"pbrMetallicRoughness":{
				"baseColorTexture":{
					"index":1
				},
				"metallicRoughnessTexture":{
					"index":2
				}
			}
		},
		{
			"doubleSided":true,
			"extensions":{
				"KHR_materials_specular":{
					"specularFactor":0
				}
			},
			"name":"metal-rusty",
			"normalTexture":{
				"index":3
			},
			"pbrMetallicRoughness":{
				"baseColorTexture":{
					"index":4
				},
				"metallicRoughnessTexture":{
					"index":5
				}
			}
		},
		{
			"doubleSided":true,
			"extensions":{
				"KHR_materials_specular":{
					"specularFactor":0
				}
			},
			"name":"inner-walls",
			"normalTexture":{
				"index":6
			},
			"pbrMetallicRoughness":{
				"baseColorTexture":{
					"index":7
				},
				"metallicRoughnessTexture":{
					"index":8
				}
			}
		},
		{
			"doubleSided":true,
			"extensions":{
				"KHR_materials_specular":{
					"specularFactor":0
				}
			},
			"name":"end-wall",
			"normalTexture":{
				"index":9
			},
			"pbrMetallicRoughness":{
				"baseColorTexture":{
					"index":10
				},
				"metallicRoughnessTexture":{
					"index":11
				}
			}
		},
		{
			"doubleSided":true,
			"extensions":{
				"KHR_materials_specular":{
					"specularFactor":0
				}
			},
			"name":"floor",
			"pbrMetallicRoughness":{
				"baseColorFactor":[
					0.4528665542602539,
					0.4528665542602539,
					0.4528665542602539,
					1
				],
				"metallicFactor":0
			}
		},
		{
			"doubleSided":true,
			"name":"window-frames",
			"pbrMetallicRoughness":{
				"baseColorFactor":[
					0.8233345150947571,
					0.8233345150947571,
					0.8233345150947571,
					1
				],
				"metallicFactor":0
			}
		},
		{
			"doubleSided":true,
			"extensions":{
				"KHR_materials_specular":{
					"specularFactor":0
				}
			},
			"name":"facade",
			"normalTexture":{
				"index":12
			},
			"pbrMetallicRoughness":{
				"baseColorTexture":{
					"index":13
				},
				"metallicRoughnessTexture":{
					"index":14
				}
			}
		},
		{
			"doubleSided":true,
			"extensions":{
				"KHR_materials_specular":{
					"specularFactor":0
				}
			},
			"name":"04 - Default",
			"normalTexture":{
				"index":15
			},
			"pbrMetallicRoughness":{
				"baseColorTexture":{
					"index":16
				},
				"metallicRoughnessTexture":{
					"index":17
				}
			}
		}
	],
	"meshes":[
		{
			"name":"Mesh.093",
			"primitives":[
				{
					"attributes":{
						"POSITION":0,
						"NORMAL":1,
						"TEXCOORD_0":2
					},
					"indices":3,
					"material":0
				}
			]
		},
		{
			"name":"Mesh.094",
			"primitives":[
				{
					"attributes":{
						"POSITION":4,
						"NORMAL":5,
						"TEXCOORD_0":6
					},
					"indices":7,
					"material":1
				}
			]
		},
		{
			"name":"Mesh.095",
			"primitives":[
				{
					"attributes":{
						"POSITION":8,
						"NORMAL":9,
						"TEXCOORD_0":10
					},
					"indices":11,
					"material":2
				}
			]
		},
		{
			"name":"Mesh.096",
			"primitives":[
				{
					"attributes":{
						"POSITION":12,
						"NORMAL":13,
						"TEXCOORD_0":14
					},
					"indices":15,
					"material":2
				}
			]
		},
		{
			"name":"Mesh.097",
			"primitives":[
				{
					"attributes":{
						"POSITION":16,
						"NORMAL":17,
						"TEXCOORD_0":18
					},
					"indices":19,
					"material":3
				}
			]
		},
		{
			"name":"Mesh.098",
			"primitives":[
				{
					"attributes":{
						"POSITION":20,
						"NORMAL":21,
						"TEXCOORD_0":22
					},
					"indices":23,
					"material":4
				}
			]
		},
		{
			"name":"Mesh.099",
			"primitives":[
				{
					"attributes":{
						"POSITION":24,
						"NORMAL":25,
						"TEXCOORD_0":26
					},
					"indices":27,
					"material":5
				}
			]
		},
		{
			"name":"Mesh.100",
			"primitives":[
				{
					"attributes":{
						"POSITION":28,
						"NORMAL":29,
						"TEXCOORD_0":30
					},
					"indices":31,
					"material":6
				}
			]
		},
		{
			"name":"Mesh.101",
			"primitives":[
				{
					"attributes":{
						"POSITION":32,
						"NORMAL":33,
						"TEXCOORD_0":34
					},
					"indices":35,
					"material":7
				}
			]
		},
		{
			"name":"Mesh.102",
			"primitives":[
				{
					"attributes":{
						"POSITION":36,
						"NORMAL":37,
						"TEXCOORD_0":38
					},
					"indices":39,
					"material":5
				}
			]
		},
		{
			"name":"Mesh.103",
			"primitives":[
				{
					"attributes":{
						"POSITION":40,
						"NORMAL":41,
						"TEXCOORD_0":42
					},
					"indices":43,
					"material":5
				}
			]
		},
		{
			"name":"Mesh.104",
			"primitives":[
				{
					"attributes":{
						"POSITION":44,
						"NORMAL":45,
						"TEXCOORD_0":46
					},
					"indices":43,
					"material":5
				}
			]
		},
		{
			"name":"Mesh.105",
			"primitives":[
				{
					"attributes":{
						"POSITION":47,
						"NORMAL":48,
						"TEXCOORD_0":49
					},
					"indices":50,
					"material":4
				}
			]
		},
		{
			"name":"Mesh.106",
			"primitives":[
				{
					"attributes":{
						"POSITION":51,
						"NORMAL":52,
						"TEXCOORD_0":53
					},
					"indices":50,
					"material":4
				}
			]
		}
	],
	"textures":[
		{
			"sampler":0,
			"source":0
		},
		{
			"sampler":0,
			"source":1
		},
		{
			"sampler":0,
			"source":2
		},
		{
			"sampler":0,
			"source":3
		},
		{
			"sampler":0,
			"source":4
		},
		{
			"sampler":0,
			"source":5
		},
		{
			"sampler":0,
			"source":6
		},
		{
			"sampler":0,
			"source":7
		},
		{
			"sampler":0,
			"source":8
		},
		{
			"sampler":0,
			"source":9
		},
		{
			"sampler":0,
			"source":10
		},
		{
			"sampler":0,
			"source":11
		},
		{
			"sampler":0,
			"source":12
		},
		{
			"sampler":0,
			"source":13
		},
		{
			"sampler":0,
			"source":14
		},
		{
			"sampler":0,
			"source":15
		},
		{
			"sampler":0,
			"source":16
		},
		{
			"sampler":0,
			"source":17
		}
	],
	"images":[
		{
			"mimeType":"image/jpeg",
			"name":"material_normal",
			"uri":"textures/material_normal.jpg"
		},
		{
			"mimeType":"image/jpeg",
			"name":"material_diffuseOriginal",
			"uri":"textures/material_diffuseOriginal.jpg"
		},
		{
			"mimeType":"image/jpeg",
			"name":"material_metallic-material_smoothness",
			"uri":"textures/material_metallic-material_smoothness.jpg"
		},
		{
			"mimeType":"image/jpeg",
			"name":"material_normal",
			"uri":"textures/material_normal-1.jpg"
		},
		{
			"mimeType":"image/jpeg",
			"name":"material_diffuseOriginal",
			"uri":"textures/material_diffuseOriginal-1.jpg"
		},
		{
			"mimeType":"image/jpeg",
			"name":"material_metallic.png-material_smoothness.png",
			"uri":"textures/material_metallic_png-material_smoothness_png.jpg"
		},
		{
			"mimeType":"image/jpeg",
			"name":"material_normal-2",
			"uri":"textures/material_normal-2.jpg"
		},
		{
			"mimeType":"image/jpeg",
			"name":"Texturelabs_Concrete_149M",
			"uri":"textures/Texturelabs_Concrete_149M.jpg"
		},
		{
			"mimeType":"image/jpeg",
			"name":"material_metallic_png-material_smoothness_png-2",
			"uri":"textures/material_metallic_png-material_smoothness_png-2.jpg"
		},
		{
			"mimeType":"image/jpeg",
			"name":"material_normal-3",
			"uri":"textures/material_normal-3.jpg"
		},
		{
			"mimeType":"image/jpeg",
			"name":"Texturelabs_Concrete_192M",
			"uri":"textures/Texturelabs_Concrete_192M.jpg"
		},
		{
			"mimeType":"image/jpeg",
			"name":"material_metallic_png-material_smoothness_png-3",
			"uri":"textures/material_metallic_png-material_smoothness_png-3.jpg"
		},
		{
			"mimeType":"image/jpeg",
			"name":"material_normal-4",
			"uri":"textures/material_normal-4.jpg"
		},
		{
			"mimeType":"image/jpeg",
			"name":"Texturelabs_Concrete_189M",
			"uri":"textures/Texturelabs_Concrete_189M.jpg"
		},
		{
			"mimeType":"image/jpeg",
			"name":"material_metallic-material_smoothness",
			"uri":"textures/material_metallic-material_smoothness-1.jpg"
		},
		{
			"mimeType":"image/jpeg",
			"name":"material_normal-1",
			"uri":"textures/material_normal-5.jpg"
		},
		{
			"mimeType":"image/jpeg",
			"name":"Texturelabs_Metal_167M",
			"uri":"textures/Texturelabs_Metal_167M.jpg"
		},
		{
			"mimeType":"image/jpeg",
			"name":"material_metallic_png-material_smoothness_png-1",
			"uri":"textures/material_metallic_png-material_smoothness_png-1.jpg"
		}
	],
	"accessors":[
		{
			"bufferView":0,
			"componentType":5126,
			"count":330,
			"max":[
				5.637031555175781,
				2.7571122646331787,
				-1.2540597915649414
			],
			"min":[
				2.537217855453491,
				0.12626546621322632,
				-4.073751449584961
			],
			"type":"VEC3"
		},
		{
			"bufferView":1,
			"componentType":5126,
			"count":330,
			"type":"VEC3"
		},
		{
			"bufferView":2,
			"componentType":5126,
			"count":330,
			"type":"VEC2"
		},
		{
			"bufferView":3,
			"componentType":5123,
			"count":648,
			"type":"SCALAR"
		},
		{
			"bufferView":4,
			"componentType":5126,
			"count":349,
			"max":[
				4.344256401062012,
				3.359243869781494,
				-1.230008840560913
			],
			"min":[
				3.836509943008423,
				0.21464908123016357,
				-3.9795830249786377
			],
			"type":"VEC3"
		},
		{
			"bufferView":5,
			"componentType":5126,
			"count":349,
			"type":"VEC3"
		},
		{
			"bufferView":6,
			"componentType":5126,
			"count":349,
			"type":"VEC2"
		},
		{
			"bufferView":7,
			"componentType":5123,
			"count":552,
			"type":"SCALAR"
		},
		{
			"bufferView":8,
			"componentType":5126,
			"count":12,
			"max":[
				5.7169694900512695,
				1.5448391437530518,
				-3.9359073638916016
			],
			"min":[
				2.427536964416504,
				1.3488922119140625,
				-5.466736793518066
			],
			"type":"VEC3"
		},
		{
			"bufferView":9,
			"componentType":5126,
			"count":12,
			"type":"VEC3"
		},
		{
			"bufferView":10,
			"componentType":5126,
			"count":12,
			"type":"VEC2"
		},
		{
			"bufferView":11,
			"componentType":5123,
			"count":18,
			"type":"SCALAR"
		},
		{
			"bufferView":12,
			"componentType":5126,
			"count":215,
			"max":[
				5.77531099319458,
				2.614424705505371,
				5.538089275360107
			],
			"min":[
				-4.111721515655518,
				0.07860219478607178,
				-5.539840221405029
			],
			"type":"VEC3"
		},
		{
			"bufferView":13,
			"componentType":5126,
			"count":215,
			"type":"VEC3"
		},
		{
			"bufferView":14,
			"componentType":5126,
			"count":215,
			"type":"VEC2"
		},
		{
			"bufferView":15,
			"componentType":5123,
			"count":354,
			"type":"SCALAR"
		},
		{
			"bufferView":16,
			"componentType":5126,
			"count":49,
			"max":[
				-4.080448627471924,
				2.649369478225708,
				5.564701080322266
			],
			"min":[
				-4.232102870941162,
				0.047558821737766266,
				-5.565745830535889
			],
			"type":"VEC3"
		},
		{
			"bufferView":17,
			"componentType":5126,
			"count":49,
			"type":"VEC3"
		},
		{
			"bufferView":18,
			"componentType":5126,
			"count":49,
			"type":"VEC2"
		},
		{
			"bufferView":19,
			"componentType":5123,
			"count":84,
			"type":"SCALAR"
		},
		{
			"bufferView":20,
			"componentType":5126,
			"count":12,
			"max":[
				5.767065048217773,
				0.1931147575378418,
				5.547024250030518
			],
			"min":[
				-4.133485794067383,
				0.05311477184295654,
				-5.542758464813232
			],
			"type":"VEC3"
		},
		{
			"bufferView":21,
			"componentType":5126,
			"count":12,
			"type":"VEC3"
		},
		{
			"bufferView":22,
			"componentType":5126,
			"count":12,
			"type":"VEC2"
		},
		{
			"bufferView":23,
			"componentType":5123,
			"count":18,
			"type":"SCALAR"
		},
		{
			"bufferView":24,
			"componentType":5126,
			"count":80,
			"max":[
				-1.8187637329101562,
				2.2952985763549805,
				5.587002754211426
			],
			"min":[
				-3.0509471893310547,
				0.6680841445922852,
				5.5370025634765625
			],
			"type":"VEC3"
		},
		{
			"bufferView":25,
			"componentType":5126,
			"count":80,
			"type":"VEC3"
		},
		{
			"bufferView":26,
			"componentType":5126,
			"count":80,
			"type":"VEC2"
		},
		{
			"bufferView":27,
			"componentType":5123,
			"count":180,
			"type":"SCALAR"
		},
		{
			"bufferView":28,
			"componentType":5126,
			"count":546,
			"max":[
				5.789165496826172,
				2.648256540298462,
				5.646053791046143
			],
			"min":[
				-4.110091209411621,
				0.045963555574417114,
				-5.646053791046143
			],
			"type":"VEC3"
		},
		{
			"bufferView":29,
			"componentType":5126,
			"count":546,
			"type":"VEC3"
		},
		{
			"bufferView":30,
			"componentType":5126,
			"count":546,
			"type":"VEC2"
		},
		{
			"bufferView":31,
			"componentType":5123,
			"count":1152,
			"type":"SCALAR"
		},
		{
			"bufferView":32,
			"componentType":5126,
			"count":264,
			"max":[
				4.649773120880127,
				1.6526107788085938,
				5.688181400299072
			],
			"min":[
				-3.038938522338867,
				0.3433329164981842,
				-5.688181400299072
			],
			"type":"VEC3"
		},
		{
			"bufferView":33,
			"componentType":5126,
			"count":264,
			"type":"VEC3"
		},
		{
			"bufferView":34,
			"componentType":5126,
			"count":264,
			"type":"VEC2"
		},
		{
			"bufferView":35,
			"componentType":5123,
			"count":432,
			"type":"SCALAR"
		},
		{
			"bufferView":36,
			"componentType":5126,
			"count":80,
			"max":[
				1.4674091339111328,
				2.2952985763549805,
				5.587002754211426
			],
			"min":[
				0.23522567749023438,
				0.6680841445922852,
				5.5370025634765625
			],
			"type":"VEC3"
		},
		{
			"bufferView":37,
			"componentType":5126,
			"count":80,
			"type":"VEC3"
		},
		{
			"bufferView":38,
			"componentType":5126,
			"count":80,
			"type":"VEC2"
		},
		{
			"bufferView":39,
			"componentType":5123,
			"count":180,
			"type":"SCALAR"
		},
		{
			"bufferView":40,
			"componentType":5126,
			"count":80,
			"max":[
				-1.8187637329101562,
				2.2952985763549805,
				-5.536502838134766
			],
			"min":[
				-3.0509471893310547,
				0.6680840849876404,
				-5.586503028869629
			],
			"type":"VEC3"
		},
		{
			"bufferView":41,
			"componentType":5126,
			"count":80,
			"type":"VEC3"
		},
		{
			"bufferView":42,
			"componentType":5126,
			"count":80,
			"type":"VEC2"
		},
		{
			"bufferView":43,
			"componentType":5123,
			"count":180,
			"type":"SCALAR"
		},
		{
			"bufferView":44,
			"componentType":5126,
			"count":80,
			"max":[
				1.4674091339111328,
				2.2952985763549805,
				-5.536502838134766
			],
			"min":[
				0.23522567749023438,
				0.6680840849876404,
				-5.586503028869629
			],
			"type":"VEC3"
		},
		{
			"bufferView":45,
			"componentType":5126,
			"count":80,
			"type":"VEC3"
		},
		{
			"bufferView":46,
			"componentType":5126,
			"count":80,
			"type":"VEC2"
		},
		{
			"bufferView":47,
			"componentType":5126,
			"count":32,
			"max":[
				4.670273780822754,
				2.3283708095550537,
				-5.537001609802246
			],
			"min":[
				3.6553077697753906,
				1.6191216707229614,
				-5.587002754211426
			],
			"type":"VEC3"
		},
		{
			"bufferView":48,
			"componentType":5126,
			"count":32,
			"type":"VEC3"
		},
		{
			"bufferView":49,
			"componentType":5126,
			"count":32,
			"type":"VEC2"
		},
		{
			"bufferView":50,
			"componentType":5123,
			"count":72,
			"type":"SCALAR"
		},
		{
			"bufferView":51,
			"componentType":5126,
			"count":32,
			"max":[
				4.670273780822754,
				1.0563411712646484,
				-5.537001609802246
			],
			"min":[
				3.6553077697753906,
				0.3470919132232666,
				-5.587002754211426
			],
			"type":"VEC3"
		},
		{
			"bufferView":52,
			"componentType":5126,
			"count":32,
			"type":"VEC3"
		},
		{
			"bufferView":53,
			"componentType":5126,
			"count":32,
			"type":"VEC2"
		}
	],
	"bufferViews":[
		{
			"buffer":0,
			"byteLength":3960,
			"byteOffset":0,
			"target":34962
		},
		{
			"buffer":0,
			"byteLength":3960,
			"byteOffset":3960,
			"target":34962
		},
		{
			"buffer":0,
			"byteLength":2640,
			"byteOffset":7920,
			"target":34962
		},
		{
			"buffer":0,
			"byteLength":1296,
			"byteOffset":10560,
			"target":34963
		},
		{
			"buffer":0,
			"byteLength":4188,
			"byteOffset":11856,
			"target":34962
		},
		{
			"buffer":0,
			"byteLength":4188,
			"byteOffset":16044,
			"target":34962
		},
		{
			"buffer":0,
			"byteLength":2792,
			"byteOffset":20232,
			"target":34962
		},
		{
			"buffer":0,
			"byteLength":1104,
			"byteOffset":23024,
			"target":34963
		},
		{
			"buffer":0,
			"byteLength":144,
			"byteOffset":24128,
			"target":34962
		},
		{
			"buffer":0,
			"byteLength":144,
			"byteOffset":24272,
			"target":34962
		},
		{
			"buffer":0,
			"byteLength":96,
			"byteOffset":24416,
			"target":34962
		},
		{
			"buffer":0,
			"byteLength":36,
			"byteOffset":24512,
			"target":34963
		},
		{
			"buffer":0,
			"byteLength":2580,
			"byteOffset":24548,
			"target":34962
		},
		{
			"buffer":0,
			"byteLength":2580,
			"byteOffset":27128,
			"target":34962
		},
		{
			"buffer":0,
			"byteLength":1720,
			"byteOffset":29708,
			"target":34962
		},
		{
			"buffer":0,
			"byteLength":708,
			"byteOffset":31428,
			"target":34963
		},
		{
			"buffer":0,
			"byteLength":588,
			"byteOffset":32136,
			"target":34962
		},
		{
			"buffer":0,
			"byteLength":588,
			"byteOffset":32724,
			"target":34962
		},
		{
			"buffer":0,
			"byteLength":392,
			"byteOffset":33312,
			"target":34962
		},
		{
			"buffer":0,
			"byteLength":168,
			"byteOffset":33704,
			"target":34963
		},
		{
			"buffer":0,
			"byteLength":144,
			"byteOffset":33872,
			"target":34962
		},
		{
			"buffer":0,
			"byteLength":144,
			"byteOffset":34016,
			"target":34962
		},
		{
			"buffer":0,
			"byteLength":96,
			"byteOffset":34160,
			"target":34962
		},
		{
			"buffer":0,
			"byteLength":36,
			"byteOffset":34256,
			"target":34963
		},
		{
			"buffer":0,
			"byteLength":960,
			"byteOffset":34292,
			"target":34962
		},
		{
			"buffer":0,
			"byteLength":960,
			"byteOffset":35252,
			"target":34962
		},
		{
			"buffer":0,
			"byteLength":640,
			"byteOffset":36212,
			"target":34962
		},
		{
			"buffer":0,
			"byteLength":360,
			"byteOffset":36852,
			"target":34963
		},
		{
			"buffer":0,
			"byteLength":6552,
			"byteOffset":37212,
			"target":34962
		},
		{
			"buffer":0,
			"byteLength":6552,
			"byteOffset":43764,
			"target":34962
		},
		{
			"buffer":0,
			"byteLength":4368,
			"byteOffset":50316,
			"target":34962
		},
		{
			"buffer":0,
			"byteLength":2304,
			"byteOffset":54684,
			"target":34963
		},
		{
			"buffer":0,
			"byteLength":3168,
			"byteOffset":56988,
			"target":34962
		},
		{
			"buffer":0,
			"byteLength":3168,
			"byteOffset":60156,
			"target":34962
		},
		{
			"buffer":0,
			"byteLength":2112,
			"byteOffset":63324,
			"target":34962
		},
		{
			"buffer":0,
			"byteLength":864,
			"byteOffset":65436,
			"target":34963
		},
		{
			"buffer":0,
			"byteLength":960,
			"byteOffset":66300,
			"target":34962
		},
		{
			"buffer":0,
			"byteLength":960,
			"byteOffset":67260,
			"target":34962
		},
		{
			"buffer":0,
			"byteLength":640,
			"byteOffset":68220,
			"target":34962
		},
		{
			"buffer":0,
			"byteLength":360,
			"byteOffset":68860,
			"target":34963
		},
		{
			"buffer":0,
			"byteLength":960,
			"byteOffset":69220,
			"target":34962
		},
		{
			"buffer":0,
			"byteLength":960,
			"byteOffset":70180,
			"target":34962
		},
		{
			"buffer":0,
			"byteLength":640,
			"byteOffset":71140,
			"target":34962
		},
		{
			"buffer":0,
			"byteLength":360,
			"byteOffset":71780,
			"target":34963
		},
		{
			"buffer":0,
			"byteLength":960,
			"byteOffset":72140,
			"target":34962
		},
		{
			"buffer":0,
			"byteLength":960,
			"byteOffset":73100,
			"target":34962
		},
		{
			"buffer":0,
			"byteLength":640,
			"byteOffset":74060,
			"target":34962
		},
		{
			"buffer":0,
			"byteLength":384,
			"byteOffset":74700,
			"target":34962
		},
		{
			"buffer":0,
			"byteLength":384,
			"byteOffset":75084,
			"target":34962
		},
		{
			"buffer":0,
			"byteLength":256,
			"byteOffset":75468,
			"target":34962
		},
		{
			"buffer":0,
			"byteLength":144,
			"byteOffset":75724,
			"target":34963
		},
		{
			"buffer":0,
			"byteLength":384,
			"byteOffset":75868,
			"target":34962
		},
		{
			"buffer":0,
			"byteLength":384,
			"byteOffset":76252,
			"target":34962
		},
		{
			"buffer":0,
			"byteLength":256,
			"byteOffset":76636,
			"target":34962
		}
	],
	"samplers":[
		{
			"magFilter":9729,
			"minFilter":9987
		}
	],
	"buffers":[
		{
			"byteLength":76892,
			"uri":"floor1-s0.bin"
		}
	]
}
