{
	"asset":{
		"generator":"Khronos glTF Blender I/O v4.5.47",
		"version":"2.0"
	},
	"scene":0,
	"scenes":[
		{
			"name":"Scene",
			"nodes":[
				0
			]
		}
	],
	"nodes":[
		{
			"mesh":0,
			"name":"floor2-s0-collision"
		}
	],
	"meshes":[
		{
			"name":"Mesh.093",
			"primitives":[
				{
					"attributes":{
						"POSITION":0,
						"NORMAL":1,
						"TEXCOORD_0":2
					},
					"indices":3
				}
			]
		}
	],
	"accessors":[
		{
			"bufferView":0,
			"componentType":5126,
			"count":322,
			"max":[
				4.719435214996338,
				2.215762138366699,
				5.65430212020874
			],
			"min":[
				-5.330478191375732,
				-1.089546799659729,
				-5.838813304901123
			],
			"type":"VEC3"
		},
		{
			"bufferView":1,
			"componentType":5126,
			"count":322,
			"type":"VEC3"
		},
		{
			"bufferView":2,
			"componentType":5126,
			"count":322,
			"type":"VEC2"
		},
		{
			"bufferView":3,
			"componentType":5123,
			"count":486,
			"type":"SCALAR"
		}
	],
	"bufferViews":[
		{
			"buffer":0,
			"byteLength":3864,
			"byteOffset":0,
			"target":34962
		},
		{
			"buffer":0,
			"byteLength":3864,
			"byteOffset":3864,
			"target":34962
		},
		{
			"buffer":0,
			"byteLength":2576,
			"byteOffset":7728,
			"target":34962
		},
		{
			"buffer":0,
			"byteLength":972,
			"byteOffset":10304,
			"target":34963
		}
	],
	"buffers":[
		{
			"byteLength":11276,
			"uri":"floor2-s0-collision.bin"
		}
	]
}
