{
	"asset":{
		"generator":"Khronos glTF Blender I/O v4.4.56",
		"version":"2.0"
	},
	"extensionsUsed":[
		"KHR_materials_specular"
	],
	"scene":0,
	"scenes":[
		{
			"name":"Scene",
			"nodes":[
				0,
				1,
				2,
				3,
				4,
				5,
				6,
				7,
				8,
				9,
				10,
				11,
				12
			]
		}
	],
	"nodes":[
		{
			"mesh":0,
			"name":"Box380"
		},
		{
			"mesh":1,
			"name":"Box423"
		},
		{
			"mesh":2,
			"name":"Box397"
		},
		{
			"mesh":3,
			"name":"Plane138"
		},
		{
			"mesh":4,
			"name":"Plane139"
		},
		{
			"mesh":5,
			"name":"Plane140"
		},
		{
			"mesh":6,
			"name":"Box432"
		},
		{
			"mesh":7,
			"name":"Box433"
		},
		{
			"mesh":8,
			"name":"Box434"
		},
		{
			"mesh":9,
			"name":"Plane139.001"
		},
		{
			"mesh":10,
			"name":"Plane139.002"
		},
		{
			"mesh":11,
			"name":"Plane139.003"
		},
		{
			"mesh":12,
			"name":"Plane139.004"
		}
	],
	"materials":[
		{
			"doubleSided":true,
			"extensions":{
				"KHR_materials_specular":{
					"specularFactor":0
				}
			},
			"name":"corrogated",
			"normalTexture":{
				"index":0
			},
			"pbrMetallicRoughness":{
				"baseColorTexture":{
					"index":1
				},
				"metallicRoughnessTexture":{
					"index":2
				}
			}
		},
		{
			"doubleSided":true,
			"extensions":{
				"KHR_materials_specular":{
					"specularFactor":0
				}
			},
			"name":"facade",
			"normalTexture":{
				"index":3
			},
			"pbrMetallicRoughness":{
				"baseColorTexture":{
					"index":4
				},
				"metallicRoughnessTexture":{
					"index":5
				}
			}
		},
		{
			"doubleSided":true,
			"extensions":{
				"KHR_materials_specular":{
					"specularFactor":0
				}
			},
			"name":"metal-rusty",
			"normalTexture":{
				"index":6
			},
			"pbrMetallicRoughness":{
				"baseColorTexture":{
					"index":7
				},
				"metallicRoughnessTexture":{
					"index":8
				}
			}
		},
		{
			"doubleSided":true,
			"extensions":{
				"KHR_materials_specular":{
					"specularFactor":0
				}
			},
			"name":"floor",
			"pbrMetallicRoughness":{
				"baseColorFactor":[
					0.4528665542602539,
					0.4528665542602539,
					0.4528665542602539,
					1
				],
				"metallicFactor":0
			}
		},
		{
			"doubleSided":true,
			"name":"window-frames",
			"pbrMetallicRoughness":{
				"baseColorFactor":[
					0.8233345150947571,
					0.8233345150947571,
					0.8233345150947571,
					1
				],
				"metallicFactor":0
			}
		},
		{
			"doubleSided":true,
			"extensions":{
				"KHR_materials_specular":{
					"specularFactor":0
				}
			},
			"name":"inner-walls",
			"normalTexture":{
				"index":9
			},
			"pbrMetallicRoughness":{
				"baseColorTexture":{
					"index":10
				},
				"metallicRoughnessTexture":{
					"index":11
				}
			}
		},
		{
			"doubleSided":true,
			"extensions":{
				"KHR_materials_specular":{
					"specularColorFactor":[
						2.0,
						2.0,
						2.0
					]
				}
			},
			"name":"concrete-stairs",
			"normalTexture":{
				"index":12
			},
			"pbrMetallicRoughness":{
				"baseColorTexture":{
					"index":13
				},
				"metallicRoughnessTexture":{
					"index":14
				}
			}
		}
	],
	"meshes":[
		{
			"name":"Mesh.070",
			"primitives":[
				{
					"attributes":{
						"POSITION":0,
						"NORMAL":1,
						"TEXCOORD_0":2
					},
					"indices":3,
					"material":0
				}
			]
		},
		{
			"name":"Mesh.078",
			"primitives":[
				{
					"attributes":{
						"POSITION":4,
						"NORMAL":5,
						"TEXCOORD_0":6
					},
					"indices":7,
					"material":1
				}
			]
		},
		{
			"name":"Mesh.075",
			"primitives":[
				{
					"attributes":{
						"POSITION":8,
						"NORMAL":9,
						"TEXCOORD_0":10
					},
					"indices":11,
					"material":2
				}
			]
		},
		{
			"name":"Mesh.071",
			"primitives":[
				{
					"attributes":{
						"POSITION":12,
						"NORMAL":13,
						"TEXCOORD_0":14
					},
					"indices":15,
					"material":3
				}
			]
		},
		{
			"name":"Mesh.072",
			"primitives":[
				{
					"attributes":{
						"POSITION":16,
						"NORMAL":17,
						"TEXCOORD_0":18
					},
					"indices":19,
					"material":4
				}
			]
		},
		{
			"name":"Mesh.073",
			"primitives":[
				{
					"attributes":{
						"POSITION":20,
						"NORMAL":21,
						"TEXCOORD_0":22
					},
					"indices":23,
					"material":5
				}
			]
		},
		{
			"name":"Mesh.085",
			"primitives":[
				{
					"attributes":{
						"POSITION":24,
						"NORMAL":25,
						"TEXCOORD_0":26
					},
					"indices":27,
					"material":5
				}
			]
		},
		{
			"name":"Mesh.086",
			"primitives":[
				{
					"attributes":{
						"POSITION":28,
						"NORMAL":29,
						"TEXCOORD_0":30
					},
					"indices":31,
					"material":6
				}
			]
		},
		{
			"name":"Mesh.087",
			"primitives":[
				{
					"attributes":{
						"POSITION":32,
						"NORMAL":33,
						"TEXCOORD_0":34
					},
					"indices":35,
					"material":2
				}
			]
		},
		{
			"name":"Mesh.173",
			"primitives":[
				{
					"attributes":{
						"POSITION":36,
						"NORMAL":37,
						"TEXCOORD_0":38
					},
					"indices":39,
					"material":4
				}
			]
		},
		{
			"name":"Mesh.174",
			"primitives":[
				{
					"attributes":{
						"POSITION":40,
						"NORMAL":41,
						"TEXCOORD_0":42
					},
					"indices":39,
					"material":4
				}
			]
		},
		{
			"name":"Mesh.175",
			"primitives":[
				{
					"attributes":{
						"POSITION":43,
						"NORMAL":44,
						"TEXCOORD_0":45
					},
					"indices":46
				}
			]
		},
		{
			"name":"Mesh.176",
			"primitives":[
				{
					"attributes":{
						"POSITION":47,
						"NORMAL":48,
						"TEXCOORD_0":49
					},
					"indices":50
				}
			]
		}
	],
	"textures":[
		{
			"sampler":0,
			"source":0
		},
		{
			"sampler":0,
			"source":1
		},
		{
			"sampler":0,
			"source":2
		},
		{
			"sampler":0,
			"source":3
		},
		{
			"sampler":0,
			"source":4
		},
		{
			"sampler":0,
			"source":5
		},
		{
			"sampler":0,
			"source":6
		},
		{
			"sampler":0,
			"source":7
		},
		{
			"sampler":0,
			"source":8
		},
		{
			"sampler":0,
			"source":9
		},
		{
			"sampler":0,
			"source":10
		},
		{
			"sampler":0,
			"source":11
		},
		{
			"sampler":0,
			"source":12
		},
		{
			"sampler":0,
			"source":13
		},
		{
			"sampler":0,
			"source":14
		}
	],
	"images":[
		{
			"mimeType":"image/jpeg",
			"name":"material_normal.bmp",
			"uri":"textures/material_normal_bmp.jpg"
		},
		{
			"mimeType":"image/jpeg",
			"name":"material_diffuseOriginal.bmp",
			"uri":"textures/material_diffuseOriginal_bmp.jpg"
		},
		{
			"mimeType":"image/jpeg",
			"name":"material_metallic.bmp-material_smoothness.bmp",
			"uri":"textures/material_metallic_bmp-material_smoothness_bmp.jpg"
		},
		{
			"mimeType":"image/jpeg",
			"name":"material_normal-4",
			"uri":"textures/material_normal-4.jpg"
		},
		{
			"mimeType":"image/jpeg",
			"name":"Texturelabs_Concrete_189M",
			"uri":"textures/Texturelabs_Concrete_189M.jpg"
		},
		{
			"mimeType":"image/jpeg",
			"name":"material_metallic-material_smoothness",
			"uri":"textures/material_metallic-material_smoothness.jpg"
		},
		{
			"mimeType":"image/jpeg",
			"name":"material_normal",
			"uri":"textures/material_normal.jpg"
		},
		{
			"mimeType":"image/jpeg",
			"name":"material_diffuseOriginal",
			"uri":"textures/material_diffuseOriginal.jpg"
		},
		{
			"mimeType":"image/jpeg",
			"name":"material_metallic.png-material_smoothness.png",
			"uri":"textures/material_metallic_png-material_smoothness_png.jpg"
		},
		{
			"mimeType":"image/jpeg",
			"name":"material_normal-2",
			"uri":"textures/material_normal-2.jpg"
		},
		{
			"mimeType":"image/jpeg",
			"name":"Texturelabs_Concrete_149M",
			"uri":"textures/Texturelabs_Concrete_149M.jpg"
		},
		{
			"mimeType":"image/jpeg",
			"name":"material_metallic_png-material_smoothness_png-2",
			"uri":"textures/material_metallic_png-material_smoothness_png-2.jpg"
		},
		{
			"mimeType":"image/jpeg",
			"name":"material_normal",
			"uri":"textures/material_normal-1.jpg"
		},
		{
			"mimeType":"image/jpeg",
			"name":"material_diffuseOriginal",
			"uri":"textures/material_diffuseOriginal-1.jpg"
		},
		{
			"mimeType":"image/jpeg",
			"name":"material_metallic-material_smoothness",
			"uri":"textures/material_metallic-material_smoothness-1.jpg"
		}
	],
	"accessors":[
		{
			"bufferView":0,
			"componentType":5126,
			"count":58,
			"max":[
				1.0155727863311768,
				-0.31241297721862793,
				5.613805294036865
			],
			"min":[
				-2.3430559635162354,
				-1.3013123273849487,
				5.2946977615356445
			],
			"type":"VEC3"
		},
		{
			"bufferView":1,
			"componentType":5126,
			"count":58,
			"type":"VEC3"
		},
		{
			"bufferView":2,
			"componentType":5126,
			"count":58,
			"type":"VEC2"
		},
		{
			"bufferView":3,
			"componentType":5123,
			"count":132,
			"type":"SCALAR"
		},
		{
			"bufferView":4,
			"componentType":5126,
			"count":352,
			"max":[
				4.265646934509277,
				1.3180124759674072,
				5.561106204986572
			],
			"min":[
				-2.3978590965270996,
				-1.2855044603347778,
				-5.731000900268555
			],
			"type":"VEC3"
		},
		{
			"bufferView":5,
			"componentType":5126,
			"count":352,
			"type":"VEC3"
		},
		{
			"bufferView":6,
			"componentType":5126,
			"count":352,
			"type":"VEC2"
		},
		{
			"bufferView":7,
			"componentType":5123,
			"count":768,
			"type":"SCALAR"
		},
		{
			"bufferView":8,
			"componentType":5126,
			"count":172,
			"max":[
				3.2178094387054443,
				0.3211439251899719,
				5.603233337402344
			],
			"min":[
				-1.183072566986084,
				-0.9881341457366943,
				-5.773129463195801
			],
			"type":"VEC3"
		},
		{
			"bufferView":9,
			"componentType":5126,
			"count":172,
			"type":"VEC3"
		},
		{
			"bufferView":10,
			"componentType":5126,
			"count":172,
			"type":"VEC2"
		},
		{
			"bufferView":11,
			"componentType":5123,
			"count":288,
			"type":"SCALAR"
		},
		{
			"bufferView":12,
			"componentType":5126,
			"count":20,
			"max":[
				4.334263801574707,
				-1.1358572244644165,
				5.461606025695801
			],
			"min":[
				-2.345656394958496,
				-1.2758615016937256,
				-5.628176689147949
			],
			"type":"VEC3"
		},
		{
			"bufferView":13,
			"componentType":5126,
			"count":20,
			"type":"VEC3"
		},
		{
			"bufferView":14,
			"componentType":5126,
			"count":20,
			"type":"VEC2"
		},
		{
			"bufferView":15,
			"componentType":5123,
			"count":36,
			"type":"SCALAR"
		},
		{
			"bufferView":16,
			"componentType":5126,
			"count":120,
			"max":[
				0.762965202331543,
				0.9676136374473572,
				4.557161331176758
			],
			"min":[
				-2.069922685623169,
				-1.1940655708312988,
				4.507160186767578
			],
			"type":"VEC3"
		},
		{
			"bufferView":17,
			"componentType":5126,
			"count":120,
			"type":"VEC3"
		},
		{
			"bufferView":18,
			"componentType":5126,
			"count":120,
			"type":"VEC2"
		},
		{
			"bufferView":19,
			"componentType":5123,
			"count":288,
			"type":"SCALAR"
		},
		{
			"bufferView":20,
			"componentType":5126,
			"count":169,
			"max":[
				4.35802698135376,
				1.2955173254013062,
				5.522649765014648
			],
			"min":[
				-2.3431029319763184,
				-1.269717812538147,
				-5.62525749206543
			],
			"type":"VEC3"
		},
		{
			"bufferView":21,
			"componentType":5126,
			"count":169,
			"type":"VEC3"
		},
		{
			"bufferView":22,
			"componentType":5126,
			"count":169,
			"type":"VEC2"
		},
		{
			"bufferView":23,
			"componentType":5123,
			"count":309,
			"type":"SCALAR"
		},
		{
			"bufferView":24,
			"componentType":5126,
			"count":12,
			"max":[
				1.057334065437317,
				0.1590031534433365,
				-4.020857334136963
			],
			"min":[
				-2.2320988178253174,
				-0.03694438189268112,
				-5.551686763763428
			],
			"type":"VEC3"
		},
		{
			"bufferView":25,
			"componentType":5126,
			"count":12,
			"type":"VEC3"
		},
		{
			"bufferView":26,
			"componentType":5126,
			"count":12,
			"type":"VEC2"
		},
		{
			"bufferView":27,
			"componentType":5123,
			"count":18,
			"type":"SCALAR"
		},
		{
			"bufferView":28,
			"componentType":5126,
			"count":330,
			"max":[
				0.9476533532142639,
				1.3712773323059082,
				-1.3390084505081177
			],
			"min":[
				-2.15216064453125,
				-1.2595698833465576,
				-4.158699989318848
			],
			"type":"VEC3"
		},
		{
			"bufferView":29,
			"componentType":5126,
			"count":330,
			"type":"VEC3"
		},
		{
			"bufferView":30,
			"componentType":5126,
			"count":330,
			"type":"VEC2"
		},
		{
			"bufferView":31,
			"componentType":5123,
			"count":648,
			"type":"SCALAR"
		},
		{
			"bufferView":32,
			"componentType":5126,
			"count":336,
			"max":[
				-0.3516390919685364,
				1.9734091758728027,
				-1.3149584531784058
			],
			"min":[
				-0.8593866229057312,
				-1.171186089515686,
				-4.06453275680542
			],
			"type":"VEC3"
		},
		{
			"bufferView":33,
			"componentType":5126,
			"count":336,
			"type":"VEC3"
		},
		{
			"bufferView":34,
			"componentType":5126,
			"count":336,
			"type":"VEC2"
		},
		{
			"bufferView":35,
			"componentType":5123,
			"count":552,
			"type":"SCALAR"
		},
		{
			"bufferView":36,
			"componentType":5126,
			"count":32,
			"max":[
				-0.1857479214668274,
				-0.27512484788894653,
				-5.621949672698975
			],
			"min":[
				-1.2007137537002563,
				-0.9843739867210388,
				-5.671950340270996
			],
			"type":"VEC3"
		},
		{
			"bufferView":37,
			"componentType":5126,
			"count":32,
			"type":"VEC3"
		},
		{
			"bufferView":38,
			"componentType":5126,
			"count":32,
			"type":"VEC2"
		},
		{
			"bufferView":39,
			"componentType":5123,
			"count":72,
			"type":"SCALAR"
		},
		{
			"bufferView":40,
			"componentType":5126,
			"count":32,
			"max":[
				-0.1857479214668274,
				0.9969052076339722,
				-5.621949672698975
			],
			"min":[
				-1.2007137537002563,
				0.2876560688018799,
				-5.671950817108154
			],
			"type":"VEC3"
		},
		{
			"bufferView":41,
			"componentType":5126,
			"count":32,
			"type":"VEC3"
		},
		{
			"bufferView":42,
			"componentType":5126,
			"count":32,
			"type":"VEC2"
		},
		{
			"bufferView":43,
			"componentType":5126,
			"count":80,
			"max":[
				3.225972890853882,
				0.965056300163269,
				5.502055644989014
			],
			"min":[
				1.9937891960144043,
				-0.6621583104133606,
				5.452054977416992
			],
			"type":"VEC3"
		},
		{
			"bufferView":44,
			"componentType":5126,
			"count":80,
			"type":"VEC3"
		},
		{
			"bufferView":45,
			"componentType":5126,
			"count":80,
			"type":"VEC2"
		},
		{
			"bufferView":46,
			"componentType":5123,
			"count":180,
			"type":"SCALAR"
		},
		{
			"bufferView":47,
			"componentType":5126,
			"count":80,
			"max":[
				3.1826257705688477,
				0.9638314843177795,
				-5.621451377868652
			],
			"min":[
				1.9504417181015015,
				-0.6633833050727844,
				-5.671452045440674
			],
			"type":"VEC3"
		},
		{
			"bufferView":48,
			"componentType":5126,
			"count":80,
			"type":"VEC3"
		},
		{
			"bufferView":49,
			"componentType":5126,
			"count":80,
			"type":"VEC2"
		},
		{
			"bufferView":50,
			"componentType":5123,
			"count":180,
			"type":"SCALAR"
		}
	],
	"bufferViews":[
		{
			"buffer":0,
			"byteLength":696,
			"byteOffset":0,
			"target":34962
		},
		{
			"buffer":0,
			"byteLength":696,
			"byteOffset":696,
			"target":34962
		},
		{
			"buffer":0,
			"byteLength":464,
			"byteOffset":1392,
			"target":34962
		},
		{
			"buffer":0,
			"byteLength":264,
			"byteOffset":1856,
			"target":34963
		},
		{
			"buffer":0,
			"byteLength":4224,
			"byteOffset":2120,
			"target":34962
		},
		{
			"buffer":0,
			"byteLength":4224,
			"byteOffset":6344,
			"target":34962
		},
		{
			"buffer":0,
			"byteLength":2816,
			"byteOffset":10568,
			"target":34962
		},
		{
			"buffer":0,
			"byteLength":1536,
			"byteOffset":13384,
			"target":34963
		},
		{
			"buffer":0,
			"byteLength":2064,
			"byteOffset":14920,
			"target":34962
		},
		{
			"buffer":0,
			"byteLength":2064,
			"byteOffset":16984,
			"target":34962
		},
		{
			"buffer":0,
			"byteLength":1376,
			"byteOffset":19048,
			"target":34962
		},
		{
			"buffer":0,
			"byteLength":576,
			"byteOffset":20424,
			"target":34963
		},
		{
			"buffer":0,
			"byteLength":240,
			"byteOffset":21000,
			"target":34962
		},
		{
			"buffer":0,
			"byteLength":240,
			"byteOffset":21240,
			"target":34962
		},
		{
			"buffer":0,
			"byteLength":160,
			"byteOffset":21480,
			"target":34962
		},
		{
			"buffer":0,
			"byteLength":72,
			"byteOffset":21640,
			"target":34963
		},
		{
			"buffer":0,
			"byteLength":1440,
			"byteOffset":21712,
			"target":34962
		},
		{
			"buffer":0,
			"byteLength":1440,
			"byteOffset":23152,
			"target":34962
		},
		{
			"buffer":0,
			"byteLength":960,
			"byteOffset":24592,
			"target":34962
		},
		{
			"buffer":0,
			"byteLength":576,
			"byteOffset":25552,
			"target":34963
		},
		{
			"buffer":0,
			"byteLength":2028,
			"byteOffset":26128,
			"target":34962
		},
		{
			"buffer":0,
			"byteLength":2028,
			"byteOffset":28156,
			"target":34962
		},
		{
			"buffer":0,
			"byteLength":1352,
			"byteOffset":30184,
			"target":34962
		},
		{
			"buffer":0,
			"byteLength":618,
			"byteOffset":31536,
			"target":34963
		},
		{
			"buffer":0,
			"byteLength":144,
			"byteOffset":32156,
			"target":34962
		},
		{
			"buffer":0,
			"byteLength":144,
			"byteOffset":32300,
			"target":34962
		},
		{
			"buffer":0,
			"byteLength":96,
			"byteOffset":32444,
			"target":34962
		},
		{
			"buffer":0,
			"byteLength":36,
			"byteOffset":32540,
			"target":34963
		},
		{
			"buffer":0,
			"byteLength":3960,
			"byteOffset":32576,
			"target":34962
		},
		{
			"buffer":0,
			"byteLength":3960,
			"byteOffset":36536,
			"target":34962
		},
		{
			"buffer":0,
			"byteLength":2640,
			"byteOffset":40496,
			"target":34962
		},
		{
			"buffer":0,
			"byteLength":1296,
			"byteOffset":43136,
			"target":34963
		},
		{
			"buffer":0,
			"byteLength":4032,
			"byteOffset":44432,
			"target":34962
		},
		{
			"buffer":0,
			"byteLength":4032,
			"byteOffset":48464,
			"target":34962
		},
		{
			"buffer":0,
			"byteLength":2688,
			"byteOffset":52496,
			"target":34962
		},
		{
			"buffer":0,
			"byteLength":1104,
			"byteOffset":55184,
			"target":34963
		},
		{
			"buffer":0,
			"byteLength":384,
			"byteOffset":56288,
			"target":34962
		},
		{
			"buffer":0,
			"byteLength":384,
			"byteOffset":56672,
			"target":34962
		},
		{
			"buffer":0,
			"byteLength":256,
			"byteOffset":57056,
			"target":34962
		},
		{
			"buffer":0,
			"byteLength":144,
			"byteOffset":57312,
			"target":34963
		},
		{
			"buffer":0,
			"byteLength":384,
			"byteOffset":57456,
			"target":34962
		},
		{
			"buffer":0,
			"byteLength":384,
			"byteOffset":57840,
			"target":34962
		},
		{
			"buffer":0,
			"byteLength":256,
			"byteOffset":58224,
			"target":34962
		},
		{
			"buffer":0,
			"byteLength":960,
			"byteOffset":58480,
			"target":34962
		},
		{
			"buffer":0,
			"byteLength":960,
			"byteOffset":59440,
			"target":34962
		},
		{
			"buffer":0,
			"byteLength":640,
			"byteOffset":60400,
			"target":34962
		},
		{
			"buffer":0,
			"byteLength":360,
			"byteOffset":61040,
			"target":34963
		},
		{
			"buffer":0,
			"byteLength":960,
			"byteOffset":61400,
			"target":34962
		},
		{
			"buffer":0,
			"byteLength":960,
			"byteOffset":62360,
			"target":34962
		},
		{
			"buffer":0,
			"byteLength":640,
			"byteOffset":63320,
			"target":34962
		},
		{
			"buffer":0,
			"byteLength":360,
			"byteOffset":63960,
			"target":34963
		}
	],
	"samplers":[
		{
			"magFilter":9729,
			"minFilter":9987
		}
	],
	"buffers":[
		{
			"byteLength":64320,
			"uri":"floor2-s1.bin"
		}
	]
}
