{
	"asset":{
		"generator":"Khronos glTF Blender I/O v4.5.47",
		"version":"2.0"
	},
	"scene":0,
	"scenes":[
		{
			"name":"Scene",
			"nodes":[
				0
			]
		}
	],
	"nodes":[
		{
			"mesh":0,
			"name":"floor2-s1-collision"
		}
	],
	"meshes":[
		{
			"name":"Mesh.094",
			"primitives":[
				{
					"attributes":{
						"POSITION":0,
						"NORMAL":1,
						"TEXCOORD_0":2
					},
					"indices":3
				}
			]
		}
	],
	"accessors":[
		{
			"bufferView":0,
			"componentType":5126,
			"count":266,
			"max":[
				4.271627426147461,
				2.0283901691436768,
				5.596372127532959
			],
			"min":[
				-2.3362650871276855,
				-1.276918649673462,
				-5.827317714691162
			],
			"type":"VEC3"
		},
		{
			"bufferView":1,
			"componentType":5126,
			"count":266,
			"type":"VEC3"
		},
		{
			"bufferView":2,
			"componentType":5126,
			"count":266,
			"type":"VEC2"
		},
		{
			"bufferView":3,
			"componentType":5123,
			"count":402,
			"type":"SCALAR"
		}
	],
	"bufferViews":[
		{
			"buffer":0,
			"byteLength":3192,
			"byteOffset":0,
			"target":34962
		},
		{
			"buffer":0,
			"byteLength":3192,
			"byteOffset":3192,
			"target":34962
		},
		{
			"buffer":0,
			"byteLength":2128,
			"byteOffset":6384,
			"target":34962
		},
		{
			"buffer":0,
			"byteLength":804,
			"byteOffset":8512,
			"target":34963
		}
	],
	"buffers":[
		{
			"byteLength":9316,
			"uri":"floor2-s1-collision.bin"
		}
	]
}
