{
	"asset":{
		"generator":"Khronos glTF Blender I/O v4.5.47",
		"version":"2.0"
	},
	"extensionsUsed":[
		"KHR_materials_specular"
	],
	"scene":0,
	"scenes":[
		{
			"name":"Scene",
			"nodes":[
				0,
				1,
				2
			]
		}
	],
	"nodes":[
		{
			"mesh":0,
			"name":"Line001",
			"rotation":[
				0.7071068286895752,
				0,
				0,
				0.7071068286895752
			],
			"scale":[
				0.9998701810836792,
				0.9998701810836792,
				0.9998701810836792
			],
			"translation":[
				0.1440933346748352,
				3.662240505218506,
				0.0087604820728302
			]
		},
		{
			"mesh":1,
			"name":"Box005",
			"rotation":[
				0.06626739352941513,
				-0.703994870185852,
				-0.703994631767273,
				0.06626731157302856
			],
			"scale":[
				0.9364493489265442,
				1.173370122909546,
				0.9364493489265442
			],
			"translation":[
				0.5610745549201965,
				3.740250587463379,
				0.08880999684333801
			]
		},
		{
			"mesh":2,
			"name":"Box003",
			"rotation":[
				0,
				-0.7071068286895752,
				0,
				0.7071068286895752
			],
			"scale":[
				0.9998701810836792,
				0.9998701810836792,
				0.9998701810836792
			],
			"translation":[
				0.021738827228546143,
				-0.018793940544128418,
				0.0037193596363067627
			]
		}
	],
	"materials":[
		{
			"doubleSided":true,
			"name":"rusty",
			"pbrMetallicRoughness":{
				"baseColorFactor":[
					0.800000011920929,
					0.800000011920929,
					0.800000011920929,
					1
				],
				"metallicFactor":0,
				"roughnessFactor":0.5
			}
		},
		{
			"doubleSided":true,
			"extensions":{
				"KHR_materials_specular":{
					"specularFactor":0
				}
			},
			"name":"self-illumination",
			"pbrMetallicRoughness":{
				"baseColorFactor":[
					0.5882353186607361,
					0.5882353186607361,
					0.5882353186607361,
					1
				],
				"roughnessFactor":0.858578622341156
			}
		},
		{
			"doubleSided":true,
			"name":"inner-walls",
			"pbrMetallicRoughness":{
				"baseColorFactor":[
					0.800000011920929,
					0.800000011920929,
					0.800000011920929,
					1
				],
				"metallicFactor":0,
				"roughnessFactor":0.5
			}
		}
	],
	"meshes":[
		{
			"name":"Mesh.005",
			"primitives":[
				{
					"attributes":{
						"POSITION":0,
						"NORMAL":1,
						"TEXCOORD_0":2
					},
					"indices":3,
					"material":0
				}
			]
		},
		{
			"name":"Mesh.006",
			"primitives":[
				{
					"attributes":{
						"POSITION":4,
						"NORMAL":5,
						"TEXCOORD_0":6
					},
					"indices":7,
					"material":1
				}
			]
		},
		{
			"name":"Mesh.007",
			"primitives":[
				{
					"attributes":{
						"POSITION":8,
						"NORMAL":9,
						"TEXCOORD_0":10
					},
					"indices":11,
					"material":2
				}
			]
		}
	],
	"accessors":[
		{
			"bufferView":0,
			"componentType":5126,
			"count":83,
			"max":[
				0.6079386472702026,
				0.09144927561283112,
				0.1997852325439453
			],
			"min":[
				-0.15009914338588715,
				-0.10010220855474472,
				-0.23836974799633026
			],
			"type":"VEC3"
		},
		{
			"bufferView":1,
			"componentType":5126,
			"count":83,
			"type":"VEC3"
		},
		{
			"bufferView":2,
			"componentType":5126,
			"count":83,
			"type":"VEC2"
		},
		{
			"bufferView":3,
			"componentType":5123,
			"count":156,
			"type":"SCALAR"
		},
		{
			"bufferView":4,
			"componentType":5126,
			"count":32,
			"max":[
				0.2055228352546692,
				0,
				0.05237090587615967
			],
			"min":[
				-0.2055228352546692,
				-0.14190348982810974,
				0.015539141371846199
			],
			"type":"VEC3"
		},
		{
			"bufferView":5,
			"componentType":5126,
			"count":32,
			"type":"VEC3"
		},
		{
			"bufferView":6,
			"componentType":5126,
			"count":32,
			"type":"VEC2"
		},
		{
			"bufferView":7,
			"componentType":5123,
			"count":66,
			"type":"SCALAR"
		},
		{
			"bufferView":8,
			"componentType":5126,
			"count":20,
			"max":[
				0.08010371029376984,
				3.5,
				0.08235883712768555
			],
			"min":[
				-0.0734717845916748,
				0,
				-0.08082789927721024
			],
			"type":"VEC3"
		},
		{
			"bufferView":9,
			"componentType":5126,
			"count":20,
			"type":"VEC3"
		},
		{
			"bufferView":10,
			"componentType":5126,
			"count":20,
			"type":"VEC2"
		},
		{
			"bufferView":11,
			"componentType":5123,
			"count":30,
			"type":"SCALAR"
		}
	],
	"bufferViews":[
		{
			"buffer":0,
			"byteLength":996,
			"byteOffset":0,
			"target":34962
		},
		{
			"buffer":0,
			"byteLength":996,
			"byteOffset":996,
			"target":34962
		},
		{
			"buffer":0,
			"byteLength":664,
			"byteOffset":1992,
			"target":34962
		},
		{
			"buffer":0,
			"byteLength":312,
			"byteOffset":2656,
			"target":34963
		},
		{
			"buffer":0,
			"byteLength":384,
			"byteOffset":2968,
			"target":34962
		},
		{
			"buffer":0,
			"byteLength":384,
			"byteOffset":3352,
			"target":34962
		},
		{
			"buffer":0,
			"byteLength":256,
			"byteOffset":3736,
			"target":34962
		},
		{
			"buffer":0,
			"byteLength":132,
			"byteOffset":3992,
			"target":34963
		},
		{
			"buffer":0,
			"byteLength":240,
			"byteOffset":4124,
			"target":34962
		},
		{
			"buffer":0,
			"byteLength":240,
			"byteOffset":4364,
			"target":34962
		},
		{
			"buffer":0,
			"byteLength":160,
			"byteOffset":4604,
			"target":34962
		},
		{
			"buffer":0,
			"byteLength":60,
			"byteOffset":4764,
			"target":34963
		}
	],
	"buffers":[
		{
			"byteLength":4824,
			"uri":"lantern.bin"
		}
	]
}
