{
	"asset":{
		"generator":"Khronos glTF Blender I/O v4.5.47",
		"version":"2.0"
	},
	"extensionsUsed":[
		"KHR_materials_specular"
	],
	"scene":0,
	"scenes":[
		{
			"name":"Scene",
			"nodes":[
				0,
				1,
				2,
				3,
				4
			]
		}
	],
	"nodes":[
		{
			"mesh":0,
			"name":"Box008"
		},
		{
			"mesh":1,
			"name":"Box049"
		},
		{
			"mesh":2,
			"name":"Sphere001"
		},
		{
			"mesh":3,
			"name":"Line006"
		},
		{
			"mesh":4,
			"name":"Box052"
		}
	],
	"materials":[
		{
			"doubleSided":true,
			"extensions":{
				"KHR_materials_specular":{
					"specularFactor":0
				}
			},
			"name":"black-metal-base",
			"pbrMetallicRoughness":{
				"baseColorFactor":[
					0.5882353186607361,
					0.5882353186607361,
					0.5882353186607361,
					1
				],
				"roughnessFactor":0.858578622341156
			}
		}
	],
	"meshes":[
		{
			"name":"Mesh.008",
			"primitives":[
				{
					"attributes":{
						"POSITION":0,
						"NORMAL":1,
						"TEXCOORD_0":2
					},
					"indices":3
				}
			]
		},
		{
			"name":"Mesh.009",
			"primitives":[
				{
					"attributes":{
						"POSITION":4,
						"NORMAL":5,
						"TEXCOORD_0":6
					},
					"indices":7,
					"material":0
				}
			]
		},
		{
			"name":"Mesh.010",
			"primitives":[
				{
					"attributes":{
						"POSITION":8,
						"NORMAL":9,
						"TEXCOORD_0":10
					},
					"indices":11
				}
			]
		},
		{
			"name":"Mesh.011",
			"primitives":[
				{
					"attributes":{
						"POSITION":12,
						"NORMAL":13,
						"TEXCOORD_0":14
					},
					"indices":15,
					"material":0
				}
			]
		},
		{
			"name":"Mesh.012",
			"primitives":[
				{
					"attributes":{
						"POSITION":16,
						"NORMAL":17,
						"TEXCOORD_0":18
					},
					"indices":19
				}
			]
		}
	],
	"accessors":[
		{
			"bufferView":0,
			"componentType":5126,
			"count":2636,
			"max":[
				3.5841994285583496,
				19.194290161132812,
				3.111945152282715
			],
			"min":[
				-2.885514497756958,
				-0.09716874361038208,
				-4.015531539916992
			],
			"type":"VEC3"
		},
		{
			"bufferView":1,
			"componentType":5126,
			"count":2636,
			"type":"VEC3"
		},
		{
			"bufferView":2,
			"componentType":5126,
			"count":2636,
			"type":"VEC2"
		},
		{
			"bufferView":3,
			"componentType":5123,
			"count":3978,
			"type":"SCALAR"
		},
		{
			"bufferView":4,
			"componentType":5126,
			"count":308,
			"max":[
				3.614359140396118,
				19.400436401367188,
				3.147857666015625
			],
			"min":[
				-2.9122378826141357,
				0.48839569091796875,
				-3.390425682067871
			],
			"type":"VEC3"
		},
		{
			"bufferView":5,
			"componentType":5126,
			"count":308,
			"type":"VEC3"
		},
		{
			"bufferView":6,
			"componentType":5126,
			"count":308,
			"type":"VEC2"
		},
		{
			"bufferView":7,
			"componentType":5123,
			"count":552,
			"type":"SCALAR"
		},
		{
			"bufferView":8,
			"componentType":5126,
			"count":322,
			"max":[
				3.7678110599517822,
				26.557607650756836,
				3.536855936050415
			],
			"min":[
				-3.354865550994873,
				19.4349308013916,
				-3.768993616104126
			],
			"type":"VEC3"
		},
		{
			"bufferView":9,
			"componentType":5126,
			"count":322,
			"type":"VEC3"
		},
		{
			"bufferView":10,
			"componentType":5126,
			"count":322,
			"type":"VEC2"
		},
		{
			"bufferView":11,
			"componentType":5123,
			"count":462,
			"type":"SCALAR"
		},
		{
			"bufferView":12,
			"componentType":5126,
			"count":736,
			"max":[
				2.8333382606506348,
				19.440563201904297,
				2.3626043796539307
			],
			"min":[
				-2.145693778991699,
				0.602787971496582,
				-2.6224746704101562
			],
			"type":"VEC3"
		},
		{
			"bufferView":13,
			"componentType":5126,
			"count":736,
			"type":"VEC3"
		},
		{
			"bufferView":14,
			"componentType":5126,
			"count":736,
			"type":"VEC2"
		},
		{
			"bufferView":15,
			"componentType":5123,
			"count":1092,
			"type":"SCALAR"
		},
		{
			"bufferView":16,
			"componentType":5126,
			"count":96,
			"max":[
				2.9871697425842285,
				0.6242611408233643,
				2.5331835746765137
			],
			"min":[
				-2.279477119445801,
				-1.371596097946167,
				-2.7844319343566895
			],
			"type":"VEC3"
		},
		{
			"bufferView":17,
			"componentType":5126,
			"count":96,
			"type":"VEC3"
		},
		{
			"bufferView":18,
			"componentType":5126,
			"count":96,
			"type":"VEC2"
		},
		{
			"bufferView":19,
			"componentType":5123,
			"count":144,
			"type":"SCALAR"
		}
	],
	"bufferViews":[
		{
			"buffer":0,
			"byteLength":31632,
			"byteOffset":0,
			"target":34962
		},
		{
			"buffer":0,
			"byteLength":31632,
			"byteOffset":31632,
			"target":34962
		},
		{
			"buffer":0,
			"byteLength":21088,
			"byteOffset":63264,
			"target":34962
		},
		{
			"buffer":0,
			"byteLength":7956,
			"byteOffset":84352,
			"target":34963
		},
		{
			"buffer":0,
			"byteLength":3696,
			"byteOffset":92308,
			"target":34962
		},
		{
			"buffer":0,
			"byteLength":3696,
			"byteOffset":96004,
			"target":34962
		},
		{
			"buffer":0,
			"byteLength":2464,
			"byteOffset":99700,
			"target":34962
		},
		{
			"buffer":0,
			"byteLength":1104,
			"byteOffset":102164,
			"target":34963
		},
		{
			"buffer":0,
			"byteLength":3864,
			"byteOffset":103268,
			"target":34962
		},
		{
			"buffer":0,
			"byteLength":3864,
			"byteOffset":107132,
			"target":34962
		},
		{
			"buffer":0,
			"byteLength":2576,
			"byteOffset":110996,
			"target":34962
		},
		{
			"buffer":0,
			"byteLength":924,
			"byteOffset":113572,
			"target":34963
		},
		{
			"buffer":0,
			"byteLength":8832,
			"byteOffset":114496,
			"target":34962
		},
		{
			"buffer":0,
			"byteLength":8832,
			"byteOffset":123328,
			"target":34962
		},
		{
			"buffer":0,
			"byteLength":5888,
			"byteOffset":132160,
			"target":34962
		},
		{
			"buffer":0,
			"byteLength":2184,
			"byteOffset":138048,
			"target":34963
		},
		{
			"buffer":0,
			"byteLength":1152,
			"byteOffset":140232,
			"target":34962
		},
		{
			"buffer":0,
			"byteLength":1152,
			"byteOffset":141384,
			"target":34962
		},
		{
			"buffer":0,
			"byteLength":768,
			"byteOffset":142536,
			"target":34962
		},
		{
			"buffer":0,
			"byteLength":288,
			"byteOffset":143304,
			"target":34963
		}
	],
	"buffers":[
		{
			"byteLength":143592,
			"uri":"tower.bin"
		}
	]
}
