{
	"asset":{
		"generator":"Khronos glTF Blender I/O v4.5.47",
		"version":"2.0"
	},
	"extensionsUsed":[
		"KHR_materials_specular"
	],
	"scene":0,
	"scenes":[
		{
			"name":"Scene",
			"nodes":[
				0
			]
		}
	],
	"nodes":[
		{
			"mesh":0,
			"name":"Plane475.001"
		}
	],
	"materials":[
		{
			"doubleSided":true,
			"extensions":{
				"KHR_materials_specular":{
					"specularFactor":0
				}
			},
			"name":"terrain",
			"pbrMetallicRoughness":{
				"baseColorFactor":[
					0.5882353186607361,
					0.5882353186607361,
					0.5882353186607361,
					1
				]
			}
		}
	],
	"meshes":[
		{
			"name":"Mesh.001",
			"primitives":[
				{
					"attributes":{
						"POSITION":0,
						"NORMAL":1,
						"TEXCOORD_0":2
					},
					"indices":3,
					"material":0
				}
			]
		}
	],
	"accessors":[
		{
			"bufferView":0,
			"componentType":5126,
			"count":11018,
			"max":[
				753.472412109375,
				106.94697570800781,
				663.2348022460938
			],
			"min":[
				-731.3973388671875,
				-0.6092320084571838,
				-646.3511962890625
			],
			"type":"VEC3"
		},
		{
			"bufferView":1,
			"componentType":5126,
			"count":11018,
			"type":"VEC3"
		},
		{
			"bufferView":2,
			"componentType":5126,
			"count":11018,
			"type":"VEC2"
		},
		{
			"bufferView":3,
			"componentType":5123,
			"count":61122,
			"type":"SCALAR"
		}
	],
	"bufferViews":[
		{
			"buffer":0,
			"byteLength":132216,
			"byteOffset":0,
			"target":34962
		},
		{
			"buffer":0,
			"byteLength":132216,
			"byteOffset":132216,
			"target":34962
		},
		{
			"buffer":0,
			"byteLength":88144,
			"byteOffset":264432,
			"target":34962
		},
		{
			"buffer":0,
			"byteLength":122244,
			"byteOffset":352576,
			"target":34963
		}
	],
	"buffers":[
		{
			"byteLength":474820,
			"uri":"terrain-flatter.bin"
		}
	]
}
