{
	"asset":{
		"generator":"Khronos glTF Blender I/O v4.5.47",
		"version":"2.0"
	},
	"extensionsUsed":[
		"KHR_materials_specular"
	],
	"scene":0,
	"scenes":[
		{
			"name":"Scene",
			"nodes":[
				0
			]
		}
	],
	"nodes":[
		{
			"mesh":0,
			"name":"Plane475.001"
		}
	],
	"materials":[
		{
			"doubleSided":true,
			"extensions":{
				"KHR_materials_specular":{
					"specularFactor":0
				}
			},
			"name":"terrain",
			"pbrMetallicRoughness":{
				"baseColorFactor":[
					0.5882353186607361,
					0.5882353186607361,
					0.5882353186607361,
					1
				]
			}
		}
	],
	"meshes":[
		{
			"name":"Mesh.001",
			"primitives":[
				{
					"attributes":{
						"POSITION":0,
						"NORMAL":1,
						"TEXCOORD_0":2
					},
					"indices":3,
					"material":0
				}
			]
		}
	],
	"accessors":[
		{
			"bufferView":0,
			"componentType":5126,
			"count":10992,
			"max":[
				753.472412109375,
				272.2223205566406,
				663.2348022460938
			],
			"min":[
				-731.3973388671875,
				-1.5507361888885498,
				-646.3511962890625
			],
			"type":"VEC3"
		},
		{
			"bufferView":1,
			"componentType":5126,
			"count":10992,
			"type":"VEC3"
		},
		{
			"bufferView":2,
			"componentType":5126,
			"count":10992,
			"type":"VEC2"
		},
		{
			"bufferView":3,
			"componentType":5123,
			"count":61122,
			"type":"SCALAR"
		}
	],
	"bufferViews":[
		{
			"buffer":0,
			"byteLength":131904,
			"byteOffset":0,
			"target":34962
		},
		{
			"buffer":0,
			"byteLength":131904,
			"byteOffset":131904,
			"target":34962
		},
		{
			"buffer":0,
			"byteLength":87936,
			"byteOffset":263808,
			"target":34962
		},
		{
			"buffer":0,
			"byteLength":122244,
			"byteOffset":351744,
			"target":34963
		}
	],
	"buffers":[
		{
			"byteLength":473988,
			"uri":"terrain.bin"
		}
	]
}
