{
	"asset":{
		"generator":"Khronos glTF Blender I/O v4.4.56",
		"version":"2.0"
	},
	"extensionsUsed":[
		"KHR_materials_specular"
	],
	"scene":0,
	"scenes":[
		{
			"name":"Scene",
			"nodes":[
				0
			]
		}
	],
	"nodes":[
		{
			"mesh":0,
			"name":"Plane475",
			"rotation":[
				0,
				0.47382229566574097,
				0,
				0.8806204795837402
			],
			"translation":[
				-2.0065648555755615,
				0.6202692985534668,
				0.3245367109775543
			]
		}
	],
	"materials":[
		{
			"doubleSided":true,
			"extensions":{
				"KHR_materials_specular":{
					"specularFactor":0
				}
			},
			"name":"13 - Default",
			"normalTexture":{
				"index":0
			},
			"pbrMetallicRoughness":{
				"baseColorTexture":{
					"index":1
				},
				"metallicRoughnessTexture":{
					"index":2
				}
			}
		}
	],
	"meshes":[
		{
			"name":"Mesh.904",
			"primitives":[
				{
					"attributes":{
						"POSITION":0,
						"NORMAL":1,
						"TEXCOORD_0":2
					},
					"indices":3,
					"material":0
				}
			]
		}
	],
	"textures":[
		{
			"sampler":0,
			"source":0
		},
		{
			"sampler":0,
			"source":1
		},
		{
			"sampler":0,
			"source":2
		}
	],
	"images":[
		{
			"mimeType":"image/png",
			"name":"material_normal",
			"uri":"textures/material_normal.png"
		},
		{
			"mimeType":"image/png",
			"name":"material_diffuseOriginal",
			"uri":"textures/material_diffuseOriginal.png"
		},
		{
			"mimeType":"image/png",
			"name":"material_metallic-material_smoothness",
			"uri":"textures/material_metallic-material_smoothness.png"
		}
	],
	"accessors":[
		{
			"bufferView":0,
			"componentType":5126,
			"count":48986,
			"max":[
				954.2819213867188,
				279.3586120605469,
				995.7122802734375
			],
			"min":[
				-953.4557495117188,
				-2.7330360412597656,
				-964.996337890625
			],
			"type":"VEC3"
		},
		{
			"bufferView":1,
			"componentType":5126,
			"count":48986,
			"type":"VEC3"
		},
		{
			"bufferView":2,
			"componentType":5126,
			"count":48986,
			"type":"VEC2"
		},
		{
			"bufferView":3,
			"componentType":5123,
			"count":61122,
			"type":"SCALAR"
		}
	],
	"bufferViews":[
		{
			"buffer":0,
			"byteLength":587832,
			"byteOffset":0,
			"target":34962
		},
		{
			"buffer":0,
			"byteLength":587832,
			"byteOffset":587832,
			"target":34962
		},
		{
			"buffer":0,
			"byteLength":391888,
			"byteOffset":1175664,
			"target":34962
		},
		{
			"buffer":0,
			"byteLength":122244,
			"byteOffset":1567552,
			"target":34963
		}
	],
	"samplers":[
		{
			"magFilter":9729,
			"minFilter":9987
		}
	],
	"buffers":[
		{
			"byteLength":1689796,
			"uri":"terrain.bin"
		}
	]
}
