{
	"asset":{
		"generator":"Khronos glTF Blender I/O v4.4.56",
		"version":"2.0"
	},
	"extensionsUsed":[
		"KHR_materials_specular"
	],
	"scene":0,
	"scenes":[
		{
			"name":"Scene",
			"nodes":[
				0,
				1,
				2,
				3,
				4,
				5,
				6,
				7,
				8,
				9,
				10,
				11,
				12,
				13
			]
		}
	],
	"nodes":[
		{
			"mesh":0,
			"name":"Box349"
		},
		{
			"mesh":1,
			"name":"Box351"
		},
		{
			"mesh":2,
			"name":"Box348"
		},
		{
			"mesh":3,
			"name":"Plane104"
		},
		{
			"mesh":4,
			"name":"Box318"
		},
		{
			"mesh":5,
			"name":"Plane112"
		},
		{
			"mesh":6,
			"name":"Plane008"
		},
		{
			"mesh":7,
			"name":"Box407"
		},
		{
			"mesh":8,
			"name":"Box408"
		},
		{
			"mesh":9,
			"name":"Plane008.001"
		},
		{
			"mesh":10,
			"name":"Plane008.002"
		},
		{
			"mesh":11,
			"name":"Plane008.003"
		},
		{
			"mesh":12,
			"name":"Plane008.004"
		},
		{
			"mesh":13,
			"name":"Plane008.005"
		}
	],
	"materials":[
		{
			"doubleSided":true,
			"extensions":{
				"KHR_materials_specular":{
					"specularColorFactor":[
						2.0,
						2.0,
						2.0
					]
				}
			},
			"name":"02 - Default",
			"normalTexture":{
				"index":0
			},
			"pbrMetallicRoughness":{
				"baseColorTexture":{
					"index":1
				},
				"metallicRoughnessTexture":{
					"index":2
				}
			}
		},
		{
			"doubleSided":true,
			"extensions":{
				"KHR_materials_specular":{
					"specularFactor":0
				}
			},
			"name":"04 - Default",
			"normalTexture":{
				"index":3
			},
			"pbrMetallicRoughness":{
				"baseColorTexture":{
					"index":4
				},
				"metallicRoughnessTexture":{
					"index":5
				}
			}
		},
		{
			"doubleSided":true,
			"extensions":{
				"KHR_materials_specular":{
					"specularFactor":0
				}
			},
			"name":"06 - Default",
			"normalTexture":{
				"index":6
			},
			"pbrMetallicRoughness":{
				"baseColorTexture":{
					"index":7
				},
				"metallicRoughnessTexture":{
					"index":8
				}
			}
		},
		{
			"doubleSided":true,
			"extensions":{
				"KHR_materials_specular":{
					"specularFactor":0
				}
			},
			"name":"08 - Default",
			"normalTexture":{
				"index":9
			},
			"pbrMetallicRoughness":{
				"baseColorTexture":{
					"index":10
				},
				"metallicRoughnessTexture":{
					"index":11
				}
			}
		},
		{
			"doubleSided":true,
			"extensions":{
				"KHR_materials_specular":{
					"specularFactor":0
				}
			},
			"name":"01 - Default",
			"pbrMetallicRoughness":{
				"baseColorFactor":[
					0.5882353186607361,
					0.5882353186607361,
					0.5882353186607361,
					1
				],
				"metallicFactor":0.21818137168884277,
				"roughnessFactor":0.858578622341156
			}
		},
		{
			"doubleSided":true,
			"name":"Material",
			"pbrMetallicRoughness":{
				"baseColorFactor":[
					0.8233345150947571,
					0.8233345150947571,
					0.8233345150947571,
					1
				],
				"metallicFactor":0
			}
		},
		{
			"doubleSided":true,
			"extensions":{
				"KHR_materials_specular":{
					"specularFactor":0
				}
			},
			"name":"07 - Default",
			"normalTexture":{
				"index":12
			},
			"pbrMetallicRoughness":{
				"baseColorTexture":{
					"index":13
				},
				"metallicRoughnessTexture":{
					"index":14
				}
			}
		}
	],
	"meshes":[
		{
			"name":"Mesh",
			"primitives":[
				{
					"attributes":{
						"POSITION":0,
						"NORMAL":1,
						"TEXCOORD_0":2
					},
					"indices":3,
					"material":0
				}
			]
		},
		{
			"name":"Mesh.001",
			"primitives":[
				{
					"attributes":{
						"POSITION":4,
						"NORMAL":5,
						"TEXCOORD_0":6
					},
					"indices":7,
					"material":1
				}
			]
		},
		{
			"name":"Mesh.002",
			"primitives":[
				{
					"attributes":{
						"POSITION":8,
						"NORMAL":9,
						"TEXCOORD_0":10
					},
					"indices":11,
					"material":2
				}
			]
		},
		{
			"name":"Mesh.003",
			"primitives":[
				{
					"attributes":{
						"POSITION":12,
						"NORMAL":13,
						"TEXCOORD_0":14
					},
					"indices":15,
					"material":2
				}
			]
		},
		{
			"name":"Mesh.004",
			"primitives":[
				{
					"attributes":{
						"POSITION":16,
						"NORMAL":17,
						"TEXCOORD_0":18
					},
					"indices":19,
					"material":3
				}
			]
		},
		{
			"name":"Mesh.005",
			"primitives":[
				{
					"attributes":{
						"POSITION":20,
						"NORMAL":21,
						"TEXCOORD_0":22
					},
					"indices":23,
					"material":4
				}
			]
		},
		{
			"name":"Mesh.007",
			"primitives":[
				{
					"attributes":{
						"POSITION":24,
						"NORMAL":25,
						"TEXCOORD_0":26
					},
					"indices":27,
					"material":5
				}
			]
		},
		{
			"name":"Mesh.020",
			"primitives":[
				{
					"attributes":{
						"POSITION":28,
						"NORMAL":29,
						"TEXCOORD_0":30
					},
					"indices":31,
					"material":6
				}
			]
		},
		{
			"name":"Mesh.021",
			"primitives":[
				{
					"attributes":{
						"POSITION":32,
						"NORMAL":33,
						"TEXCOORD_0":34
					},
					"indices":35,
					"material":1
				}
			]
		},
		{
			"name":"Mesh.006",
			"primitives":[
				{
					"attributes":{
						"POSITION":36,
						"NORMAL":37,
						"TEXCOORD_0":38
					},
					"indices":39,
					"material":5
				}
			]
		},
		{
			"name":"Mesh.008",
			"primitives":[
				{
					"attributes":{
						"POSITION":40,
						"NORMAL":41,
						"TEXCOORD_0":42
					},
					"indices":43,
					"material":5
				}
			]
		},
		{
			"name":"Mesh.009",
			"primitives":[
				{
					"attributes":{
						"POSITION":44,
						"NORMAL":45,
						"TEXCOORD_0":46
					},
					"indices":43,
					"material":5
				}
			]
		},
		{
			"name":"Mesh.010",
			"primitives":[
				{
					"attributes":{
						"POSITION":47,
						"NORMAL":48,
						"TEXCOORD_0":49
					},
					"indices":50,
					"material":4
				}
			]
		},
		{
			"name":"Mesh.011",
			"primitives":[
				{
					"attributes":{
						"POSITION":51,
						"NORMAL":52,
						"TEXCOORD_0":53
					},
					"indices":50,
					"material":4
				}
			]
		}
	],
	"textures":[
		{
			"sampler":0,
			"source":0
		},
		{
			"sampler":0,
			"source":1
		},
		{
			"sampler":0,
			"source":2
		},
		{
			"sampler":0,
			"source":3
		},
		{
			"sampler":0,
			"source":4
		},
		{
			"sampler":0,
			"source":5
		},
		{
			"sampler":0,
			"source":6
		},
		{
			"sampler":0,
			"source":7
		},
		{
			"sampler":0,
			"source":8
		},
		{
			"sampler":0,
			"source":9
		},
		{
			"sampler":0,
			"source":10
		},
		{
			"sampler":0,
			"source":11
		},
		{
			"sampler":0,
			"source":12
		},
		{
			"sampler":0,
			"source":13
		},
		{
			"sampler":0,
			"source":14
		}
	],
	"images":[
		{
			"mimeType":"image/png",
			"name":"material_normal",
			"uri":"material_normal.png"
		},
		{
			"mimeType":"image/jpeg",
			"name":"Texturelabs_Concrete_133M",
			"uri":"Texturelabs_Concrete_133M.jpg"
		},
		{
			"mimeType":"image/png",
			"name":"material_metallic.png-material_smoothness.png",
			"uri":"material_metallic_png-material_smoothness_png.png"
		},
		{
			"mimeType":"image/png",
			"name":"material_normal",
			"uri":"material_normal-1.png"
		},
		{
			"mimeType":"image/jpeg",
			"name":"Texturelabs_Metal_167M",
			"uri":"Texturelabs_Metal_167M.jpg"
		},
		{
			"mimeType":"image/png",
			"name":"material_metallic.png-material_smoothness.png",
			"uri":"material_metallic_png-material_smoothness_png-1.png"
		},
		{
			"mimeType":"image/png",
			"name":"material_normal",
			"uri":"material_normal-2.png"
		},
		{
			"mimeType":"image/jpeg",
			"name":"Texturelabs_Concrete_149M",
			"uri":"Texturelabs_Concrete_149M.jpg"
		},
		{
			"mimeType":"image/png",
			"name":"material_metallic.png-material_smoothness.png",
			"uri":"material_metallic_png-material_smoothness_png-2.png"
		},
		{
			"mimeType":"image/png",
			"name":"material_normal",
			"uri":"material_normal-3.png"
		},
		{
			"mimeType":"image/jpeg",
			"name":"Texturelabs_Concrete_192M",
			"uri":"Texturelabs_Concrete_192M.jpg"
		},
		{
			"mimeType":"image/png",
			"name":"material_metallic.png-material_smoothness.png",
			"uri":"material_metallic_png-material_smoothness_png-3.png"
		},
		{
			"mimeType":"image/png",
			"name":"material_normal",
			"uri":"material_normal-4.png"
		},
		{
			"mimeType":"image/jpeg",
			"name":"Texturelabs_Concrete_189M",
			"uri":"Texturelabs_Concrete_189M.jpg"
		},
		{
			"mimeType":"image/png",
			"name":"material_metallic-material_smoothness",
			"uri":"material_metallic-material_smoothness.png"
		}
	],
	"accessors":[
		{
			"bufferView":0,
			"componentType":5126,
			"count":330,
			"max":[
				4.8585004806518555,
				2.7571122646331787,
				-1.2540597915649414
			],
			"min":[
				1.7586867809295654,
				0.12626546621322632,
				-4.073751449584961
			],
			"type":"VEC3"
		},
		{
			"bufferView":1,
			"componentType":5126,
			"count":330,
			"type":"VEC3"
		},
		{
			"bufferView":2,
			"componentType":5126,
			"count":330,
			"type":"VEC2"
		},
		{
			"bufferView":3,
			"componentType":5123,
			"count":648,
			"type":"SCALAR"
		},
		{
			"bufferView":4,
			"componentType":5126,
			"count":336,
			"max":[
				3.565725326538086,
				3.359243869781494,
				-1.230008840560913
			],
			"min":[
				3.057978868484497,
				0.21464908123016357,
				-3.9795830249786377
			],
			"type":"VEC3"
		},
		{
			"bufferView":5,
			"componentType":5126,
			"count":336,
			"type":"VEC3"
		},
		{
			"bufferView":6,
			"componentType":5126,
			"count":336,
			"type":"VEC2"
		},
		{
			"bufferView":7,
			"componentType":5123,
			"count":552,
			"type":"SCALAR"
		},
		{
			"bufferView":8,
			"componentType":5126,
			"count":12,
			"max":[
				4.938438415527344,
				1.5448391437530518,
				-3.9359073638916016
			],
			"min":[
				1.6490058898925781,
				1.3488922119140625,
				-5.466736793518066
			],
			"type":"VEC3"
		},
		{
			"bufferView":9,
			"componentType":5126,
			"count":12,
			"type":"VEC3"
		},
		{
			"bufferView":10,
			"componentType":5126,
			"count":12,
			"type":"VEC2"
		},
		{
			"bufferView":11,
			"componentType":5123,
			"count":18,
			"type":"SCALAR"
		},
		{
			"bufferView":12,
			"componentType":5126,
			"count":194,
			"max":[
				4.996779918670654,
				2.614424705505371,
				5.538089275360107
			],
			"min":[
				-4.890252590179443,
				0.07860219478607178,
				-5.539840221405029
			],
			"type":"VEC3"
		},
		{
			"bufferView":13,
			"componentType":5126,
			"count":194,
			"type":"VEC3"
		},
		{
			"bufferView":14,
			"componentType":5126,
			"count":194,
			"type":"VEC2"
		},
		{
			"bufferView":15,
			"componentType":5123,
			"count":354,
			"type":"SCALAR"
		},
		{
			"bufferView":16,
			"componentType":5126,
			"count":48,
			"max":[
				-4.85897970199585,
				2.649369478225708,
				5.564701080322266
			],
			"min":[
				-5.010633945465088,
				0.047558821737766266,
				-5.565745830535889
			],
			"type":"VEC3"
		},
		{
			"bufferView":17,
			"componentType":5126,
			"count":48,
			"type":"VEC3"
		},
		{
			"bufferView":18,
			"componentType":5126,
			"count":48,
			"type":"VEC2"
		},
		{
			"bufferView":19,
			"componentType":5123,
			"count":84,
			"type":"SCALAR"
		},
		{
			"bufferView":20,
			"componentType":5126,
			"count":12,
			"max":[
				4.988533973693848,
				0.1931147575378418,
				5.547024250030518
			],
			"min":[
				-4.912016868591309,
				0.05311477184295654,
				-5.542758464813232
			],
			"type":"VEC3"
		},
		{
			"bufferView":21,
			"componentType":5126,
			"count":12,
			"type":"VEC3"
		},
		{
			"bufferView":22,
			"componentType":5126,
			"count":12,
			"type":"VEC2"
		},
		{
			"bufferView":23,
			"componentType":5123,
			"count":18,
			"type":"SCALAR"
		},
		{
			"bufferView":24,
			"componentType":5126,
			"count":80,
			"max":[
				-2.597294807434082,
				2.2952985763549805,
				5.587002754211426
			],
			"min":[
				-3.8294782638549805,
				0.6680841445922852,
				5.5370025634765625
			],
			"type":"VEC3"
		},
		{
			"bufferView":25,
			"componentType":5126,
			"count":80,
			"type":"VEC3"
		},
		{
			"bufferView":26,
			"componentType":5126,
			"count":80,
			"type":"VEC2"
		},
		{
			"bufferView":27,
			"componentType":5123,
			"count":180,
			"type":"SCALAR"
		},
		{
			"bufferView":28,
			"componentType":5126,
			"count":528,
			"max":[
				5.010634422302246,
				2.648256540298462,
				5.646053791046143
			],
			"min":[
				-4.888622283935547,
				0.045963555574417114,
				-5.646053791046143
			],
			"type":"VEC3"
		},
		{
			"bufferView":29,
			"componentType":5126,
			"count":528,
			"type":"VEC3"
		},
		{
			"bufferView":30,
			"componentType":5126,
			"count":528,
			"type":"VEC2"
		},
		{
			"bufferView":31,
			"componentType":5123,
			"count":1152,
			"type":"SCALAR"
		},
		{
			"bufferView":32,
			"componentType":5126,
			"count":260,
			"max":[
				3.871242046356201,
				1.6526107788085938,
				5.688181400299072
			],
			"min":[
				-3.817469596862793,
				0.3433329164981842,
				-5.688181400299072
			],
			"type":"VEC3"
		},
		{
			"bufferView":33,
			"componentType":5126,
			"count":260,
			"type":"VEC3"
		},
		{
			"bufferView":34,
			"componentType":5126,
			"count":260,
			"type":"VEC2"
		},
		{
			"bufferView":35,
			"componentType":5123,
			"count":432,
			"type":"SCALAR"
		},
		{
			"bufferView":36,
			"componentType":5126,
			"count":80,
			"max":[
				0.688878059387207,
				2.2952985763549805,
				5.587002754211426
			],
			"min":[
				-0.5433053970336914,
				0.6680841445922852,
				5.5370025634765625
			],
			"type":"VEC3"
		},
		{
			"bufferView":37,
			"componentType":5126,
			"count":80,
			"type":"VEC3"
		},
		{
			"bufferView":38,
			"componentType":5126,
			"count":80,
			"type":"VEC2"
		},
		{
			"bufferView":39,
			"componentType":5123,
			"count":180,
			"type":"SCALAR"
		},
		{
			"bufferView":40,
			"componentType":5126,
			"count":80,
			"max":[
				-2.597294807434082,
				2.2952985763549805,
				-5.536502838134766
			],
			"min":[
				-3.8294782638549805,
				0.6680840849876404,
				-5.586503028869629
			],
			"type":"VEC3"
		},
		{
			"bufferView":41,
			"componentType":5126,
			"count":80,
			"type":"VEC3"
		},
		{
			"bufferView":42,
			"componentType":5126,
			"count":80,
			"type":"VEC2"
		},
		{
			"bufferView":43,
			"componentType":5123,
			"count":180,
			"type":"SCALAR"
		},
		{
			"bufferView":44,
			"componentType":5126,
			"count":80,
			"max":[
				0.688878059387207,
				2.2952985763549805,
				-5.536502838134766
			],
			"min":[
				-0.5433053970336914,
				0.6680840849876404,
				-5.586503028869629
			],
			"type":"VEC3"
		},
		{
			"bufferView":45,
			"componentType":5126,
			"count":80,
			"type":"VEC3"
		},
		{
			"bufferView":46,
			"componentType":5126,
			"count":80,
			"type":"VEC2"
		},
		{
			"bufferView":47,
			"componentType":5126,
			"count":32,
			"max":[
				3.891742706298828,
				2.3283708095550537,
				-5.537001609802246
			],
			"min":[
				2.876776695251465,
				1.6191216707229614,
				-5.587002754211426
			],
			"type":"VEC3"
		},
		{
			"bufferView":48,
			"componentType":5126,
			"count":32,
			"type":"VEC3"
		},
		{
			"bufferView":49,
			"componentType":5126,
			"count":32,
			"type":"VEC2"
		},
		{
			"bufferView":50,
			"componentType":5123,
			"count":72,
			"type":"SCALAR"
		},
		{
			"bufferView":51,
			"componentType":5126,
			"count":32,
			"max":[
				3.891742706298828,
				1.0563411712646484,
				-5.537001609802246
			],
			"min":[
				2.876776695251465,
				0.3470919132232666,
				-5.587002754211426
			],
			"type":"VEC3"
		},
		{
			"bufferView":52,
			"componentType":5126,
			"count":32,
			"type":"VEC3"
		},
		{
			"bufferView":53,
			"componentType":5126,
			"count":32,
			"type":"VEC2"
		}
	],
	"bufferViews":[
		{
			"buffer":0,
			"byteLength":3960,
			"byteOffset":0,
			"target":34962
		},
		{
			"buffer":0,
			"byteLength":3960,
			"byteOffset":3960,
			"target":34962
		},
		{
			"buffer":0,
			"byteLength":2640,
			"byteOffset":7920,
			"target":34962
		},
		{
			"buffer":0,
			"byteLength":1296,
			"byteOffset":10560,
			"target":34963
		},
		{
			"buffer":0,
			"byteLength":4032,
			"byteOffset":11856,
			"target":34962
		},
		{
			"buffer":0,
			"byteLength":4032,
			"byteOffset":15888,
			"target":34962
		},
		{
			"buffer":0,
			"byteLength":2688,
			"byteOffset":19920,
			"target":34962
		},
		{
			"buffer":0,
			"byteLength":1104,
			"byteOffset":22608,
			"target":34963
		},
		{
			"buffer":0,
			"byteLength":144,
			"byteOffset":23712,
			"target":34962
		},
		{
			"buffer":0,
			"byteLength":144,
			"byteOffset":23856,
			"target":34962
		},
		{
			"buffer":0,
			"byteLength":96,
			"byteOffset":24000,
			"target":34962
		},
		{
			"buffer":0,
			"byteLength":36,
			"byteOffset":24096,
			"target":34963
		},
		{
			"buffer":0,
			"byteLength":2328,
			"byteOffset":24132,
			"target":34962
		},
		{
			"buffer":0,
			"byteLength":2328,
			"byteOffset":26460,
			"target":34962
		},
		{
			"buffer":0,
			"byteLength":1552,
			"byteOffset":28788,
			"target":34962
		},
		{
			"buffer":0,
			"byteLength":708,
			"byteOffset":30340,
			"target":34963
		},
		{
			"buffer":0,
			"byteLength":576,
			"byteOffset":31048,
			"target":34962
		},
		{
			"buffer":0,
			"byteLength":576,
			"byteOffset":31624,
			"target":34962
		},
		{
			"buffer":0,
			"byteLength":384,
			"byteOffset":32200,
			"target":34962
		},
		{
			"buffer":0,
			"byteLength":168,
			"byteOffset":32584,
			"target":34963
		},
		{
			"buffer":0,
			"byteLength":144,
			"byteOffset":32752,
			"target":34962
		},
		{
			"buffer":0,
			"byteLength":144,
			"byteOffset":32896,
			"target":34962
		},
		{
			"buffer":0,
			"byteLength":96,
			"byteOffset":33040,
			"target":34962
		},
		{
			"buffer":0,
			"byteLength":36,
			"byteOffset":33136,
			"target":34963
		},
		{
			"buffer":0,
			"byteLength":960,
			"byteOffset":33172,
			"target":34962
		},
		{
			"buffer":0,
			"byteLength":960,
			"byteOffset":34132,
			"target":34962
		},
		{
			"buffer":0,
			"byteLength":640,
			"byteOffset":35092,
			"target":34962
		},
		{
			"buffer":0,
			"byteLength":360,
			"byteOffset":35732,
			"target":34963
		},
		{
			"buffer":0,
			"byteLength":6336,
			"byteOffset":36092,
			"target":34962
		},
		{
			"buffer":0,
			"byteLength":6336,
			"byteOffset":42428,
			"target":34962
		},
		{
			"buffer":0,
			"byteLength":4224,
			"byteOffset":48764,
			"target":34962
		},
		{
			"buffer":0,
			"byteLength":2304,
			"byteOffset":52988,
			"target":34963
		},
		{
			"buffer":0,
			"byteLength":3120,
			"byteOffset":55292,
			"target":34962
		},
		{
			"buffer":0,
			"byteLength":3120,
			"byteOffset":58412,
			"target":34962
		},
		{
			"buffer":0,
			"byteLength":2080,
			"byteOffset":61532,
			"target":34962
		},
		{
			"buffer":0,
			"byteLength":864,
			"byteOffset":63612,
			"target":34963
		},
		{
			"buffer":0,
			"byteLength":960,
			"byteOffset":64476,
			"target":34962
		},
		{
			"buffer":0,
			"byteLength":960,
			"byteOffset":65436,
			"target":34962
		},
		{
			"buffer":0,
			"byteLength":640,
			"byteOffset":66396,
			"target":34962
		},
		{
			"buffer":0,
			"byteLength":360,
			"byteOffset":67036,
			"target":34963
		},
		{
			"buffer":0,
			"byteLength":960,
			"byteOffset":67396,
			"target":34962
		},
		{
			"buffer":0,
			"byteLength":960,
			"byteOffset":68356,
			"target":34962
		},
		{
			"buffer":0,
			"byteLength":640,
			"byteOffset":69316,
			"target":34962
		},
		{
			"buffer":0,
			"byteLength":360,
			"byteOffset":69956,
			"target":34963
		},
		{
			"buffer":0,
			"byteLength":960,
			"byteOffset":70316,
			"target":34962
		},
		{
			"buffer":0,
			"byteLength":960,
			"byteOffset":71276,
			"target":34962
		},
		{
			"buffer":0,
			"byteLength":640,
			"byteOffset":72236,
			"target":34962
		},
		{
			"buffer":0,
			"byteLength":384,
			"byteOffset":72876,
			"target":34962
		},
		{
			"buffer":0,
			"byteLength":384,
			"byteOffset":73260,
			"target":34962
		},
		{
			"buffer":0,
			"byteLength":256,
			"byteOffset":73644,
			"target":34962
		},
		{
			"buffer":0,
			"byteLength":144,
			"byteOffset":73900,
			"target":34963
		},
		{
			"buffer":0,
			"byteLength":384,
			"byteOffset":74044,
			"target":34962
		},
		{
			"buffer":0,
			"byteLength":384,
			"byteOffset":74428,
			"target":34962
		},
		{
			"buffer":0,
			"byteLength":256,
			"byteOffset":74812,
			"target":34962
		}
	],
	"samplers":[
		{
			"magFilter":9729,
			"minFilter":9987
		}
	],
	"buffers":[
		{
			"byteLength":75068,
			"uri":"parts.bin"
		}
	]
}
